<svg width="40" height="40" viewBox="0 0 40 40" fill="none" xmlns="http://www.w3.org/2000/svg">
<path d="M21.2059 33.6153C21.1167 33.6153 21.0296 33.5957 20.9469 33.5587C20.6379 33.4172 20.5029 33.0494 20.6466 32.7403C21.6412 30.5943 21.8436 28.1545 21.2146 25.8735L21.158 25.6668L20.9513 25.719C20.3114 25.8822 19.6476 26.0172 18.9772 26.1238L18.7857 26.1543L18.7944 26.348C18.8118 26.7376 18.6682 27.1207 18.3961 27.4036C18.1349 27.6626 17.7845 27.8062 17.4123 27.8062H17.371C16.4242 27.8062 15.1466 27.1098 14.0257 25.9911C13.3119 25.2772 12.7569 24.4784 12.4609 23.7428C11.969 22.5218 12.3477 21.8862 12.6176 21.6185C12.8809 21.3639 13.2335 21.2224 13.6035 21.2224C13.6253 21.2224 13.647 21.2224 13.6688 21.2224L13.8625 21.2311L13.893 21.0396C13.9974 20.3714 14.1346 19.7076 14.2978 19.0677L14.35 18.8609L14.1433 18.8044C13.2814 18.5715 12.389 18.4539 11.4967 18.4539C10.0319 18.4539 8.61285 18.763 7.27867 19.3724C7.19597 19.4094 7.10891 19.429 7.01967 19.429C6.93044 19.429 6.84338 19.4094 6.76067 19.3724C6.45161 19.2288 6.31667 18.8631 6.46032 18.5541C8.30597 14.5798 12.3303 12.0116 16.7093 12.0116C16.9683 12.0116 17.2317 12.0203 17.4929 12.0377L17.6104 12.0464L17.6822 11.9528C21.478 6.89687 27.4785 3.9978 34.1494 3.9978C34.5651 3.9978 34.9873 4.00869 35.4052 4.03263C35.7208 4.05004 35.9711 4.30033 35.9885 4.61592C36.3716 11.8113 33.4834 18.2689 28.0683 22.3368L27.9748 22.4086L27.9835 22.5261C28.3078 27.1685 25.6895 31.602 21.4671 33.5587C21.3866 33.5957 21.2995 33.6153 21.2103 33.6153H21.2059ZM26.4425 23.4337C25.2128 24.1759 23.8982 24.7875 22.5357 25.2511L22.342 25.3164L22.3965 25.5144C22.8992 27.3165 22.9427 29.2318 22.5227 31.0535L22.3856 31.6477L22.8666 31.2755C25.2542 29.4299 26.6776 26.6418 26.7733 23.6252L26.7864 23.2248L26.4447 23.4315L26.4425 23.4337ZM13.4533 22.6698C13.4533 23.0724 13.8364 24.0562 14.9007 25.1205C15.9606 26.1826 16.9466 26.5657 17.3492 26.5657H17.5669V26.348C17.5712 25.9454 17.1882 24.9616 16.1239 23.8973C15.0639 22.8374 14.078 22.4521 13.6753 22.4521H13.4577V22.6698H13.4533ZM26.6819 6.62698C20.4115 9.10816 16.0738 14.6473 15.0792 21.4488L15.0574 21.5989L15.1902 21.6708C15.854 22.0321 16.459 22.4869 16.9901 23.0267C17.532 23.5599 17.9869 24.165 18.3482 24.8288L18.42 24.9616L18.5702 24.9398C25.3695 23.9452 30.9108 19.6075 33.3898 13.3349L33.4421 13.2021L26.8147 6.57257L26.6819 6.62481V6.62698ZM11.4967 17.2221C12.5131 17.2221 13.5251 17.357 14.5046 17.6247L14.7026 17.6791L14.7679 17.4854C15.2315 16.1251 15.8431 14.8105 16.5853 13.5786L16.792 13.2348L16.3916 13.2478C13.3728 13.3458 10.5847 14.7713 8.73691 17.1611L8.36473 17.6421L8.95673 17.5072C9.78814 17.3178 10.6435 17.2221 11.4967 17.2221ZM34.1146 5.23186C32.2036 5.23186 30.3014 5.49739 28.4645 6.02192L28.1097 6.12422L33.8969 11.9136L33.9992 11.5567C34.5651 9.56958 34.8306 7.51498 34.7849 5.44951L34.7806 5.24057L34.5716 5.23622C34.4367 5.23404 34.2996 5.23186 34.1668 5.23186H34.1168H34.1146Z" fill="#E119A0"/>
<path d="M4.6163 36.0854C4.54665 36.0854 4.47918 36.0745 4.41389 36.0505C4.25936 35.9961 4.13312 35.8851 4.0613 35.7371C3.98947 35.5891 3.98077 35.4215 4.03518 35.267L5.46512 31.1578C6.82542 27.2532 9.03672 26.6721 10.2338 26.6721C10.3535 26.6721 10.471 26.6786 10.582 26.6917C12.0838 26.8615 13.2482 27.9954 13.4114 29.4515C13.4898 30.1545 13.3679 31.234 12.3406 32.3897C11.4439 33.3952 10.051 34.2332 8.19877 34.8774L4.82089 36.0549C4.75559 36.0767 4.68812 36.0897 4.61847 36.0897L4.6163 36.0854ZM10.212 27.9018C8.76683 27.9018 7.4283 29.2708 6.62954 31.5627L5.61748 34.4682L7.79177 33.7108C11.2371 32.5116 12.321 30.7944 12.1861 29.5886C12.0881 28.7071 11.3699 28.0194 10.4427 27.9149C10.3665 27.9062 10.2882 27.9018 10.212 27.9018Z" fill="#00A3FF"/>
<path d="M26.4636 17.0828C25.5212 17.0828 24.6376 16.715 23.9716 16.049C23.3056 15.383 22.9399 14.4971 22.9399 13.5569C22.9399 12.6167 23.3056 11.7287 23.9716 11.0627C24.6376 10.3967 25.5234 10.031 26.4636 10.031C27.4039 10.031 28.2919 10.3967 28.9579 11.0627C30.3291 12.4382 30.3291 14.6734 28.9579 16.049C28.2919 16.715 27.4061 17.0806 26.4658 17.0806L26.4636 17.0828ZM26.4636 11.2651C25.8521 11.2651 25.2775 11.5023 24.8444 11.9354C24.4112 12.3685 24.1718 12.9431 24.1718 13.5547C24.1718 14.1663 24.4091 14.7431 24.8422 15.1762C25.2753 15.6093 25.8499 15.8487 26.4636 15.8487C27.0774 15.8487 27.6498 15.6115 28.0829 15.1784L28.1025 15.1566C28.984 14.2621 28.9753 12.8169 28.0808 11.9332C27.6498 11.5023 27.0731 11.2629 26.4615 11.2629L26.4636 11.2651Z" fill="#00A3FF"/>
</svg>
