<svg width="80" height="80" viewBox="0 0 80 80" fill="none" xmlns="http://www.w3.org/2000/svg">
<g clip-path="url(#clip0_5479_1424)">
<path d="M58.8454 48.5857L64.6598 65.4847C64.9114 66.2187 64.367 66.9816 63.5939 66.9816H56.2969L50.666 49.6475L58.8475 48.5857H58.8454Z" fill="white"/>
<path d="M63.5918 67.0455H56.2949C56.266 67.0455 56.2413 67.0269 56.233 67.0001L50.6021 49.6661C50.5959 49.6475 50.598 49.629 50.6083 49.6125C50.6186 49.596 50.6351 49.5857 50.6537 49.5836L58.8351 48.5218C58.866 48.5176 58.8949 48.5362 58.9052 48.565L64.7196 65.464C64.8475 65.8331 64.7897 66.2269 64.5629 66.5465C64.3361 66.864 63.9815 67.0455 63.5918 67.0455ZM56.3423 66.9176H63.5918C63.9403 66.9176 64.2557 66.7547 64.4578 66.4723C64.6598 66.1877 64.7114 65.8372 64.598 65.5073L58.8021 48.6578L50.7485 49.7032L56.3423 66.9197V66.9176Z" fill="black"/>
<path d="M57.6291 64.6764C57.458 64.6764 57.2848 64.6681 57.1116 64.6475C57.0765 64.6434 57.0518 64.6125 57.0538 64.5753C57.058 64.5403 57.0889 64.5135 57.126 64.5176C58.06 64.6228 58.994 64.4083 59.9507 64.1588C61.1549 63.8454 62.3652 63.4949 63.5507 63.1197C63.5858 63.1094 63.6208 63.1279 63.6311 63.1609C63.6415 63.1939 63.6229 63.231 63.5899 63.2413C62.4023 63.6186 61.1899 63.9692 59.9837 64.2826C59.1899 64.4887 58.4105 64.6722 57.6291 64.6722V64.6764Z" fill="black"/>
<path d="M72.8204 42.4929L74.1523 45.9465C75.0802 48.3506 73.2967 50.9362 70.7214 50.9197C64.6204 50.8826 55.4905 50.8454 55.4905 50.9568C55.4905 51.097 59.5028 62.499 60.7296 65.9836C60.9008 66.4722 60.54 66.9836 60.0224 66.9836H47.9132C47.509 66.9836 47.342 66.4661 47.6699 66.2289L50.6637 64.0702C50.6637 64.0702 47.3441 57.2475 45.0121 50.6248C43.6142 46.6537 46.5668 42.4949 50.7729 42.4949H72.8204V42.4929Z" fill="white"/>
<path d="M60.0206 67.0454H47.9113C47.6989 67.0454 47.5195 66.9155 47.4536 66.7114C47.3876 66.5094 47.4577 66.297 47.6309 66.1733L50.5814 64.0454C50.2783 63.4166 47.1546 56.899 44.9505 50.6434C44.2783 48.732 44.5628 46.6887 45.736 45.0331C46.9092 43.3774 48.7443 42.4269 50.7731 42.4269H72.8206C72.8474 42.4269 72.87 42.4434 72.8804 42.4681L74.2123 45.9217C74.6556 47.0722 74.503 48.363 73.802 49.3774C73.1072 50.3836 71.9649 50.9836 70.7422 50.9836C70.734 50.9836 70.7278 50.9836 70.7195 50.9836C61.6556 50.9279 56.1834 50.9362 55.569 51.0042C55.8412 51.899 59.6123 62.6145 60.7917 65.963C60.8804 66.2166 60.8432 66.4867 60.6886 66.7052C60.534 66.9238 60.2907 67.0496 60.0226 67.0496L60.0206 67.0454ZM50.7731 42.5568C48.7876 42.5568 46.9896 43.4867 45.8412 45.1094C44.6948 46.73 44.4144 48.732 45.0721 50.6021C47.3752 57.1444 50.6886 63.9712 50.7216 64.0393C50.736 64.0681 50.7278 64.1011 50.701 64.1197L47.7072 66.2784C47.5546 66.3898 47.5401 66.5547 47.5773 66.6722C47.6144 66.7898 47.7237 66.9155 47.9133 66.9155H60.0226C60.2474 66.9155 60.4535 66.8104 60.5834 66.6248C60.7133 66.4393 60.7463 66.2124 60.67 66.0001C58.2783 59.2083 55.4267 51.0867 55.4267 50.9527C55.4267 50.9362 55.435 50.9176 55.4474 50.9052C55.4907 50.8619 55.5938 50.7609 70.7237 50.8516C70.7319 50.8516 70.7381 50.8516 70.7463 50.8516C71.9422 50.8516 73.0164 50.2867 73.6989 49.3011C74.3752 48.3217 74.5237 47.0743 74.0948 45.965L72.7793 42.5527H50.7773L50.7731 42.5568Z" fill="black"/>
<path d="M54.1628 65.2145C52.9319 65.2145 51.8989 64.9423 51.0865 64.4001C50.9958 64.3403 50.901 64.2722 50.8206 64.1836C50.7958 64.1568 50.7979 64.1176 50.8247 64.0928C50.8515 64.0681 50.8907 64.0702 50.9154 64.097C50.9855 64.1753 51.0742 64.2372 51.1566 64.2928C52.1381 64.9464 53.4494 65.198 55.0536 65.0413C55.7958 64.9691 56.5401 64.8207 57.2618 64.6784C57.8577 64.5609 58.4721 64.4392 59.0845 64.3588C59.1195 64.3547 59.1525 64.3794 59.1566 64.4145C59.1608 64.4495 59.136 64.4825 59.101 64.4867C58.4927 64.565 57.8804 64.6867 57.2865 64.8042C56.5628 64.9485 55.8144 65.0949 55.0659 65.1691C54.7546 65.2001 54.4536 65.2145 54.1628 65.2145Z" fill="black"/>
<path d="M54.9628 51.0413H51.8989C51.8638 51.0413 51.835 51.0124 51.835 50.9774C51.835 50.9423 51.8638 50.9135 51.8989 50.9135H54.9628C54.9979 50.9135 55.0267 50.9423 55.0267 50.9774C55.0267 51.0124 54.9979 51.0413 54.9628 51.0413Z" fill="black"/>
<path d="M57.1691 65.3361C57.1691 65.3361 57.1505 65.3362 57.1423 65.33C57.1093 65.3155 57.0948 65.2764 57.1113 65.2454L63.4247 51.5197C63.4392 51.4867 63.4784 51.4722 63.5093 51.4887C63.5423 51.5032 63.5567 51.5423 63.5402 51.5733L57.2268 65.299C57.2165 65.3217 57.1918 65.3361 57.1691 65.3361Z" fill="black"/>
<path d="M56.8136 66.9871C57.2246 66.9864 57.5574 66.6526 57.5567 66.2416C57.5561 65.8305 57.2223 65.4978 56.8112 65.4984C56.4001 65.499 56.0674 65.8328 56.0681 66.2439C56.0687 66.655 56.4025 66.9877 56.8136 66.9871Z" fill="black"/>
<path d="M78.9524 65.3361C78.9277 65.3361 78.905 65.3217 78.8947 65.299L72.5813 51.5733C72.5669 51.5403 72.5813 51.5031 72.6122 51.4887C72.6452 51.4743 72.6823 51.4887 72.6968 51.5196L79.0102 65.2454C79.0246 65.2784 79.0102 65.3155 78.9792 65.33C78.971 65.3341 78.9607 65.3361 78.9524 65.3361Z" fill="black"/>
<path d="M80.0462 66.2345C80.0468 65.8223 79.7132 65.4876 79.301 65.487C78.8888 65.4863 78.5541 65.82 78.5534 66.2322C78.5528 66.6444 78.8864 66.9791 79.2986 66.9797C79.7109 66.9804 80.0456 66.6468 80.0462 66.2345Z" fill="black"/>
<path d="M74.3709 49.7134H61.7523C61.2627 49.7134 60.8657 50.1104 60.8657 50.6V51.198C60.8657 51.6876 61.2627 52.0846 61.7523 52.0846H74.3709C74.8605 52.0846 75.2575 51.6876 75.2575 51.198V50.6C75.2575 50.1104 74.8605 49.7134 74.3709 49.7134Z" fill="white"/>
<path d="M74.3689 52.1485H61.7503C61.2266 52.1485 60.7998 51.7217 60.7998 51.198V50.6001C60.7998 50.0763 61.2266 49.6495 61.7503 49.6495H74.3689C74.8926 49.6495 75.3194 50.0763 75.3194 50.6001V51.198C75.3194 51.7217 74.8926 52.1485 74.3689 52.1485ZM61.7524 49.7774C61.2988 49.7774 60.9297 50.1464 60.9297 50.6001V51.198C60.9297 51.6516 61.2988 52.0207 61.7524 52.0207H74.3709C74.8245 52.0207 75.1936 51.6516 75.1936 51.198V50.6001C75.1936 50.1464 74.8245 49.7774 74.3709 49.7774H61.7524Z" fill="black"/>
<path d="M64.437 23.0268L66.7978 27.0846C65.7401 27.5609 64.2844 28.3588 63.8122 28.9959L61.8267 25.3485C61.872 25.0907 63.3648 21.7629 64.437 23.0268Z" fill="white"/>
<path d="M63.8123 29.0598C63.8123 29.0598 63.8102 29.0598 63.8081 29.0598C63.7855 29.0598 63.7669 29.0454 63.7566 29.0268L61.771 25.3794C61.7648 25.367 61.7607 25.3526 61.7648 25.3382C61.7999 25.1444 62.7545 22.965 63.7154 22.7031C64.004 22.6248 64.2638 22.7196 64.4886 22.9856C64.4906 22.9877 64.4927 22.9918 64.4947 22.9959L66.8556 27.0536C66.8638 27.0701 66.8659 27.0887 66.8618 27.1052C66.8576 27.1217 66.8432 27.1361 66.8267 27.1444C65.7483 27.631 64.3257 28.4165 63.8679 29.0351C63.8556 29.0516 63.837 29.0619 63.8164 29.0619L63.8123 29.0598ZM61.8947 25.3402L63.8226 28.8804C64.338 28.2701 65.6659 27.5299 66.705 27.0578L64.3834 23.066C64.1917 22.8433 63.9834 22.765 63.7442 22.8289C62.8782 23.0639 61.9731 25.0619 61.8927 25.3402H61.8947Z" fill="black"/>
<path d="M64.1586 19.0392C63.7833 18.7217 63.4369 18.5897 63.0431 18.6021C62.6493 18.6145 62.2514 18.9526 62.3029 19.3423C61.5483 18.5052 60.307 18.1403 59.2184 18.4372C58.5173 18.6289 57.8431 19.1547 57.7462 19.8763C57.6637 20.4887 58.0225 21.0949 58.5091 21.4743C58.9957 21.8557 59.5957 22.0557 60.1833 22.2475C59.7359 22.332 59.5338 22.8619 59.5813 23.3155C59.6204 23.7073 59.8349 24.1114 60.2184 24.3588C60.9957 24.8598 62.1648 25.0413 63.0699 24.8619C63.8349 24.7093 65.0328 23.7568 65.1627 22.8846C65.3112 21.8867 65.6019 21.3361 65.2163 20.3712C64.9854 19.7918 64.5813 19.3959 64.1606 19.0413L64.1586 19.0392Z" fill="black"/>
<path d="M64.4452 23.4681C64.4452 23.4681 64.439 23.4681 64.437 23.4681C64.4019 23.464 64.3772 23.431 64.3813 23.3959C64.3978 23.2578 64.4762 23.1279 64.5957 23.0351C64.7153 22.9444 64.8617 22.9011 64.9978 22.9196C65.0329 22.9238 65.0576 22.9567 65.0535 22.9918C65.0494 23.0268 65.0164 23.0516 64.9813 23.0475C64.8782 23.033 64.7648 23.066 64.6741 23.1382C64.5813 23.2083 64.5215 23.3093 64.5091 23.4124C64.505 23.4454 64.4782 23.4681 64.4452 23.4681Z" fill="black"/>
<path d="M63.9482 22.7279C64.0142 22.5444 64.0699 22.3567 64.2039 22.2042C64.3998 21.9794 64.7008 21.8578 64.9977 21.9134C65.3482 21.9774 65.639 22.2722 65.7256 22.6186C65.8122 22.965 65.6988 23.3485 65.4596 23.6124C65.2204 23.8784 64.8637 24.0248 64.507 24.0351C64.5008 24.0557 64.4926 24.0763 64.4864 24.0969C64.3524 23.9423 64.2493 23.7588 64.173 23.5691C64.0637 23.299 64.0039 23.0145 63.9482 22.7279Z" fill="white"/>
<path d="M64.4863 24.1629C64.4678 24.1629 64.4492 24.1547 64.4368 24.1402C64.3069 23.9897 64.1977 23.8062 64.1111 23.5938C63.9977 23.3134 63.9358 23.0186 63.8822 22.7402C63.8801 22.7278 63.8822 22.7175 63.8843 22.7052L63.909 22.6351C63.9667 22.4722 64.0265 22.3031 64.1502 22.1608C64.3667 21.9114 64.6946 21.7918 65.0039 21.8474C65.3688 21.9134 65.6904 22.2248 65.7832 22.6C65.8719 22.9608 65.7647 23.3629 65.5028 23.6536C65.2678 23.9134 64.9234 24.0742 64.5502 24.0969L64.5441 24.1155C64.5379 24.1382 64.5193 24.1547 64.4966 24.1588C64.4925 24.1588 64.4884 24.1588 64.4843 24.1588L64.4863 24.1629ZM64.0142 22.734C64.0657 23.0021 64.1255 23.2825 64.2327 23.5464C64.2987 23.7114 64.3812 23.8557 64.474 23.9815C64.4822 23.9753 64.4925 23.9732 64.5049 23.9732C64.8533 23.9629 65.1935 23.8124 65.4121 23.5711C65.6451 23.3134 65.742 22.9547 65.6636 22.6351C65.5832 22.3052 65.3049 22.0351 64.9874 21.9773C64.7214 21.9278 64.441 22.033 64.2533 22.2474C64.1441 22.3732 64.0925 22.5217 64.0348 22.6804L64.0162 22.734H64.0142Z" fill="black"/>
<path d="M60.8617 21.4928C60.9668 21.2083 62.938 21.7815 62.707 22.3877C62.4369 23.099 63.1586 23.2021 63.138 23.2433C62.8039 23.9485 62.9256 25.0619 62.1813 25.3011C61.7565 25.4371 60.5771 24.9341 60.1606 24.7815C60.1689 24.5938 60.1875 24.4062 60.2081 24.2227C60.305 23.3918 60.5751 22.2784 60.8617 21.4928Z" fill="white"/>
<path d="M61.9936 24.7113C62.738 24.4722 62.8039 23.9505 63.138 23.2433C63.1586 23.2021 63.1751 23.1588 63.1936 23.1155C63.2122 23.1464 63.2369 23.1753 63.2679 23.1979C63.4452 23.3299 63.7091 23.1938 63.8246 23.0041C63.8782 22.9175 63.9153 22.8227 63.9483 22.7278C64.0039 23.0144 64.0637 23.299 64.173 23.5691C64.2493 23.7588 64.3545 23.9423 64.4864 24.0969C64.3009 24.6928 64.0266 25.2619 63.6761 25.7794C63.3936 26.1938 63.0555 26.5835 62.6184 26.8268C62.1813 27.0722 61.3916 27.2887 60.9318 27.0907C60.4534 26.8866 60.173 26.6144 60.0411 26.1113C59.9565 25.7876 60.1792 24.6742 60.1957 24.3402C60.74 24.3299 61.5689 24.8474 61.9936 24.7113Z" fill="black"/>
<path d="M64.5318 23.3877C64.5318 23.3877 64.5153 23.3877 64.5071 23.3836C64.4741 23.3712 64.4576 23.332 64.472 23.299C64.5628 23.0722 64.7545 22.8867 64.9834 22.8042C65.0164 22.7918 65.0535 22.8083 65.0659 22.8434C65.0782 22.8764 65.0617 22.9135 65.0267 22.9258C64.8308 22.998 64.6679 23.1547 64.5916 23.3485C64.5813 23.3733 64.5566 23.3898 64.5318 23.3898V23.3877Z" fill="black"/>
<path d="M54.1173 32.3093C53.6699 31.5114 52.7915 30.0619 52.4658 29.4062C52.4658 29.4062 51.3132 29.7567 50.4451 29.7547C49.5771 29.7526 48.7812 29.8557 48.7111 29.5423C48.6389 29.2289 49.2472 28.9691 49.6946 28.9341C49.6946 28.9341 47.3853 28.9877 47.4369 28.2619C47.4905 27.5361 48.4389 27.8475 48.4389 27.8475C48.4389 27.8475 47.3441 27.4557 47.6121 26.9238C47.8802 26.3918 48.6843 26.9031 48.6843 26.9031C48.6843 26.9031 48.0658 26.4825 48.3441 26.1196C48.6245 25.7588 49.8967 26.5732 50.9111 26.1485C50.9111 26.1485 49.5956 25.8145 49.7132 25.3217C49.8307 24.8289 50.7585 25.1114 51.6369 25.2248C52.5152 25.3382 53.742 25.3609 54.9008 26.7732C56.0596 28.1856 56.8245 29.3258 56.8245 29.3258C56.8245 29.3258 55.4884 31.0475 54.1152 32.3093H54.1173Z" fill="white"/>
<path d="M54.1175 32.3753C54.1175 32.3753 54.1113 32.3753 54.1072 32.3753C54.0886 32.3733 54.0701 32.3609 54.0618 32.3423C53.901 32.0537 53.6824 31.6825 53.4536 31.2887C53.0577 30.6104 52.6494 29.9114 52.4329 29.4846C52.1958 29.5526 51.2288 29.8207 50.4556 29.8207C50.4412 29.8207 50.4268 29.8207 50.4103 29.8207C50.2371 29.8207 50.0701 29.8248 49.9072 29.8289C49.2164 29.8454 48.7154 29.8578 48.6474 29.5588C48.6268 29.4702 48.6474 29.3794 48.7113 29.2949C48.8041 29.1691 48.9752 29.066 49.169 28.9918C48.6144 28.965 47.7835 28.8743 47.4886 28.563C47.4041 28.4743 47.3649 28.3712 47.3731 28.2599C47.3876 28.064 47.4639 27.9176 47.6 27.8269C47.7195 27.7465 47.8721 27.7197 48.0123 27.7197C47.8185 27.6063 47.6144 27.4495 47.5381 27.2578C47.4907 27.1382 47.4948 27.0166 47.5546 26.899C47.6206 26.7671 47.7237 26.6805 47.8597 26.6413C48.0185 26.598 48.1979 26.6289 48.3525 26.6805C48.2865 26.5959 48.2309 26.4949 48.2144 26.3898C48.1958 26.2784 48.2247 26.1753 48.2948 26.0825C48.4453 25.8887 48.7855 25.965 49.2164 26.064C49.6618 26.165 50.202 26.2867 50.6969 26.1568C50.3113 26.0372 49.5484 25.7403 49.6515 25.3093C49.7587 24.8557 50.3896 24.9609 51.1195 25.0825C51.2927 25.1114 51.4701 25.1403 51.6453 25.163C51.7195 25.1733 51.7979 25.1815 51.8783 25.1918C52.7216 25.2908 53.8742 25.4248 54.9505 26.7341C56.0989 28.132 56.8701 29.2805 56.8783 29.2908C56.8948 29.3135 56.8927 29.3444 56.8762 29.3671C56.8639 29.3836 55.5216 31.1073 54.1608 32.3568C54.1484 32.3671 54.134 32.3733 54.1175 32.3733V32.3753ZM52.4659 29.3423C52.4907 29.3423 52.5134 29.3547 52.5237 29.3774C52.7299 29.7939 53.1546 30.5197 53.5628 31.2207C53.7752 31.5836 53.9752 31.9279 54.1319 32.2042C55.3546 31.0681 56.5463 29.5733 56.7443 29.3217C56.6 29.1114 55.8762 28.0619 54.8494 26.8124C53.8061 25.5423 52.7278 25.4166 51.8618 25.3155C51.7814 25.3052 51.703 25.297 51.6268 25.2867C51.4494 25.264 51.2701 25.2331 51.0969 25.2042C50.4309 25.0928 49.8556 24.998 49.7752 25.332C49.6907 25.6867 50.5773 25.9939 50.9278 26.0825C50.9546 26.0887 50.9731 26.1135 50.9752 26.1403C50.9773 26.1671 50.9608 26.1939 50.936 26.2042C50.3546 26.4475 49.7072 26.3011 49.1855 26.1836C48.8144 26.099 48.4927 26.0269 48.3938 26.1568C48.3443 26.2207 48.3257 26.2887 48.3381 26.365C48.3773 26.6124 48.7154 26.8454 48.7195 26.8475C48.7484 26.8681 48.7567 26.9073 48.7381 26.9361C48.7195 26.965 48.6804 26.9733 48.6494 26.9547C48.6453 26.9526 48.202 26.6743 47.8927 26.7609C47.7938 26.7877 47.7195 26.8516 47.6701 26.9506C47.6268 27.0351 47.6226 27.1176 47.6577 27.2042C47.7938 27.5423 48.4536 27.7836 48.4618 27.7856C48.4948 27.798 48.5134 27.8331 48.501 27.866C48.4886 27.899 48.4536 27.9176 48.4206 27.9073C48.4164 27.9073 47.936 27.7526 47.6742 27.93C47.5711 28.0001 47.5154 28.1093 47.503 28.266C47.4969 28.3423 47.5237 28.4104 47.5835 28.4722C47.9938 28.9032 49.6762 28.8702 49.6948 28.8702C49.7299 28.8702 49.7587 28.897 49.7608 28.932C49.7608 28.9671 49.736 28.9959 49.701 29.0001C49.3876 29.0248 48.9608 29.1733 48.8164 29.3712C48.7752 29.4269 48.7628 29.4784 48.7752 29.53C48.8206 29.7238 49.3463 29.7114 49.9072 29.699C50.0824 29.6949 50.2639 29.6908 50.4474 29.6908H50.4577C51.3051 29.6908 52.4371 29.3485 52.4494 29.3444C52.4556 29.3444 52.4618 29.3423 52.468 29.3423H52.4659Z" fill="black"/>
<path d="M49.7545 28.9609C49.7215 28.9609 49.6926 28.9341 49.6905 28.9011C49.6885 28.8661 49.7153 28.8351 49.7503 28.8331L50.4349 28.7877C50.472 28.7877 50.5009 28.8125 50.5029 28.8475C50.505 28.8826 50.4782 28.9135 50.4431 28.9156L49.7586 28.9609C49.7586 28.9609 49.7565 28.9609 49.7545 28.9609Z" fill="black"/>
<path d="M49.3091 27.9527C49.0555 27.9527 48.8019 27.9382 48.5483 27.9094C48.5133 27.9052 48.4885 27.8743 48.4926 27.8372C48.4968 27.8001 48.5277 27.7753 48.5648 27.7815C49.1524 27.8496 49.7462 27.8372 50.3298 27.7444C50.3648 27.7382 50.3978 27.763 50.404 27.798C50.4102 27.8331 50.3854 27.8661 50.3504 27.8723C50.006 27.9259 49.6596 27.9527 49.3112 27.9527H49.3091Z" fill="black"/>
<path d="M49.5114 27.0867C49.266 27.0867 49.0227 27.064 48.7835 27.0207C48.7485 27.0145 48.7258 26.9815 48.732 26.9465C48.7382 26.9114 48.7711 26.8887 48.8062 26.8949C49.334 26.9918 49.8887 26.9774 50.4103 26.8537C50.4454 26.8454 50.4804 26.8661 50.4887 26.9011C50.4969 26.9362 50.4763 26.9712 50.4412 26.9795C50.1382 27.0516 49.8248 27.0867 49.5114 27.0867Z" fill="black"/>
<path d="M51.9999 27.5382C51.9813 27.5382 51.9607 27.53 51.9483 27.5135C51.7999 27.3217 51.7174 27.0949 51.637 26.8722C51.6246 26.8413 51.6143 26.8083 51.6019 26.7774C51.4844 26.4599 51.1669 26.2537 50.9277 26.2207C50.8927 26.2166 50.8679 26.1836 50.872 26.1485C50.8762 26.1135 50.9091 26.0887 50.9442 26.0929C51.2267 26.132 51.5834 26.365 51.7215 26.7341C51.7339 26.765 51.7442 26.798 51.7566 26.8289C51.8329 27.0413 51.9133 27.2599 52.0494 27.4351C52.072 27.464 52.0658 27.5032 52.037 27.5258C52.0246 27.5341 52.0122 27.5403 51.9978 27.5403L51.9999 27.5382Z" fill="black"/>
<path d="M52.602 29.4248C52.571 29.4248 52.5442 29.4021 52.5381 29.3712C52.5319 29.3361 52.5566 29.3031 52.5917 29.297C52.7855 29.264 52.9834 29.264 53.1772 29.297C53.2123 29.3031 53.237 29.3361 53.2308 29.3712C53.2247 29.4062 53.1917 29.431 53.1566 29.4248C52.9772 29.3959 52.7937 29.3959 52.6123 29.4248C52.6082 29.4248 52.604 29.4248 52.602 29.4248Z" fill="black"/>
<path d="M70.7153 34.9094L61.4472 35.2558L56.474 28.5609L52.4019 31.7259L57.1462 39.5692C58.2163 41.0104 59.9235 41.8351 61.7153 41.7795L72.2555 41.4537L70.7111 34.9073L70.7153 34.9094Z" fill="#6E00BE"/>
<path d="M61.4429 45.0496L60.8656 42.6269L59.3398 42.6104L58.3027 35.464C58.3027 35.464 63.7955 25.7052 66.0471 26.3918C71.3048 27.996 74.2223 46.0104 74.2223 46.0104C74.2223 46.0104 65.6285 46.0104 62.6574 46.0104C62.0801 46.0104 61.577 45.6125 61.4429 45.0496Z" fill="#6E00BE"/>
<path d="M61.4123 36.5588L63.2329 31.2743L68.5669 32.9588L67.0288 38.2207C66.4989 40.0331 64.8391 41.2784 62.9505 41.2805C60.4391 41.2805 57.1236 41.132 55.6432 41.13C55.3731 39.3361 54.5484 37.6908 54.0659 36.7547C57.7731 36.7011 61.4123 36.5609 61.4123 36.5609V36.5588Z" fill="#6E00BE"/>
<path d="M55.5092 36.7856C55.4742 36.7856 55.4453 36.7588 55.4453 36.7238C55.4453 36.6887 55.4721 36.6578 55.5072 36.6578L61.3237 36.464L63.1711 31.2537C63.1835 31.2207 63.2206 31.2021 63.2536 31.2145C63.2865 31.2269 63.3051 31.264 63.2927 31.297L61.4309 36.5485C61.4226 36.5733 61.3979 36.5897 61.3731 36.5918L55.5113 36.7877C55.5113 36.7877 55.5113 36.7877 55.5092 36.7877V36.7856Z" fill="black"/>
<path d="M62.8925 41.3444C61.4657 41.3444 59.8018 41.2804 58.3337 41.2227C57.2286 41.1794 56.2719 41.1423 55.643 41.1423C55.608 41.1423 55.5791 41.1134 55.5791 41.0784C55.5791 41.0433 55.608 41.0145 55.643 41.0145C56.276 41.0145 57.2327 41.0516 58.3399 41.0949C59.8059 41.1505 61.4678 41.2145 62.8925 41.2145H62.9028C64.777 41.2145 66.4554 39.9567 66.9812 38.1547L68.5049 32.9402C68.5152 32.9052 68.5502 32.8866 68.5853 32.8969C68.6203 32.9072 68.6389 32.9423 68.6286 32.9774L67.1049 38.1938C66.5626 40.0495 64.8348 41.3444 62.9028 41.3464H62.8925V41.3444Z" fill="black"/>
<path d="M61.371 36.5918C61.336 36.5918 61.3071 36.5629 61.3071 36.5279C61.3071 36.4928 61.336 36.464 61.371 36.464C61.4865 36.464 62.5917 36.4207 62.602 36.4207C62.635 36.4207 62.668 36.4475 62.668 36.4825C62.668 36.5176 62.6412 36.5485 62.6061 36.5485C62.5607 36.5485 61.4886 36.5918 61.369 36.5918H61.371Z" fill="black"/>
<path d="M52.5895 39.7299L45.0081 33.5815L44.5215 31.6578L52.1071 37.798L52.5895 39.7299Z" fill="black"/>
<path d="M48.705 36.9506C48.9153 36.866 51.4514 36.831 54.1318 36.7526C54.7709 38.1526 55.3833 39.7134 55.6452 41.1279C53.6142 41.0351 51.0122 41.0083 50.7524 40.9691C50.2513 40.8928 49.9235 40.132 49.9235 40.132C48.9359 39.9299 49.3132 39.1588 49.3132 39.1588C48.6658 38.8083 49.2452 38.1031 49.2452 38.1031C48.3648 37.8475 48.2678 37.1279 48.707 36.9506H48.705Z" fill="white"/>
<path d="M55.6824 41.1444C53.5896 41.1444 51 41.0743 50.7402 41.0351C50.2639 40.9629 49.9463 40.3403 49.8762 40.1898C49.5546 40.1176 49.3402 39.9774 49.2391 39.7712C49.1257 39.5403 49.1896 39.2949 49.2288 39.1877C49.0742 39.0908 48.9793 38.9629 48.9484 38.8062C48.8969 38.5382 49.0494 38.266 49.136 38.1382C48.602 37.9547 48.3958 37.6062 48.3835 37.3547C48.3732 37.1465 48.4866 36.9691 48.6783 36.8908C48.835 36.8269 50.0164 36.7939 52.0907 36.7423C52.734 36.7258 53.4247 36.7093 54.1257 36.6887C54.1608 36.6887 54.1917 36.7155 54.1917 36.7506C54.1917 36.7856 54.1649 36.8166 54.1299 36.8166C53.4288 36.8372 52.736 36.8537 52.0927 36.8702C50.3628 36.9135 48.8701 36.9506 48.7257 37.0083C48.5835 37.066 48.5051 37.1918 48.5113 37.3465C48.5216 37.5691 48.7237 37.8846 49.2577 38.0392C49.2783 38.0454 49.2948 38.0619 49.301 38.0825C49.3072 38.1032 49.301 38.1258 49.2886 38.1423C49.2866 38.1465 49.0144 38.4825 49.0742 38.7815C49.101 38.9135 49.1896 39.0207 49.3381 39.1032C49.369 39.1196 49.3793 39.1568 49.3649 39.1877C49.3649 39.1898 49.2309 39.4702 49.3525 39.7135C49.4391 39.8887 49.6329 40.0083 49.9319 40.0681C49.9525 40.0722 49.969 40.0867 49.9773 40.1052C49.9814 40.1135 50.2969 40.8331 50.7567 40.9032C51.0123 40.9423 53.5917 41.0124 55.6783 41.0124C55.7134 41.0124 55.7422 41.0413 55.7422 41.0763C55.7422 41.1114 55.7134 41.1403 55.6783 41.1403L55.6824 41.1444Z" fill="black"/>
<path d="M32.1939 41.064H21.5815C21.5815 40.5073 22.0331 40.0558 22.5877 40.0558H33.2001C33.2001 40.6125 32.7486 41.064 32.1939 41.064Z" fill="black"/>
<path d="M32 40.4722L36.8701 29.9094C37.3753 30.1424 37.5959 30.7424 37.3629 31.2475L33.1093 40.4722H32Z" fill="black"/>
<path d="M26.7671 23.2557C26.1816 22.4681 25.1362 22.4908 24.2599 22.6413C23.2372 22.8166 22.2702 23.2063 21.262 23.4351C20.7836 23.5444 20.297 23.6104 19.8063 23.6042C19.363 23.598 18.9218 23.53 18.4908 23.4269C17.6104 23.2145 16.7774 22.8475 15.9568 22.4722C15.1321 22.097 14.3073 21.7073 13.4414 21.431C12.528 21.1403 11.5836 21.0124 10.629 21.1135C8.68054 21.3217 6.71147 22.3671 5.64961 24.0454C4.62899 25.6578 4.46817 27.6929 5.21868 29.4454C5.58569 30.299 6.15064 31.0557 6.86198 31.6516C7.63518 32.299 8.55476 32.7671 9.48878 33.1341C11.363 33.8702 13.4104 34.1506 15.4146 33.963C17.3032 33.7856 19.1321 33.1836 20.7568 32.2021C22.295 31.2743 23.6393 30.0269 24.6702 28.5547C24.8867 28.2475 25.0867 27.93 25.2744 27.6042C25.9898 27.0083 26.7177 26.3114 27.0269 25.4124C27.2682 24.7155 27.2125 23.8578 26.763 23.2537L26.7671 23.2557Z" fill="black"/>
<path d="M19.5236 29.7011L21.136 27.6413C21.2494 27.497 22.1133 27.1939 22.2474 27.3176L23.0618 28.9588C23.1772 29.066 23.1958 29.2413 23.1051 29.3712L21.9195 31.064C21.7175 31.3526 21.3731 31.5052 21.0247 31.4619C20.5814 31.4062 19.9814 31.1877 19.4968 30.4867C19.3298 30.2475 19.3443 29.9258 19.5236 29.697V29.7011Z" fill="white"/>
<path d="M19.336 29.9733C19.3215 29.9733 19.3071 29.9691 19.2947 29.9588C19.2679 29.9361 19.2617 29.897 19.2844 29.8681L21.237 27.4454C21.2597 27.4186 21.2989 27.4124 21.3277 27.4351C21.3545 27.4578 21.3607 27.497 21.338 27.5258L19.3855 29.9485C19.3731 29.965 19.3545 29.9733 19.336 29.9733Z" fill="black"/>
<path d="M21.7585 31.3402C21.7461 31.3402 21.7317 31.3361 21.7214 31.3279C21.6925 31.3073 21.6863 31.266 21.707 31.2372L23.2266 29.1444C23.2472 29.1155 23.2884 29.1093 23.3173 29.1299C23.3461 29.1506 23.3523 29.1918 23.3317 29.2207L21.8121 31.3134C21.7997 31.3299 21.7791 31.3402 21.7606 31.3402H21.7585Z" fill="black"/>
<path d="M22.132 26.6372C22.132 26.6372 22.0577 26.2949 21.7196 26.2805C21.3876 26.266 21.0845 26.5629 21.0392 26.8928C20.9938 27.2227 21.1918 27.565 21.4907 27.7114C21.6598 27.7939 21.8247 27.8537 22.0371 27.798C22.165 28.2001 22.3773 28.5815 22.6887 28.866C23 29.1506 23.4144 29.332 23.8371 29.3196C24.5423 29.297 25.1402 28.7361 25.4186 28.0887C25.6969 27.4413 25.7196 26.7155 25.732 26.0083C25.732 26.0083 24.7196 26.7918 23.2887 25.7815C23.0639 26.4454 22.7072 26.7959 22.132 26.6372Z" fill="white"/>
<path d="M23.7897 29.3836C23.3856 29.3836 22.9691 29.2145 22.6413 28.9135C22.3588 28.6537 22.1341 28.2949 21.9897 27.8743C21.7753 27.9135 21.6042 27.8413 21.4578 27.7712C21.1279 27.6083 20.9217 27.2372 20.9712 26.8867C21.0227 26.5093 21.365 26.2021 21.7196 26.2186C21.998 26.231 22.1361 26.4475 22.1815 26.5877C22.6619 26.7052 22.9939 26.4413 23.2248 25.763C23.231 25.7444 23.2475 25.7279 23.266 25.7217C23.2846 25.7155 23.3073 25.7197 23.3238 25.73C24.699 26.7011 25.6805 25.965 25.6908 25.9568C25.7114 25.9423 25.7361 25.9382 25.7588 25.9506C25.7815 25.9609 25.7939 25.9836 25.7939 26.0083C25.7835 26.6413 25.7691 27.4289 25.4743 28.1135C25.1506 28.864 24.5073 29.363 23.8351 29.3836C23.8207 29.3836 23.8042 29.3836 23.7897 29.3836ZM22.0351 27.7341C22.0619 27.7341 22.0887 27.7526 22.0969 27.7794C22.231 28.2042 22.4516 28.563 22.7299 28.8186C23.0454 29.1073 23.4495 29.266 23.833 29.2557C24.5423 29.2331 25.1093 28.6413 25.3588 28.0619C25.6248 27.4434 25.6536 26.7238 25.666 26.1258C25.3691 26.2929 24.4763 26.6578 23.3217 25.8825C23.066 26.5753 22.6598 26.8516 22.1155 26.7011C22.0928 26.6949 22.0743 26.6764 22.0701 26.6537C22.0681 26.6413 22 26.3588 21.7176 26.3465C21.431 26.3341 21.1464 26.5939 21.1031 26.9032C21.0619 27.2001 21.2372 27.5176 21.5196 27.6557C21.6949 27.7423 21.8392 27.7856 22.0207 27.7382C22.0268 27.7382 22.031 27.7361 22.0372 27.7361L22.0351 27.7341Z" fill="black"/>
<path d="M21.9569 27.4063C21.9301 27.4063 21.9054 27.3898 21.8951 27.363C21.8353 27.1898 21.7095 27.0372 21.5487 26.9465C21.5177 26.93 21.5074 26.8908 21.5239 26.8599C21.5404 26.8289 21.5796 26.8186 21.6105 26.8351C21.7981 26.9403 21.9466 27.1176 22.0167 27.3217C22.0291 27.3547 22.0105 27.3918 21.9775 27.4042C21.9713 27.4063 21.9631 27.4083 21.9569 27.4083V27.4063Z" fill="black"/>
<path d="M25.6906 26.1011C25.6679 26.1011 25.6432 26.0887 25.6329 26.066C25.6164 26.0351 25.6308 25.9959 25.6617 25.9794C25.8535 25.8846 26.0184 25.7403 26.1401 25.565C26.1607 25.5361 26.1999 25.5279 26.2288 25.5485C26.2576 25.5691 26.2659 25.6083 26.2452 25.6372C26.1112 25.831 25.9298 25.9897 25.7195 26.0928C25.7112 26.097 25.7009 26.099 25.6906 26.099V26.1011Z" fill="black"/>
<path d="M19.7939 55.6352L14.6104 64.9506C14.1032 65.864 14.763 66.9877 15.8084 66.9877H30.662C30.9836 66.9877 31.1321 66.5877 30.8867 66.3774L26.6908 62.7815L31.0104 55.0908L19.796 55.6372L19.7939 55.6352Z" fill="white"/>
<path d="M30.6621 67.0496H15.8085C15.2951 67.0496 14.8332 66.7857 14.5714 66.3424C14.3116 65.8991 14.3054 65.3671 14.5549 64.9176L19.7384 55.6021C19.7487 55.5836 19.7693 55.5712 19.792 55.5692L31.0064 55.0228C31.0312 55.0228 31.0518 55.0331 31.0642 55.0537C31.0765 55.0743 31.0765 55.0991 31.0642 55.1197L26.7714 62.765L30.9281 66.3259C31.0601 66.4393 31.1075 66.6186 31.0456 66.7815C30.9858 66.9444 30.8332 67.0496 30.6601 67.0496H30.6621ZM19.8332 55.697L14.6662 64.9795C14.4394 65.3877 14.4436 65.8723 14.6807 66.2764C14.9178 66.6805 15.3384 66.9197 15.8064 66.9197H30.6601C30.8044 66.9197 30.893 66.8248 30.924 66.7362C30.957 66.6475 30.9528 66.5176 30.8436 66.4228L26.6477 62.8269C26.625 62.8063 26.6188 62.7733 26.6332 62.7465L30.8951 55.1568L19.8332 55.6949V55.697Z" fill="black"/>
<path d="M19.6417 63.7093C18.1695 63.7093 16.8479 63.5671 15.6293 63.2784C15.5943 63.2702 15.5736 63.2351 15.5819 63.2001C15.5901 63.165 15.6252 63.1444 15.6602 63.1526C17.1984 63.5176 18.9056 63.6475 20.8767 63.5485C22.6293 63.4619 24.3943 63.2042 26.1035 62.9568C26.1386 62.9506 26.1716 62.9753 26.1757 63.0104C26.1819 63.0454 26.1571 63.0784 26.1221 63.0825C24.4108 63.33 22.6417 63.5877 20.8829 63.6743C20.4582 63.6949 20.0437 63.7052 19.6417 63.7052V63.7093Z" fill="black"/>
<path d="M27.3052 54.3445L33.1691 65.495C33.6516 66.4104 34.6 66.9836 35.6351 66.9836H46.4825C46.7856 66.9836 46.9217 66.6022 46.6866 66.4104L42.1031 62.6682L38.7485 55.8393L27.3052 54.3403V54.3445Z" fill="white"/>
<path d="M46.4826 67.0496H35.6351C34.5733 67.0496 33.6063 66.4661 33.1114 65.5259L27.2475 54.3754C27.2372 54.3547 27.2372 54.3279 27.2516 54.3094C27.2661 54.2888 27.2888 54.2784 27.3135 54.2826L38.7568 55.7815C38.7774 55.7836 38.796 55.798 38.8063 55.8166L42.1547 62.6331L46.7279 66.3671C46.8558 66.4723 46.9032 66.6413 46.8475 66.796C46.7918 66.9527 46.6496 67.0537 46.4826 67.0537V67.0496ZM27.4207 54.4248L33.2269 65.4661C33.6991 66.363 34.6228 66.9217 35.6351 66.9217H46.4826C46.6166 66.9217 46.697 66.8331 46.7259 66.7506C46.7547 66.6681 46.7506 66.5486 46.6455 66.464L42.0619 62.7217C42.0619 62.7217 42.0496 62.7094 42.0455 62.7011L38.7052 55.9032L27.4186 54.4248H27.4207Z" fill="black"/>
<path d="M35.7136 63.6393C34.4868 63.6393 33.2579 63.5754 32.0352 63.4455C32.0002 63.4413 31.9733 63.4104 31.9775 63.3754C31.9816 63.3403 32.0125 63.3135 32.0476 63.3176C35.3115 63.662 38.6043 63.5444 41.8352 62.9712C41.8703 62.965 41.9032 62.9877 41.9094 63.0228C41.9156 63.0578 41.8929 63.0908 41.8579 63.097C39.827 63.4578 37.7713 63.6393 35.7136 63.6393Z" fill="black"/>
<path d="M17.9423 57.5588C17.9423 57.5588 28.5815 60.7341 39.3032 56.1362C39.3032 56.1362 36.5238 50.932 34.2124 47.0681C32.7733 44.6619 30.1753 43.1918 27.3712 43.1918H9.46192L8.25986 45.5382C6.91759 48.1568 8.631 51.3052 11.5588 51.6021C15.2908 51.9795 18.666 52.2021 21.332 52.1176L17.9423 57.5609V57.5588Z" fill="#F500A3"/>
<path d="M29.1529 58.2537C29.1529 58.2537 29.1322 58.2516 29.124 58.2475C29.0931 58.231 29.0807 58.1918 29.0972 58.1609C30.0931 56.231 30.8807 54.1877 31.4353 52.0867C31.8271 50.6063 32.1838 48.6991 31.4683 47.0764C30.99 45.9918 30.0395 45.0393 28.5632 44.1588C28.5322 44.1403 28.5219 44.1011 28.5405 44.0702C28.559 44.0393 28.5982 44.029 28.6292 44.0475C30.1302 44.9403 31.0972 45.9135 31.5859 47.0228C32.3178 48.6826 31.957 50.6166 31.5611 52.1176C31.0044 54.2269 30.2127 56.2805 29.2127 58.2186C29.2003 58.2413 29.1797 58.2537 29.1549 58.2537H29.1529Z" fill="black"/>
<path d="M21.4209 52.1465C21.3858 52.1465 21.3569 52.1196 21.3569 52.0846C21.3569 52.0495 21.3837 52.0186 21.4188 52.0186L23.6477 51.9526C23.6827 51.9526 23.7116 51.9794 23.7116 52.0145C23.7116 52.0495 23.6848 52.0805 23.6497 52.0805L21.4209 52.1465Z" fill="black"/>
<path d="M9.46191 43.1919H18.5856L19.9568 40.462C19.9568 40.462 21.7547 42.3135 24.0475 41.9981C26.3403 41.6826 28.8495 39.7053 31.0083 39.7238C31.0083 39.7238 31.633 39.8558 31.9691 40.3754C32.3073 40.8929 32.8001 40.8166 32.8846 40.4867C32.9691 40.1568 32.4145 39.2207 32.4145 39.2207C32.4145 39.2207 32.7052 39.6455 33.1011 40.3589C33.4083 40.9094 33.7444 40.3218 33.7444 40.3218C33.7444 40.3218 34.264 39.9795 34.1155 39.1465C34.1155 39.1465 34.3093 38.8888 34.2104 38.5321C34.1114 38.1754 33.0908 36.2022 30.2681 36.5692C28.4186 36.8104 26.6434 37.2537 25.6351 37.53C25.0846 37.6826 24.499 37.4661 24.1794 36.9919C23.9114 36.5939 23.6166 36.0764 23.4248 35.5032C22.9114 33.9609 22.2722 30.1713 20.099 30.1692C18.4619 30.1692 17.0145 30.6001 13.1691 36.5713C10.5114 40.695 9.46398 43.1981 9.46398 43.1981L9.46191 43.1919Z" fill="white"/>
<path d="M9.46213 43.2558C9.46213 43.2558 9.44564 43.2558 9.43739 43.2516C9.4044 43.2372 9.38997 43.2001 9.40234 43.1671C9.41265 43.1424 10.4828 40.6104 13.1137 36.53C16.9549 30.5692 18.4312 30.0991 20.0889 30.0991H20.0972C21.9652 30.0991 22.7199 32.7939 23.2188 34.5753C23.3178 34.9259 23.4023 35.2269 23.4848 35.4764C23.6436 35.9547 23.8951 36.4516 24.2312 36.9506C24.5343 37.4022 25.091 37.6083 25.6168 37.464C26.5384 37.2104 28.3673 36.7465 30.258 36.5011C31.7714 36.3052 32.7467 36.7857 33.2992 37.2248C33.9446 37.7362 34.223 38.3403 34.2704 38.5114C34.359 38.8351 34.2291 39.0826 34.1817 39.1589C34.3096 39.9424 33.8745 40.3032 33.79 40.365C33.7529 40.4248 33.5962 40.6578 33.39 40.6578C33.2601 40.6578 33.1446 40.5671 33.0456 40.3898C33.0023 40.3114 32.9611 40.2372 32.9199 40.1671C32.9549 40.2991 32.9714 40.4166 32.9487 40.5032C32.9075 40.664 32.7776 40.7795 32.6126 40.8083C32.3652 40.8475 32.1054 40.7011 31.9178 40.4125C31.6168 39.9506 31.0663 39.8063 31.0023 39.7918C30.9941 39.7918 30.9858 39.7918 30.9797 39.7918C29.8353 39.7918 28.557 40.3692 27.3199 40.9279C26.2395 41.4166 25.1219 41.9197 24.058 42.0661C22.0023 42.3506 20.3199 40.897 19.9755 40.5753L18.6436 43.2269C18.6271 43.2578 18.59 43.2723 18.557 43.2558C18.5261 43.2393 18.5116 43.2022 18.5281 43.1692L19.8992 40.4393C19.9096 40.4207 19.9261 40.4083 19.9467 40.4042C19.9673 40.4001 19.9879 40.4083 20.0023 40.4228C20.0209 40.4413 21.8065 42.2455 24.0395 41.9382C25.0848 41.7939 26.192 41.2929 27.2642 40.8104C28.5137 40.2475 29.8044 39.664 30.9776 39.664C30.9879 39.664 30.9982 39.664 31.0085 39.664C31.0126 39.664 31.0168 39.664 31.0209 39.664C31.0477 39.6702 31.6745 39.8083 32.023 40.3424C32.2106 40.631 32.4374 40.7073 32.59 40.6826C32.7075 40.664 32.7941 40.5857 32.823 40.4723C32.8869 40.2228 32.5096 39.5094 32.359 39.2558C32.3405 39.2269 32.3508 39.1877 32.3797 39.1692C32.4085 39.1506 32.4477 39.1589 32.4683 39.1877C32.4704 39.1918 32.7652 39.6228 33.157 40.33C33.2312 40.464 33.3096 40.532 33.39 40.532C33.5199 40.532 33.6477 40.3589 33.6869 40.2908C33.691 40.2826 33.6992 40.2743 33.7075 40.2681C33.7281 40.2558 34.19 39.9362 34.0518 39.1568C34.0477 39.1403 34.0518 39.1217 34.0642 39.1073C34.0704 39.097 34.2374 38.8681 34.1487 38.5485C34.0209 38.0846 32.9322 36.2867 30.2766 36.6331C28.3941 36.8784 26.5714 37.3403 25.6539 37.5939C25.0766 37.7527 24.4621 37.5259 24.1281 37.029C23.7858 36.5197 23.5281 36.0145 23.3652 35.5238C23.2807 35.2723 23.1962 34.9671 23.0972 34.6166C22.6085 32.8723 21.8704 30.2351 20.0992 30.2331H20.091C18.4724 30.2331 17.0291 30.697 13.223 36.6042C10.5982 40.6764 9.53224 43.196 9.52193 43.2207C9.51162 43.2455 9.48687 43.2599 9.46213 43.2599V43.2558Z" fill="black"/>
<path d="M33.763 40.3465C33.763 40.3465 33.761 40.3465 33.7589 40.3465C33.7238 40.3465 33.697 40.3156 33.697 40.2785C33.7238 39.7114 33.5073 39.1259 33.1177 38.7135C33.0929 38.6867 33.095 38.6475 33.1197 38.6228C33.1465 38.598 33.1857 38.6001 33.2104 38.6248C33.6249 39.062 33.8558 39.6826 33.8269 40.2846C33.8269 40.3197 33.796 40.3465 33.763 40.3465Z" fill="black"/>
<path d="M34.12 39.2392C34.0932 39.2392 34.0685 39.2228 34.0582 39.196C33.9118 38.7527 33.652 38.3506 33.3097 38.0331C33.2829 38.0083 33.2829 37.9691 33.3056 37.9423C33.3303 37.9155 33.3695 37.9155 33.3963 37.9382C33.7551 38.2702 34.0252 38.6908 34.1798 39.1547C34.1901 39.1877 34.1736 39.2248 34.1386 39.2351C34.1324 39.2372 34.1241 39.2392 34.118 39.2392H34.12Z" fill="black"/>
<path d="M28.7588 40.2847C28.73 40.2847 28.7032 40.264 28.697 40.2331L27.9939 36.9651C27.9856 36.93 28.0083 36.897 28.0434 36.8888C28.0784 36.8805 28.1135 36.9032 28.1197 36.9383L28.8227 40.2063C28.831 40.2414 28.8083 40.2743 28.7733 40.2826C28.7691 40.2826 28.765 40.2826 28.7588 40.2826V40.2847Z" fill="black"/>
<path d="M19.7321 40.3898C19.7136 40.3898 19.695 40.3816 19.6826 40.3671C18.3074 38.7589 17.3733 36.8084 16.9795 34.728C16.9733 34.6929 16.996 34.6599 17.0311 34.6537C17.0661 34.6475 17.0991 34.6702 17.1053 34.7053C17.495 36.763 18.4187 38.6929 19.7795 40.2847C19.8022 40.3115 19.8002 40.3527 19.7733 40.3754C19.761 40.3857 19.7465 40.3919 19.7321 40.3919V40.3898Z" fill="black"/>
<path d="M18.2536 57.6516C18.2288 57.6516 18.2061 57.6372 18.1958 57.6145L15.7649 52.3341C15.7505 52.3011 15.7649 52.264 15.7958 52.2496C15.8288 52.2351 15.8659 52.2496 15.8804 52.2805L18.3113 57.5609C18.3257 57.5939 18.3113 57.631 18.2804 57.6455C18.2721 57.6496 18.2618 57.6516 18.2536 57.6516Z" fill="black"/>
<path d="M1.04945 65.4723C1.04945 65.4723 1.03089 65.4723 1.02264 65.4661C0.989655 65.4517 0.975222 65.4125 0.991717 65.3815L7.02058 52.2805C7.03502 52.2475 7.07419 52.2331 7.10512 52.2496C7.13811 52.264 7.15254 52.3032 7.13605 52.3341L1.10718 65.4352C1.09687 65.4578 1.07213 65.4723 1.04945 65.4723Z" fill="black"/>
<path d="M1.42268 66.33C1.42268 66.7238 1.10515 67.0413 0.71134 67.0413C0.317526 67.0413 0 66.7238 0 66.33C0 65.9362 0.317526 65.6187 0.71134 65.6187C1.10515 65.6187 1.42268 65.9362 1.42268 66.33Z" fill="black"/>
<path d="M5.27848 52.8228H17.6207C18.0079 52.8228 18.3218 52.5089 18.3218 52.1217V51.2619C18.3218 50.8748 18.0079 50.5609 17.6207 50.5609H5.27848C4.89131 50.5609 4.57745 50.8748 4.57745 51.2619V52.1217C4.57745 52.5089 4.89131 52.8228 5.27848 52.8228Z" fill="white"/>
<path d="M17.6204 52.8867H5.28019C4.85751 52.8867 4.51318 52.5424 4.51318 52.1197V51.2619C4.51318 50.8393 4.85751 50.4949 5.28019 50.4949H9.19153C9.22659 50.4949 9.25545 50.5238 9.25545 50.5589C9.25545 50.5939 9.22659 50.6228 9.19153 50.6228H5.28019C4.92968 50.6228 4.64308 50.9094 4.64308 51.2599V52.1176C4.64308 52.4681 4.92968 52.7547 5.28019 52.7547H17.6204C17.9709 52.7547 18.2575 52.4681 18.2575 52.1176C18.2575 52.0826 18.2864 52.0537 18.3214 52.0537C18.3565 52.0537 18.3853 52.0826 18.3853 52.1176C18.3853 52.5403 18.041 52.8846 17.6183 52.8846L17.6204 52.8867Z" fill="black"/>
<path d="M60.8662 41.064H19.6455L18.895 42.5918H60.8662V41.064Z" fill="white"/>
<path d="M60.8662 42.6557H18.895C18.8723 42.6557 18.8517 42.6433 18.8414 42.6248C18.829 42.6062 18.829 42.5815 18.8373 42.5629L19.5878 41.033C19.5981 41.0104 19.6208 40.998 19.6455 40.998H60.8641C60.8991 40.998 60.928 41.0269 60.928 41.0619V42.5918C60.928 42.6269 60.8991 42.6557 60.8641 42.6557H60.8662ZM18.9981 42.5279H60.8002V41.1279H19.6868L18.9981 42.5279Z" fill="black"/>
<path d="M28.8042 28.932L30.1506 26.4804C29.9836 26.1505 29.8908 25.7856 29.8908 25.398C29.8908 23.967 31.165 22.8062 32.7382 22.8062H37.8063C39.3774 22.8062 40.6537 23.967 40.6537 25.398C40.6537 26.8289 39.3795 27.9897 37.8063 27.9897H32.7382C32.3094 27.9897 31.9032 27.9031 31.5382 27.7485L28.8042 28.932Z" fill="white"/>
<path d="M28.8041 28.9959C28.7855 28.9959 28.769 28.9877 28.7567 28.9753C28.7381 28.9547 28.734 28.9258 28.7484 28.9011L30.0783 26.4784C29.9113 26.1361 29.8268 25.7732 29.8268 25.398C29.8268 23.9341 31.1319 22.7423 32.7381 22.7423H37.8062C39.4103 22.7423 40.7175 23.9341 40.7175 25.398C40.7175 26.8619 39.4123 28.0536 37.8062 28.0536H32.7381C32.3216 28.0536 31.9175 27.9753 31.5381 27.8186L28.8288 28.9918C28.8288 28.9918 28.8123 28.998 28.8041 28.998V28.9959ZM32.7381 22.8722C31.2041 22.8722 29.9567 24.0062 29.9567 25.4C29.9567 25.7671 30.0412 26.1196 30.2103 26.4516C30.2206 26.4701 30.2185 26.4928 30.2103 26.5114L28.9546 28.798L31.5154 27.6887C31.5319 27.6825 31.5505 27.6825 31.567 27.6887C31.9361 27.8454 32.3319 27.9258 32.7422 27.9258H37.8103C39.3443 27.9258 40.5917 26.7918 40.5917 25.4C40.5917 24.0083 39.3443 22.8722 37.8103 22.8722H32.7422H32.7381Z" fill="black"/>
<path d="M37.2268 24.1485H33.4392C33.3856 24.1485 33.3423 24.1052 33.3423 24.0516C33.3423 23.998 33.3856 23.9547 33.4392 23.9547H37.2268C37.2804 23.9547 37.3237 23.998 37.3237 24.0516C37.3237 24.1052 37.2804 24.1485 37.2268 24.1485Z" fill="#6E00BE"/>
<path d="M38.5898 25.2825H31.8826C31.8289 25.2825 31.7856 25.2392 31.7856 25.1856C31.7856 25.132 31.8289 25.0887 31.8826 25.0887H38.5898C38.6434 25.0887 38.6867 25.132 38.6867 25.1856C38.6867 25.2392 38.6434 25.2825 38.5898 25.2825Z" fill="#6E00BE"/>
<path d="M38.5898 26.4165H31.8826C31.8289 26.4165 31.7856 26.3732 31.7856 26.3196C31.7856 26.266 31.8289 26.2227 31.8826 26.2227H38.5898C38.6434 26.2227 38.6867 26.266 38.6867 26.3196C38.6867 26.3732 38.6434 26.4165 38.5898 26.4165Z" fill="#6E00BE"/>
<path d="M30.412 23.7704C30.939 23.6909 31.3017 23.1993 31.2222 22.6723C31.1427 22.1454 30.651 21.7826 30.1241 21.8621C29.5971 21.9416 29.2344 22.4333 29.3139 22.9603C29.3934 23.4872 29.885 23.8499 30.412 23.7704Z" fill="white"/>
<path d="M30.3915 20.7856C30.3853 20.8041 30.3812 20.8227 30.3771 20.8433C30.1792 20.833 29.9833 20.8516 29.7936 20.899C29.7874 20.8804 29.7792 20.8639 29.7689 20.8454C29.6451 20.6103 29.3544 20.5217 29.1194 20.6454C28.8843 20.7691 28.7957 21.0619 28.9194 21.2949C28.9276 21.3114 28.94 21.3279 28.9503 21.3443C28.806 21.4742 28.6802 21.6248 28.5771 21.7959C28.5585 21.7876 28.542 21.7815 28.5235 21.7753C28.2699 21.6969 27.9998 21.8392 27.9214 22.0928C27.8431 22.3464 27.9853 22.6165 28.239 22.6949C28.2575 22.701 28.2761 22.7052 28.2967 22.7093C28.2864 22.9072 28.3049 23.1052 28.3503 23.2928C28.3317 23.299 28.3152 23.3072 28.2967 23.3175C28.0616 23.4413 27.973 23.734 28.0967 23.967C28.2204 24.2021 28.5111 24.2907 28.7462 24.167C28.7627 24.1588 28.7792 24.1464 28.7957 24.1361C28.9256 24.2804 29.0761 24.4062 29.2472 24.5093C29.239 24.5279 29.2328 24.5443 29.2266 24.565C29.1482 24.8186 29.2905 25.0887 29.5441 25.167C29.7977 25.2454 30.0678 25.1031 30.1462 24.8495C30.1524 24.8309 30.1565 24.8124 30.1606 24.7918C30.3585 24.8021 30.5544 24.7835 30.7441 24.7361C30.7503 24.7547 30.7585 24.7712 30.7688 24.7897C30.8926 25.0248 31.1833 25.1134 31.4183 24.9897C31.6534 24.866 31.742 24.5732 31.6183 24.3402C31.6101 24.3237 31.5977 24.3072 31.5874 24.2907C31.7317 24.1608 31.8575 24.0103 31.9606 23.8392C31.9792 23.8474 31.9957 23.8536 32.0142 23.8598C32.2678 23.9382 32.5379 23.7959 32.6163 23.5423C32.6946 23.2887 32.5524 23.0186 32.2987 22.9402C32.2802 22.934 32.2616 22.9299 32.241 22.9258C32.2513 22.7279 32.2328 22.5299 32.1874 22.3423C32.206 22.3361 32.2225 22.3279 32.241 22.3175C32.4761 22.1938 32.5647 21.901 32.441 21.6681C32.3173 21.4351 32.0266 21.3443 31.7915 21.4681C31.775 21.4763 31.7585 21.4887 31.742 21.499C31.6121 21.3547 31.4616 21.2289 31.2905 21.1258C31.2987 21.1072 31.3049 21.0907 31.3111 21.0701C31.3895 20.8165 31.2472 20.5464 30.9936 20.4681C30.74 20.3897 30.4699 20.532 30.3915 20.7856ZM31.1214 23.0784C30.975 23.5505 30.4761 23.8144 30.0039 23.6701C29.5317 23.5258 29.2678 23.0248 29.4142 22.5526C29.5606 22.0804 30.0596 21.8165 30.5317 21.9608C31.0039 22.1052 31.2678 22.6062 31.1214 23.0784Z" fill="#F500A3"/>
<path d="M56.9257 22.8165L55.2947 19.8475C55.4968 19.4495 55.6102 19.0062 55.6102 18.5382C55.6102 16.8062 54.0679 15.4021 52.1648 15.4021H46.0308C44.1277 15.4021 42.5854 16.8062 42.5854 18.5382C42.5854 20.2701 44.1277 21.6743 46.0308 21.6743H52.1648C52.6844 21.6743 53.1751 21.5691 53.6164 21.3815L56.9257 22.8145V22.8165Z" fill="white"/>
<path d="M56.9257 22.8804C56.9257 22.8804 56.9092 22.8804 56.901 22.8743L53.6164 21.4516C53.1587 21.6413 52.67 21.7382 52.1649 21.7382H46.0309C44.0948 21.7382 42.5195 20.3011 42.5195 18.5361C42.5195 16.7712 44.0948 15.334 46.0309 15.334H52.1649C54.101 15.334 55.6762 16.7712 55.6762 18.5361C55.6762 18.9897 55.5731 19.431 55.369 19.8433L56.9834 22.7815C56.9958 22.8062 56.9938 22.8351 56.9752 22.8557C56.9628 22.8701 56.9463 22.8763 56.9278 22.8763L56.9257 22.8804ZM53.6164 21.3196C53.6164 21.3196 53.6329 21.3196 53.6412 21.3258L56.7773 22.6846L55.2371 19.8804C55.2267 19.8619 55.2267 19.8392 55.2371 19.8206C55.4412 19.4165 55.5443 18.9856 55.5443 18.5402C55.5443 16.8454 54.0267 15.4681 52.1628 15.4681H46.0288C44.1649 15.4681 42.6474 16.8474 42.6474 18.5402C42.6474 20.233 44.1649 21.6124 46.0288 21.6124H52.1628C52.6597 21.6124 53.1402 21.5155 53.5896 21.3258C53.5979 21.3217 53.6061 21.3217 53.6144 21.3217L53.6164 21.3196Z" fill="black"/>
<path d="M51.3153 17.0062H46.7297C46.6761 17.0062 46.6328 16.9629 46.6328 16.9093C46.6328 16.8557 46.6761 16.8124 46.7297 16.8124H51.3153C51.3689 16.8124 51.4122 16.8557 51.4122 16.9093C51.4122 16.9629 51.3689 17.0062 51.3153 17.0062Z" fill="#F500A3"/>
<path d="M53.2 18.3794H45.0784C45.0247 18.3794 44.9814 18.3361 44.9814 18.2825C44.9814 18.2288 45.0247 18.1855 45.0784 18.1855H53.2C53.2536 18.1855 53.2969 18.2288 53.2969 18.2825C53.2969 18.3361 53.2536 18.3794 53.2 18.3794Z" fill="#F500A3"/>
<path d="M53.2 19.7526H45.0784C45.0247 19.7526 44.9814 19.7093 44.9814 19.6557C44.9814 19.6021 45.0247 19.5588 45.0784 19.5588H53.2C53.2536 19.5588 53.2969 19.6021 53.2969 19.6557C53.2969 19.7093 53.2536 19.7526 53.2 19.7526Z" fill="#F500A3"/>
<path d="M54.6538 17.8C55.7936 17.8 56.7177 16.876 56.7177 15.7361C56.7177 14.5962 55.7936 13.6722 54.6538 13.6722C53.5139 13.6722 52.5898 14.5962 52.5898 15.7361C52.5898 16.876 53.5139 17.8 54.6538 17.8Z" fill="white"/>
<path d="M54.6537 17.8639C53.4805 17.8639 52.5259 16.9093 52.5259 15.7361C52.5259 14.5629 53.4805 13.6083 54.6537 13.6083C55.8269 13.6083 56.7816 14.5629 56.7816 15.7361C56.7816 16.9093 55.8269 17.8639 54.6537 17.8639ZM54.6537 13.7361C53.5506 13.7361 52.6537 14.633 52.6537 15.7361C52.6537 16.8392 53.5506 17.7361 54.6537 17.7361C55.7568 17.7361 56.6537 16.8392 56.6537 15.7361C56.6537 14.633 55.7568 13.7361 54.6537 13.7361Z" fill="black"/>
<path d="M54.4886 16.3568C54.4907 16.2083 54.5113 16.0887 54.5484 15.998C54.5855 15.9073 54.668 15.8021 54.7917 15.6784C54.9154 15.5568 54.9958 15.4702 55.0329 15.4186C55.068 15.3671 55.0969 15.3114 55.1154 15.2516C55.134 15.1897 55.1443 15.1217 55.1443 15.0434C55.1443 14.8866 55.103 14.7629 55.0185 14.6722C54.934 14.5815 54.8185 14.5382 54.668 14.5382C54.5175 14.5382 54.3958 14.5815 54.303 14.6681C54.2103 14.7547 54.1628 14.8702 54.1608 15.0186H53.936C53.9381 14.8124 54.0082 14.6475 54.1463 14.5238C54.2845 14.4001 54.4577 14.3382 54.668 14.3382C54.8783 14.3382 55.0556 14.4021 55.1793 14.5279C55.3051 14.6537 55.367 14.8248 55.367 15.0413C55.367 15.1774 55.336 15.3031 55.2742 15.4227C55.2123 15.5423 55.0948 15.6805 54.9237 15.8392C54.7814 15.9588 54.7113 16.132 54.7113 16.3588H54.4866L54.4886 16.3568ZM54.4597 16.9877C54.4597 16.9444 54.4742 16.9093 54.501 16.8784C54.5278 16.8495 54.567 16.833 54.6144 16.833C54.6618 16.833 54.701 16.8475 54.7278 16.8784C54.7567 16.9073 54.7711 16.9444 54.7711 16.9877C54.7711 17.031 54.7567 17.064 54.7278 17.0928C54.6989 17.1217 54.6618 17.1361 54.6144 17.1361C54.567 17.1361 54.5278 17.1217 54.501 17.0928C54.4742 17.064 54.4597 17.0289 54.4597 16.9877Z" fill="#6E00BE"/>
</g>
<defs>
<clipPath id="clip0_5479_1424">
<rect width="80" height="80" fill="white"/>
</clipPath>
</defs>
</svg>
