<svg width="40" height="40" viewBox="0 0 40 40" fill="none" xmlns="http://www.w3.org/2000/svg">
<g clip-path="url(#clip0_2875_28758)">
<path d="M13.3981 28.6799C13.0229 28.5105 12.6621 28.3237 12.324 28.1261C10.1739 26.8667 8.99473 25.1577 9.00916 23.3141L9.03802 19.032L6.34982 17.7942L6.33333 20.2893C6.33333 20.4717 6.26324 20.6432 6.13955 20.7713C6.01586 20.8994 5.853 20.9689 5.67777 20.9689C5.59119 20.9689 5.50667 20.9494 5.42627 20.9146C5.18507 20.8061 5.03046 20.5564 5.03252 20.2806L5.05314 17.1971L3.4163 16.4436C2.53604 16.0375 1.99387 15.1559 2.00005 14.144C2.00624 13.1321 2.56284 12.2591 3.44929 11.8661L18.0055 5.42768C19.3043 4.85441 20.7886 4.85875 22.0811 5.44288L36.5838 12.1223C37.4641 12.5284 38.0062 13.4079 38 14.4198C37.9939 15.4317 37.4373 16.3046 36.5508 16.6976L30.8941 19.2014L30.8652 23.4835C30.8528 25.3271 29.651 27.0165 27.4843 28.2456C25.4414 29.403 22.7449 30.0262 19.8918 30.0045C17.519 29.9871 15.2741 29.5289 13.3981 28.682V28.6799ZM10.3265 20.919L10.3491 23.8201C10.5367 24.9449 11.4644 26.0567 12.9569 26.9296C13.2579 27.1055 13.5795 27.2727 13.9155 27.4226C15.6286 28.1956 17.6984 28.6147 19.9001 28.6321C22.5388 28.6516 25.0126 28.0849 26.8679 27.036C28.379 26.1805 29.3211 25.0795 29.5232 23.933L29.5829 21.0645L29.5912 19.7768L21.9966 23.1382C21.3431 23.427 20.6505 23.5704 19.9372 23.566C19.2363 23.5617 18.558 23.4118 17.921 23.123L10.3368 19.6313L10.3285 20.9212L10.3265 20.919ZM18.4323 21.8614C19.4032 22.3001 20.5165 22.3044 21.4915 21.8723L36.0478 15.4317C36.4519 15.2536 36.6951 14.8693 36.6992 14.4067C36.7013 13.9442 36.4642 13.5599 36.0622 13.3731L21.5699 6.70016C21.0916 6.48301 20.5824 6.37227 20.0567 6.36793C19.5207 6.36358 19.0012 6.47216 18.5106 6.6893L3.95229 13.1299C3.54824 13.308 3.30498 13.6923 3.30086 14.1548C3.2988 14.6174 3.53587 15.0017 3.93786 15.1885L5.52934 15.9224C5.55408 15.9159 5.57676 15.9094 5.60149 15.9051L17.1212 13.8856C17.385 12.9931 18.558 12.3851 20.0134 12.3959C20.6422 12.4003 21.2318 12.5197 21.7183 12.739C22.4955 13.0908 22.9387 13.6619 22.9346 14.3047C22.9305 14.8367 22.6212 15.3188 22.0626 15.664C21.5225 15.9963 20.7844 16.1765 19.9887 16.17C19.36 16.1656 18.7724 16.0462 18.2838 15.8269C17.9334 15.6684 17.6427 15.4599 17.4345 15.2167L7.70423 16.9235L18.4302 21.8636L18.4323 21.8614ZM18.3704 14.2678C18.3952 14.309 18.5044 14.435 18.7869 14.5631C19.0198 14.6673 19.4177 14.7954 19.997 14.7998C21.0442 14.8085 21.5678 14.4067 21.6297 14.2938C21.6049 14.2504 21.4957 14.1266 21.2132 13.9985C20.9803 13.8943 20.5824 13.7661 20.0031 13.7618C18.9538 13.7531 18.4323 14.1548 18.3704 14.2678Z" fill="#E119A0"/>
<path d="M4.0162 35.8805C3.85334 35.8067 3.70698 35.6959 3.58947 35.5591C3.36064 35.292 3.24932 34.9315 3.28231 34.5733L3.72553 29.8134C3.76676 29.3747 3.93993 28.9665 4.22029 28.6473C3.97291 28.3129 3.83891 27.9003 3.84303 27.4747C3.84922 26.693 4.30893 26.0003 4.99748 25.7245L5.02221 22.1589C5.02221 21.9765 5.0923 21.805 5.21599 21.6769C5.33969 21.5487 5.50254 21.4792 5.67777 21.4792C5.76435 21.4792 5.84888 21.4988 5.92927 21.5335C6.17047 21.6421 6.32508 21.8918 6.32302 22.1676L6.29828 25.7332C6.31271 25.7397 6.32508 25.744 6.33951 25.7505C7.00538 26.0524 7.43211 26.7386 7.42799 27.5008C7.42592 27.9264 7.28574 28.3368 7.03424 28.6668C7.30842 28.9904 7.47746 29.403 7.51251 29.8416L7.88976 34.6058C7.91862 34.9641 7.80112 35.3224 7.56817 35.5873C7.33522 35.8523 7.00538 36.0021 6.66317 35.9999L4.48828 35.9825C4.32543 35.9825 4.16669 35.9456 4.0162 35.8783V35.8805ZM5.85506 29.429C5.78085 29.3965 5.70251 29.3791 5.62005 29.3769C5.3067 29.3747 5.04901 29.6201 5.01809 29.948L4.58311 34.6167L6.58483 34.6319L6.21376 29.9567C6.19521 29.7222 6.05709 29.5202 5.85506 29.429ZM5.8262 27.0143C5.76642 26.9883 5.70251 26.9731 5.63654 26.9731C5.36442 26.9731 5.14384 27.2011 5.14178 27.4877C5.14178 27.6962 5.25723 27.8851 5.4407 27.9676C5.50048 27.9937 5.56439 28.0089 5.63036 28.0089C5.90248 28.0089 6.12306 27.7809 6.12512 27.4942C6.12512 27.2858 6.00967 27.0969 5.8262 27.0143Z" fill="#00A3FF"/>
</g>
<defs>
<clipPath id="clip0_2875_28758">
<rect width="36" height="31" fill="white" transform="translate(2 5)"/>
</clipPath>
</defs>
</svg>
