<svg width="80" height="80" viewBox="0 0 80 80" fill="none" xmlns="http://www.w3.org/2000/svg">
<path d="M59.0633 42.2507H36.3945L39.6031 13.7173H62.2719L59.0633 42.2507Z" fill="white"/>
<path d="M59.0632 42.3147H36.3944C36.3752 42.3147 36.3582 42.3061 36.3475 42.2933C36.3347 42.2805 36.3304 42.2613 36.3326 42.2443L39.539 13.7109C39.5432 13.6789 39.571 13.6533 39.603 13.6533H62.2739C62.2931 13.6533 62.3102 13.6619 62.3208 13.6747C62.3336 13.6875 62.3379 13.7067 62.3358 13.7237L59.1272 42.2571C59.123 42.2891 59.0952 42.3147 59.0632 42.3147ZM36.467 42.1867H59.0078L62.2014 13.7813H39.6606L36.467 42.1845V42.1867Z" fill="black"/>
<path d="M57.7275 29.2608H40.6523L40.8614 27.4005H57.9366L57.7275 29.2608Z" fill="#F3E6FF"/>
<path d="M57.2798 33.2437H40.2046L40.4137 31.3813H57.4889L57.2798 33.2437Z" fill="#F3E6FF"/>
<path d="M52.8694 23.4761C54.6394 21.7812 54.8462 19.1247 53.3313 17.5428C51.8164 15.9609 49.1535 16.0525 47.3835 17.7475C45.6136 19.4425 45.4068 22.0989 46.9217 23.6808C48.4365 25.2628 51.0995 25.1711 52.8694 23.4761Z" fill="black"/>
<mask id="mask0_5479_1285" style="mask-type:luminance" maskUnits="userSpaceOnUse" x="46" y="16" width="8" height="9">
<path d="M52.531 23.1202C54.0814 21.6355 54.2628 19.3088 52.9362 17.9234C51.6095 16.5381 49.2772 16.6187 47.7267 18.1034C46.1763 19.5881 45.9949 21.9148 47.3215 23.3001C48.6482 24.6855 50.9805 24.6049 52.531 23.1202Z" fill="white"/>
</mask>
<g mask="url(#mask0_5479_1285)">
<path d="M51.9743 24.6485H47.3834C47.3642 24.6485 47.3471 24.64 47.3343 24.625C47.3215 24.6101 47.3172 24.5909 47.3194 24.5738L48.0618 20.0042C48.2986 18.5514 49.3588 17.4122 50.4767 17.4122C50.9354 17.4122 51.3514 17.5978 51.6799 17.9477C52.1386 18.4362 52.3732 19.1914 52.322 20.0192L52.0362 24.5888C52.0362 24.6229 52.0063 24.6485 51.9722 24.6485H51.9743ZM47.4602 24.5205H51.9146L52.1962 20.0106C52.2452 19.2192 52.0234 18.5002 51.5882 18.0352C51.2831 17.7109 50.8991 17.5402 50.4788 17.5402C49.4207 17.5402 48.4159 18.6325 48.1898 20.0256L47.4602 24.5205Z" fill="white"/>
<path d="M52.0041 22.3829L49.9817 21.9029L47.8505 22.3829C47.2767 22.5109 46.786 22.9333 46.5642 23.4837L45.8452 25.8688H53.2244L53.041 23.4837C52.9428 22.9333 52.546 22.5109 52.002 22.3829H52.0041Z" fill="white"/>
<path d="M49.8368 23.1914C49.3419 23.1914 48.9856 22.7904 49.0432 22.2954L49.231 20.6165H51.0208L50.8331 22.2954C50.7776 22.7904 50.3318 23.1914 49.8368 23.1914Z" fill="white"/>
<path d="M51.7569 19.4539C51.6929 19.4368 51.6267 19.4432 51.5627 19.4667C51.6033 18.6368 51.1019 18.0736 50.4129 18.0736C49.7238 18.0736 49.0945 18.6368 48.9494 19.4667C48.8897 19.4432 48.8257 19.4368 48.7574 19.4539C48.559 19.5029 48.4225 19.7269 48.4523 19.9552C48.4843 20.1835 48.6699 20.3307 48.8683 20.2816C48.9003 20.2731 48.9302 20.2603 48.9601 20.2453C49.0902 20.8576 49.5041 21.3269 50.0459 21.3269C50.5878 21.3269 51.1062 20.8576 51.375 20.2453C51.4006 20.2624 51.4262 20.2752 51.4582 20.2816C51.6459 20.3307 51.8657 20.1835 51.9489 19.9552C52.0321 19.7269 51.9446 19.5029 51.7569 19.4539Z" fill="white"/>
<path d="M50.0459 21.3909C49.5232 21.3909 49.0773 20.9707 48.9152 20.3349C48.9045 20.3392 48.8939 20.3413 48.8853 20.3435C48.7787 20.3691 48.672 20.3499 48.5803 20.288C48.4779 20.2176 48.4075 20.1003 48.3904 19.9637C48.3541 19.7035 48.5141 19.4475 48.7424 19.392C48.7936 19.3792 48.8469 19.3771 48.8981 19.3877C49.0667 18.5856 49.6939 18.0117 50.4107 18.0117C50.7413 18.0117 51.0443 18.1376 51.264 18.368C51.5029 18.6197 51.6309 18.9781 51.6288 19.3856C51.6779 19.3792 51.7269 19.3813 51.7717 19.392C51.8656 19.4155 51.9445 19.4795 51.9936 19.5691C52.0555 19.6843 52.0597 19.8336 52.0085 19.9765C51.9147 20.2347 51.6608 20.3989 51.4411 20.3435C51.4283 20.3413 51.4176 20.3371 51.4048 20.3328C51.104 20.9685 50.5643 21.3909 50.0459 21.3909ZM48.96 20.1813C48.96 20.1813 48.9771 20.1813 48.9856 20.1877C49.0048 20.1963 49.0176 20.2133 49.0219 20.2325C49.1541 20.8491 49.5637 21.2629 50.0459 21.2629C50.528 21.2629 51.0421 20.8427 51.3152 20.2197C51.3237 20.2027 51.3387 20.1899 51.3557 20.1835C51.3728 20.1771 51.3941 20.1813 51.4091 20.192C51.4283 20.2048 51.4496 20.2155 51.4731 20.2197C51.6309 20.2603 51.8165 20.1323 51.8869 19.9339C51.9275 19.8251 51.9232 19.7141 51.8784 19.6288C51.8485 19.5712 51.7995 19.5307 51.7397 19.5157C51.6928 19.5029 51.6373 19.5072 51.584 19.5264C51.5648 19.5328 51.5413 19.5307 51.5243 19.5179C51.5072 19.5051 51.4965 19.4837 51.4987 19.4624C51.52 19.0549 51.4027 18.6965 51.1723 18.4533C50.976 18.2464 50.7136 18.1376 50.4128 18.1376C49.7365 18.1376 49.1477 18.7008 49.0133 19.4773C49.0091 19.4965 48.9984 19.5136 48.9813 19.5221C48.9643 19.5307 48.9451 19.5328 48.9259 19.5264C48.8768 19.5072 48.8256 19.5029 48.7744 19.5157C48.6059 19.5563 48.4928 19.7504 48.5184 19.9467C48.5312 20.0469 48.5824 20.1323 48.6549 20.1835C48.7147 20.224 48.7872 20.2368 48.8576 20.2197C48.8832 20.2133 48.9067 20.2048 48.9323 20.1899C48.9429 20.1835 48.9536 20.1813 48.9643 20.1813H48.96Z" fill="#F3E6FF"/>
<path d="M48.9024 19.6757C49.5701 19.552 50.3168 18.9696 50.784 18.4448C50.8117 18.912 51.1637 19.456 51.5733 19.648C51.5733 19.648 51.9872 17.792 50.4362 17.8517C48.8832 17.9114 48.9024 19.6778 48.9024 19.6778V19.6757Z" fill="black"/>
</g>
<path d="M11.2297 56.8427C15.9684 56.8427 19.8099 53.0012 19.8099 48.2625C19.8099 43.5237 15.9684 39.6822 11.2297 39.6822C6.49093 39.6822 2.64941 43.5237 2.64941 48.2625C2.64941 53.0012 6.49093 56.8427 11.2297 56.8427Z" fill="white"/>
<path d="M11.2297 56.9067C6.46385 56.9067 2.58545 53.0283 2.58545 48.2624C2.58545 43.4966 6.46385 39.6182 11.2297 39.6182C15.9956 39.6182 19.874 43.4966 19.874 48.2624C19.874 53.0283 15.9956 56.9067 11.2297 56.9067ZM11.2297 39.7462C6.53425 39.7462 2.71345 43.567 2.71345 48.2624C2.71345 52.9579 6.53425 56.7787 11.2297 56.7787C15.9252 56.7787 19.746 52.9579 19.746 48.2624C19.746 43.567 15.9252 39.7462 11.2297 39.7462Z" fill="black"/>
<path d="M11.6674 53.7323C11.6674 53.7323 11.6652 53.7323 11.6631 53.7323C7.65885 53.4422 6.71805 51.4369 6.67965 51.3515C6.66471 51.3195 6.67965 51.2811 6.71165 51.2662C6.74365 51.2513 6.78205 51.2662 6.79698 51.2982C6.80551 51.3174 7.75271 53.3206 11.6738 53.6043C11.71 53.6065 11.7356 53.6385 11.7335 53.6726C11.7314 53.7067 11.7036 53.7323 11.6695 53.7323H11.6674Z" fill="black"/>
<path d="M0.911074 65.6768C0.911074 65.6768 0.894008 65.6768 0.885474 65.6704C0.853474 65.6555 0.838541 65.6171 0.853474 65.5851L5.67481 54.9739C5.68974 54.9419 5.72814 54.927 5.76014 54.9419C5.79214 54.9568 5.80707 54.9952 5.79214 55.0272L0.970808 65.6384C0.960141 65.6619 0.936674 65.6768 0.913208 65.6768H0.911074Z" fill="black"/>
<path d="M0.616533 67.0273C0.957035 67.0273 1.23307 66.7512 1.23307 66.4107C1.23307 66.0702 0.957035 65.7942 0.616533 65.7942C0.276031 65.7942 0 66.0702 0 66.4107C0 66.7512 0.276031 67.0273 0.616533 67.0273Z" fill="black"/>
<path d="M21.5488 65.5275C21.5253 65.5275 21.5019 65.5126 21.4912 65.4891L16.6699 54.8779C16.6549 54.8459 16.6699 54.8075 16.7019 54.7926C16.7339 54.7776 16.7723 54.7926 16.7872 54.8246L21.6085 65.4358C21.6235 65.4678 21.6085 65.5062 21.5765 65.5211C21.568 65.5254 21.5595 65.5275 21.5509 65.5275H21.5488Z" fill="black"/>
<path d="M21.8431 66.8779C22.1836 66.8779 22.4596 66.6019 22.4596 66.2614C22.4596 65.9209 22.1836 65.6448 21.8431 65.6448C21.5026 65.6448 21.2266 65.9209 21.2266 66.2614C21.2266 66.6019 21.5026 66.8779 21.8431 66.8779Z" fill="black"/>
<path d="M29.8473 66.9248H20.0361C18.722 66.9248 17.8196 65.6064 18.2932 64.3819L23.8079 50.1291H33.9796L28.482 64.3414L30.1844 66.1504C30.4596 66.4427 30.2527 66.9227 29.8495 66.9227L29.8473 66.9248Z" fill="white"/>
<path d="M29.8476 66.9888H20.0364C19.3985 66.9888 18.8033 66.6752 18.4428 66.1483C18.0822 65.6213 18.0033 64.9536 18.2337 64.3584L23.7484 50.1056C23.7569 50.08 23.7825 50.0651 23.8081 50.0651H33.9798C34.0012 50.0651 34.0204 50.0757 34.0332 50.0928C34.046 50.1099 34.0481 50.1333 34.0396 50.1525L28.5548 64.3285L30.2294 66.1099C30.3745 66.2635 30.4129 66.4811 30.3276 66.6752C30.2444 66.8693 30.0588 66.9909 29.8476 66.9909V66.9888ZM23.8508 50.1931L18.3532 64.4053C18.1356 64.9685 18.206 65.5787 18.5473 66.0757C18.8886 66.5749 19.4326 66.8608 20.0364 66.8608H29.8476C30.0076 66.8608 30.1462 66.7691 30.2102 66.624C30.2742 66.4768 30.2444 66.3147 30.1356 66.1973L28.4332 64.3883C28.4161 64.3712 28.4118 64.3435 28.4204 64.3221L33.886 50.1973H23.8529L23.8508 50.1931Z" fill="black"/>
<path d="M28.4607 64.3925H19.8741C19.8378 64.3925 19.8101 64.3648 19.8101 64.3285C19.8101 64.2923 19.8378 64.2645 19.8741 64.2645H28.4607C28.497 64.2645 28.5247 64.2923 28.5247 64.3285C28.5247 64.3648 28.497 64.3925 28.4607 64.3925Z" fill="black"/>
<path d="M10.1848 45.5402L9.19063 48.4288C8.44609 50.5877 10.0504 52.8384 12.3352 52.8384H26.5474L32.8685 65.7856C33.2397 66.545 34.0098 67.0272 34.8546 67.0272H45.1586C45.4509 67.0272 45.5725 66.6538 45.3357 66.4832L42.5816 64.4778L36.557 50.3552C35.3112 47.4346 32.444 45.5402 29.2696 45.5402H10.1848Z" fill="white"/>
<path d="M45.1606 67.0912H34.8566C33.9926 67.0912 33.1905 66.5899 32.8108 65.8133L26.5068 52.9003H12.335C11.2257 52.9003 10.2188 52.3819 9.57451 51.4773C8.93025 50.5728 8.76811 49.4528 9.12865 48.4032L10.1228 45.5147C10.1313 45.4891 10.1569 45.472 10.1825 45.472H29.2694C32.4758 45.472 35.3601 47.3771 36.6166 50.3253L42.6348 64.4309L45.3761 66.4256C45.5062 66.5195 45.5574 66.6816 45.5084 66.8331C45.4593 66.9867 45.3228 67.0848 45.1606 67.0848V67.0912ZM10.2316 45.6043L9.25238 48.4501C8.90465 49.4592 9.06038 50.5365 9.68118 51.4069C10.302 52.2773 11.2684 52.7744 12.3372 52.7744H26.5494C26.5729 52.7744 26.5964 52.7893 26.607 52.8107L32.9281 65.7579C33.2865 66.4896 34.0438 66.9632 34.8566 66.9632H45.1606C45.2865 66.9632 45.359 66.8779 45.3868 66.7989C45.4124 66.72 45.4038 66.6091 45.3014 66.5344L42.5473 64.5291C42.5473 64.5291 42.5302 64.512 42.526 64.5013L36.5014 50.3787C35.2641 47.4773 32.4268 45.6021 29.2716 45.6021H10.2316V45.6043Z" fill="black"/>
<path d="M42.5834 64.5419H33.9776C33.9413 64.5419 33.9136 64.5141 33.9136 64.4779C33.9136 64.4416 33.9413 64.4139 33.9776 64.4139H42.5834C42.6197 64.4139 42.6474 64.4416 42.6474 64.4779C42.6474 64.5141 42.6197 64.5419 42.5834 64.5419Z" fill="black"/>
<path d="M25.0881 36.1771L24.9687 34.6539L21.3697 33.8817L16.1836 44.3243L22.5239 44.1089L25.0881 36.1771Z" fill="white"/>
<path d="M20.9533 44.832L24.3688 34.144C24.3688 34.144 30.933 37.807 28.8061 44.832H20.9512H20.9533Z" fill="white"/>
<path d="M28.8063 44.8961H20.9514C20.9301 44.8961 20.9109 44.8854 20.9002 44.8705C20.8874 44.8534 20.8853 44.8321 20.8917 44.8129L24.3071 34.1249C24.3135 34.1057 24.3263 34.0907 24.3455 34.0843C24.3626 34.0779 24.3839 34.0779 24.401 34.0886C24.4181 34.0971 26.0693 35.0315 27.4367 36.815C28.7018 38.4641 29.9754 41.1947 28.8682 44.8513C28.8597 44.879 28.8341 44.8961 28.8063 44.8961ZM21.041 44.7681H28.7594C29.8261 41.1883 28.5759 38.511 27.3343 36.8939C26.1397 35.3366 24.7274 34.4363 24.4053 34.2422L21.041 44.7681Z" fill="black"/>
<path d="M24.7872 43.3878C24.7872 43.3878 24.7722 43.3878 24.7637 43.3835C24.7317 43.3707 24.7146 43.3323 24.7274 43.3003L26.5728 38.6219C26.5856 38.5899 26.624 38.5728 26.656 38.5856C26.688 38.5984 26.705 38.6368 26.6922 38.6688L24.8469 43.3472C24.8362 43.3728 24.8128 43.3878 24.7872 43.3878Z" fill="black"/>
<path d="M23.8827 35.6864C24.1793 36.1451 24.4758 36.6037 24.7745 37.0603C24.5995 37.3397 24.4225 37.6192 24.2475 37.8987C24.3179 39.1467 24.3499 40.4693 24.3307 41.8581C24.2923 44.3883 24.0854 46.7157 23.791 48.8043L22.7094 49.9051L21.6235 48.6315C21.9393 47.4453 22.2315 46.1781 22.4833 44.8384C22.9526 42.3531 23.2107 40.0363 23.3345 37.9413C23.1339 37.5552 22.9355 37.1691 22.735 36.7829L23.8849 35.6864H23.8827Z" fill="#6E00BE"/>
<path d="M21.6213 33.9329L14.7648 50.6198L10.304 50.3083C9.2416 50.2337 8.50347 49.2203 8.75947 48.1878C8.98987 47.2555 9.33547 46.1142 9.8304 45.039C10.5707 43.4347 12.4181 39.8038 13.9136 37.1094C15.3472 34.5259 17.9029 33.8817 20.6997 33.8817C20.7595 33.8817 21.5637 33.9179 21.6213 33.9329Z" fill="white"/>
<path d="M14.7648 50.6838C14.7648 50.6838 14.7627 50.6838 14.7605 50.6838L10.2997 50.3702C9.77495 50.3339 9.29495 50.0672 8.98561 49.6427C8.67628 49.2182 8.57175 48.6806 8.69761 48.1707C8.98988 46.9888 9.35255 45.9243 9.77281 45.0112C10.5088 43.4134 12.3691 39.7611 13.8581 37.0774C15.4795 34.1547 18.5387 33.8176 20.6997 33.8176C20.7467 33.8176 21.568 33.8518 21.6384 33.871C21.6555 33.8752 21.6704 33.888 21.6789 33.9051C21.6875 33.9222 21.6875 33.9414 21.6789 33.9584L14.8224 50.6454C14.8117 50.6688 14.7883 50.6859 14.7627 50.6859L14.7648 50.6838ZM20.6997 33.9456C17.3163 33.9456 15.1787 34.9611 13.9712 37.1392C12.4843 39.8208 10.6261 43.4688 9.89015 45.0646C9.47201 45.9712 9.11361 47.0272 8.82135 48.2006C8.70401 48.6742 8.80215 49.1712 9.08801 49.5659C9.37601 49.9606 9.81975 50.2059 10.3061 50.24L14.72 50.5494L21.5253 33.984C21.3141 33.967 20.7552 33.9414 20.6955 33.9414L20.6997 33.9456Z" fill="black"/>
<path d="M36.2133 44.7638H27.8271L30.6133 37.0987H38.9994L36.2133 44.7638Z" fill="#F3E6FF"/>
<path d="M25.2927 43.8486H36.578L36.2132 44.832H24.8682L25.2927 43.8486Z" fill="#F3E6FF"/>
<path d="M14.1828 38.1163L12.7407 41.7963C12.1668 43.2597 13.2399 44.8448 14.8121 44.8555C17.1055 44.8704 19.9577 44.8875 22.1231 44.8853C22.3535 43.3557 23.0575 41.8219 23.4692 41.024C20.3076 40.9792 17.2761 40.9387 17.2761 40.9387L19.0575 36.576L14.1828 38.1163Z" fill="white"/>
<path d="M21.7176 44.9515C19.5224 44.9515 16.7512 44.9344 14.8098 44.9216C14.0397 44.9173 13.3485 44.5461 12.9176 43.9083C12.4845 43.2704 12.3992 42.4917 12.6808 41.7749L14.1229 38.0949C14.1357 38.0608 14.1741 38.0459 14.2061 38.0587C14.2381 38.0715 14.2552 38.1099 14.2424 38.1419L12.8002 41.8219C12.5336 42.5003 12.6168 43.2341 13.0242 43.8379C13.4317 44.4416 14.0845 44.7893 14.812 44.7936C16.8557 44.8085 19.8232 44.8256 22.0674 44.8235C22.3 43.3536 22.957 41.8901 23.3645 41.088C20.2754 41.0432 17.3058 41.0048 17.276 41.0048C17.2546 41.0048 17.2354 40.9941 17.2226 40.9771C17.2098 40.96 17.2077 40.9365 17.2162 40.9173L18.9976 36.5547C19.0104 36.5227 19.0488 36.5056 19.0808 36.5205C19.1128 36.5333 19.1298 36.5717 19.1149 36.6037L17.3677 40.8789C17.9053 40.8853 20.6488 40.9216 23.4669 40.9621C23.4882 40.9621 23.5096 40.9749 23.5202 40.9941C23.5309 41.0133 23.533 41.0368 23.5202 41.056C23.1192 41.8347 22.4109 43.3707 22.1805 44.8981C22.1762 44.9301 22.1485 44.9536 22.1165 44.9536C21.9842 44.9536 21.8498 44.9536 21.7112 44.9536L21.7176 44.9515Z" fill="black"/>
<path d="M28.1302 41.1094C27.1958 41.0838 25.3739 41.0539 23.4667 41.0262C23.055 41.8262 22.351 43.3579 22.1206 44.8875C23.8998 44.8875 25.2161 44.8704 25.3803 44.832C25.9158 44.7062 25.9051 44.1025 25.9051 44.1025C26.6881 43.9531 26.2529 43.3259 26.2529 43.3259C27.4454 42.6753 26.3915 42.2315 26.3915 42.2315L28.1729 41.9969C28.3713 41.9713 28.527 41.8155 28.5547 41.6171C28.591 41.3547 28.3926 41.1179 28.1281 41.1115L28.1302 41.1094Z" fill="white"/>
<path d="M22.1207 44.9515C22.1015 44.9515 22.0844 44.943 22.0716 44.9302C22.0588 44.9152 22.0545 44.8982 22.0567 44.879C22.2892 43.3323 23.0039 41.7835 23.4092 40.9963C23.4199 40.975 23.4412 40.9622 23.4668 40.9622C25.7495 40.9942 27.3196 41.024 28.1324 41.0454C28.2775 41.0496 28.4119 41.1158 28.5057 41.2246C28.5996 41.3355 28.6423 41.4806 28.6209 41.6235C28.5889 41.8496 28.4097 42.0267 28.1836 42.0566L26.5943 42.2656C26.7223 42.3531 26.878 42.4982 26.8865 42.6902C26.8972 42.912 26.7159 43.1318 26.3425 43.3451C26.398 43.4454 26.4855 43.6544 26.4065 43.8443C26.3447 43.9936 26.1975 44.0982 25.9671 44.1515C25.9543 44.3115 25.8753 44.7766 25.3953 44.8918C25.2396 44.928 24.1687 44.9472 22.1207 44.9494V44.9515ZM23.5052 41.0902C23.1084 41.8667 22.4321 43.343 22.1953 44.8235C24.638 44.8214 25.2695 44.7915 25.3655 44.7702C25.8433 44.6571 25.8412 44.1259 25.8412 44.1046C25.8412 44.0726 25.8625 44.047 25.8924 44.0406C26.1057 44 26.2401 43.919 26.2871 43.8016C26.366 43.6075 26.2017 43.3664 26.1996 43.3622C26.1889 43.3472 26.1868 43.328 26.1889 43.311C26.1911 43.2939 26.2039 43.279 26.2209 43.2704C26.5793 43.0742 26.7649 42.8779 26.7564 42.7008C26.7436 42.4534 26.3703 42.2912 26.366 42.2891C26.3404 42.2784 26.3233 42.2507 26.3276 42.2208C26.3319 42.1931 26.3532 42.1696 26.3831 42.1654L28.1644 41.9307C28.3329 41.9094 28.4673 41.775 28.4908 41.6064C28.5057 41.4998 28.4737 41.391 28.4055 41.3078C28.3351 41.2246 28.2348 41.1776 28.126 41.1734C27.3175 41.152 25.7623 41.1222 23.5031 41.0902H23.5052Z" fill="black"/>
<path d="M16.1836 41.0774C16.1495 41.0774 16.1218 41.0496 16.1196 41.0155C16.1196 40.9792 16.1452 40.9494 16.1815 40.9494L16.958 40.9195C16.9922 40.9195 17.0242 40.9451 17.0242 40.9814C17.0242 41.0176 16.9986 41.0475 16.9623 41.0475L16.1858 41.0774C16.1858 41.0774 16.1858 41.0774 16.1836 41.0774Z" fill="black"/>
<path d="M24.8345 37.6917L23.8425 36.1173L22.8377 37.8304L20.6147 34.9525L21.6217 33.9328L24.3694 34.144L25.2078 35.2299L24.8345 37.6917Z" fill="white"/>
<path d="M22.8376 37.8944C22.8184 37.8944 22.7992 37.8859 22.7864 37.8688L20.5635 34.9931C20.5443 34.9675 20.5464 34.9312 20.5677 34.9077L21.5747 33.888C21.5875 33.8752 21.6067 33.8667 21.6259 33.8688L24.3736 34.0821C24.3907 34.0821 24.4077 34.0928 24.4205 34.1077L25.2589 35.1936C25.2696 35.2085 25.2739 35.2256 25.2717 35.2427L24.8984 37.7045C24.8941 37.7301 24.8749 37.7515 24.8472 37.7579C24.8216 37.7643 24.7939 37.7515 24.7789 37.7301L23.8445 36.2453L22.8931 37.8667C22.8824 37.8859 22.8632 37.8965 22.8419 37.8987C22.8419 37.8987 22.8397 37.8987 22.8376 37.8987V37.8944ZM20.7 34.9568L22.8291 37.7131L23.7869 36.0832C23.7976 36.064 23.8189 36.0512 23.8403 36.0512C23.8616 36.0512 23.8829 36.0619 23.8936 36.0811L24.7917 37.5083L25.1352 35.2448L24.3309 34.2037L21.6408 33.9968L20.6957 34.9568H20.7Z" fill="black"/>
<path d="M24.9581 32.9984L23.8829 35.6864L22.1592 34.144L23.2002 31.36C23.2002 31.36 24.3074 31.9915 24.9581 32.9984Z" fill="white"/>
<path d="M23.8829 35.7504C23.8679 35.7504 23.853 35.744 23.8402 35.7334L22.1165 34.191C22.0973 34.1739 22.0909 34.1462 22.0994 34.1206L23.1405 31.3366C23.1469 31.3195 23.1618 31.3046 23.1789 31.2982C23.1959 31.2918 23.2173 31.2939 23.2322 31.3024C23.2429 31.3088 24.3607 31.9531 25.0114 32.9622C25.0221 32.9792 25.0242 33.0006 25.0178 33.0219L23.9426 35.7099C23.9341 35.7291 23.917 35.744 23.8978 35.7483C23.8935 35.7483 23.8871 35.7483 23.8829 35.7483V35.7504ZM22.2338 34.1248L23.8573 35.5755L24.8855 33.0048C24.3394 32.1771 23.4754 31.6032 23.2322 31.4539L22.2338 34.1248Z" fill="black"/>
<path d="M21.3526 29.7707C21.3846 28.9728 21.8241 28.2475 22.3403 27.6373C23.0635 26.7819 24.0129 26.0523 25.1201 25.8773C26.2273 25.7024 27.4859 26.2144 27.9233 27.2448C28.079 27.6117 28.1217 28.0405 27.9638 28.4053C27.7953 28.7979 27.4177 29.0709 27.0102 29.1968C26.6027 29.3227 26.1675 29.3184 25.743 29.2779C25.7643 29.2779 24.8939 30.5088 24.7851 30.6091C24.3649 31.0059 23.8657 31.3216 23.3259 31.5285C22.767 31.7419 22.4662 31.6992 22.0182 31.3067C21.5787 30.9205 21.3291 30.3573 21.3526 29.7685V29.7707Z" fill="black"/>
<path d="M26.6199 31.9445C26.5837 32.4693 26.4322 33.0688 25.9543 33.2885C25.6471 33.4293 25.2823 33.3696 24.9666 33.2458C24.3927 33.0218 23.8978 32.5994 23.5885 32.0661C23.181 32.1941 22.6946 32.0618 22.4365 31.7205C22.1783 31.3792 22.1975 30.848 22.5047 30.5493C22.8119 30.2528 23.3751 30.2677 23.6418 30.6005C23.5458 30.2272 23.4477 29.8538 23.3517 29.4805C23.8829 29.3994 24.6978 29.1328 24.813 29.0773C25.0605 28.96 25.2994 28.817 25.5213 28.6549C25.7901 28.4565 25.8349 28.2986 26.0375 28.5973C26.6178 29.457 26.6903 30.9461 26.6221 31.9424L26.6199 31.9445Z" fill="white"/>
<path d="M25.5596 33.4336C25.3334 33.4336 25.1158 33.3717 24.9452 33.3056C24.3692 33.0816 23.8785 32.6698 23.5606 32.1408C23.1297 32.2538 22.6433 32.0981 22.3873 31.7589C22.1036 31.3813 22.1377 30.8181 22.462 30.5045C22.6284 30.3445 22.8673 30.2613 23.1169 30.2762C23.2684 30.2869 23.4113 30.3338 23.5286 30.4106L23.2918 29.4976C23.2876 29.4805 23.2918 29.4613 23.3004 29.4464C23.311 29.4314 23.326 29.4208 23.3452 29.4186C23.8785 29.3376 24.6806 29.0709 24.7873 29.0197C25.0326 28.9024 25.2673 28.7616 25.4849 28.6037C25.5382 28.5653 25.583 28.5269 25.6214 28.4928C25.711 28.416 25.7814 28.3562 25.8689 28.369C25.9414 28.3797 26.0054 28.4352 26.0908 28.561C26.7884 29.5936 26.7222 31.4133 26.686 31.9466C26.6369 32.672 26.3937 33.1562 25.982 33.344C25.8454 33.4058 25.7025 33.4314 25.5596 33.4314V33.4336ZM23.5884 32.0021C23.6097 32.0021 23.6332 32.0149 23.6438 32.0341C23.9489 32.5568 24.4268 32.9664 24.99 33.1861C25.246 33.2864 25.615 33.3738 25.9265 33.2309C26.3873 33.0197 26.5238 32.4117 26.5558 31.9402C26.5921 31.4176 26.6561 29.6341 25.982 28.6357C25.9094 28.5269 25.8689 28.5013 25.8476 28.4992C25.8177 28.4949 25.7665 28.5397 25.7004 28.5952C25.6598 28.6293 25.6129 28.6698 25.5574 28.7104C25.3334 28.8746 25.0924 29.0197 24.8406 29.1392C24.7126 29.201 23.9532 29.4464 23.4326 29.536L23.7057 30.5877C23.7142 30.6176 23.6993 30.6474 23.6716 30.6624C23.6438 30.6752 23.6118 30.6688 23.5926 30.6453C23.4817 30.5066 23.3068 30.4213 23.1084 30.4085C22.8972 30.3957 22.6902 30.4661 22.5516 30.6005C22.2764 30.8672 22.2465 31.3642 22.4897 31.6864C22.7244 31.9957 23.1788 32.1322 23.5713 32.0085C23.5777 32.0085 23.5841 32.0064 23.5905 32.0064L23.5884 32.0021Z" fill="black"/>
<path d="M23.584 31.5563C23.5669 31.5563 23.5499 31.5499 23.5371 31.5371C23.3408 31.3344 23.0528 31.215 22.7712 31.2192C22.7328 31.2192 22.7072 31.1915 22.7051 31.1552C22.7051 31.119 22.7328 31.0912 22.7691 31.0891C23.0848 31.0827 23.4091 31.2171 23.6309 31.4454C23.6565 31.471 23.6544 31.5115 23.6309 31.5371C23.6181 31.5499 23.6032 31.5542 23.5861 31.5542L23.584 31.5563Z" fill="black"/>
<path d="M66.3745 44.5888H16.5099C16.2119 44.5888 15.9702 44.8305 15.9702 45.1285V45.4592C15.9702 45.7573 16.2119 45.9989 16.5099 45.9989H66.3745C66.6726 45.9989 66.9142 45.7573 66.9142 45.4592V45.1285C66.9142 44.8305 66.6726 44.5888 66.3745 44.5888Z" fill="black"/>
<path d="M68.4032 65.6235C68.3797 65.6235 68.3563 65.6107 68.3456 65.5851L59.3003 45.935C59.2853 45.903 59.3003 45.8646 59.3323 45.8496C59.3643 45.8347 59.4026 45.8496 59.4176 45.8816L68.4629 65.5318C68.4779 65.5638 68.4629 65.6022 68.4309 65.6171C68.4224 65.6214 68.4139 65.6235 68.4032 65.6235Z" fill="black"/>
<path d="M68.7084 67.0273C69.0618 67.0273 69.3484 66.7407 69.3484 66.3873C69.3484 66.0338 69.0618 65.7473 68.7084 65.7473C68.3549 65.7473 68.0684 66.0338 68.0684 66.3873C68.0684 66.7407 68.3549 67.0273 68.7084 67.0273Z" fill="black"/>
<path d="M16.1066 65.6235C16.1066 65.6235 16.0895 65.6235 16.0788 65.6171C16.0468 65.6022 16.0319 65.5638 16.0468 65.5318L25.0922 45.8816C25.1071 45.8496 25.1455 45.8347 25.1775 45.8496C25.2095 45.8646 25.2244 45.903 25.2095 45.935L16.1642 65.5851C16.1535 65.6086 16.13 65.6235 16.1066 65.6235Z" fill="black"/>
<path d="M15.8016 67.0273C16.1551 67.0273 16.4416 66.7407 16.4416 66.3873C16.4416 66.0338 16.1551 65.7473 15.8016 65.7473C15.4482 65.7473 15.1616 66.0338 15.1616 66.3873C15.1616 66.7407 15.4482 67.0273 15.8016 67.0273Z" fill="black"/>
<path d="M56.6083 51.2405L61.6003 65.7451C61.8179 66.3744 61.3485 67.0293 60.6829 67.0293H54.4173L49.5811 52.1515L56.6083 51.2405Z" fill="white"/>
<path d="M60.683 67.0912H54.4174C54.3896 67.0912 54.364 67.0742 54.3555 67.0464L49.5192 52.1686C49.5128 52.1494 49.515 52.1302 49.5256 52.1152C49.5363 52.0982 49.5534 52.0875 49.5726 52.0854L56.5998 51.1744C56.6296 51.1702 56.6595 51.1894 56.668 51.2171L61.66 65.7216C61.771 66.0416 61.7198 66.383 61.5235 66.6582C61.3272 66.9334 61.02 67.0912 60.683 67.0912ZM54.4643 66.9632H60.683C60.9795 66.9632 61.2483 66.8246 61.419 66.5835C61.5918 66.3424 61.6344 66.0438 61.5384 65.7643L56.5635 51.311L49.6664 52.2048L54.4643 66.9632Z" fill="black"/>
<path d="M55.563 65.0582C55.4158 65.0582 55.2665 65.0496 55.1193 65.0347C55.083 65.0304 55.0595 64.9984 55.0617 64.9643C55.0659 64.928 55.0979 64.9046 55.1321 64.9067C55.9321 64.9963 56.7342 64.8128 57.5534 64.5995C58.5859 64.3307 59.627 64.0299 60.6446 63.7078C60.6787 63.6971 60.715 63.7163 60.7257 63.7504C60.7363 63.7846 60.7171 63.8208 60.683 63.8315C59.6633 64.1558 58.6201 64.4566 57.5854 64.7254C56.9027 64.9024 56.2329 65.0603 55.5609 65.0603L55.563 65.0582Z" fill="black"/>
<path d="M68.6081 46.0096L69.7515 48.9728C70.5473 51.0358 69.0177 53.2544 66.8054 53.2416C61.5659 53.2096 53.7259 53.1776 53.7259 53.2736C53.7259 53.3952 57.1713 63.1787 58.2251 66.1696C58.3723 66.5899 58.0609 67.0272 57.6171 67.0272H47.2171C46.8694 67.0272 46.7265 66.5814 47.0081 66.3787L49.5787 64.5248C49.5787 64.5248 46.7286 58.6688 44.7254 52.9856C43.5243 49.5787 46.0609 46.0075 49.6726 46.0075H68.6059L68.6081 46.0096Z" fill="white"/>
<path d="M57.6171 67.0912H47.2193C47.0315 67.0912 46.8758 66.976 46.8182 66.799C46.7606 66.6219 46.8225 66.4363 46.9739 66.3275L49.5019 64.5056C49.2225 63.9275 46.5537 58.3574 44.6699 53.0091C44.0918 51.3686 44.3371 49.6107 45.3441 48.1878C46.3531 46.7627 47.9339 45.9456 49.679 45.9456H68.6123C68.6379 45.9456 68.6635 45.9627 68.6721 45.9862L69.8155 48.9494C70.1974 49.9392 70.0651 51.0507 69.4635 51.9211C68.8619 52.7936 67.8721 53.3099 66.8097 53.3035C59.0742 53.2566 54.3851 53.2629 53.8091 53.3184C54.0203 53.999 56.2283 60.2966 58.2891 66.144C58.3659 66.3638 58.3339 66.5984 58.1995 66.7883C58.0651 66.9782 57.8539 67.087 57.6214 67.087L57.6171 67.0912ZM49.6747 46.0736C47.9702 46.0736 46.4299 46.8715 45.4443 48.2624C44.463 49.6491 44.2219 51.3643 44.7873 52.9664C46.7649 58.5792 49.6086 64.4395 49.6385 64.4992C49.6513 64.527 49.6427 64.5611 49.6193 64.5803L47.0486 66.4342C46.9206 66.5259 46.9099 66.6646 46.9398 66.7627C46.9718 66.8608 47.0614 66.9653 47.2193 66.9653H57.6171C57.8091 66.9653 57.9819 66.8758 58.0907 66.72C58.2017 66.5643 58.2273 66.3723 58.1633 66.1931C56.1089 60.3648 53.6598 53.3931 53.6598 53.2758C53.6598 53.2587 53.6683 53.2395 53.679 53.2288C53.7195 53.1883 53.807 53.1008 66.8033 53.1798C66.8097 53.1798 66.8161 53.1798 66.8225 53.1798C67.8465 53.1798 68.7681 52.6976 69.3505 51.8528C69.9371 51.0038 70.0609 49.9627 69.6897 48.9984L68.5611 46.0758H49.6726L49.6747 46.0736Z" fill="black"/>
<path d="M52.5866 65.519C51.5285 65.519 50.6389 65.2843 49.9391 64.8171C49.8645 64.768 49.7791 64.7062 49.7087 64.6315C49.6853 64.6059 49.6874 64.5654 49.713 64.5398C49.7386 64.5163 49.7791 64.5184 49.8047 64.544C49.8645 64.6102 49.9391 64.6635 50.0117 64.7104C50.8522 65.2694 51.9765 65.4848 53.3525 65.3504C53.9882 65.2886 54.6282 65.1627 55.249 65.039C55.761 64.9387 56.2879 64.8342 56.8149 64.7659C56.8511 64.7616 56.8831 64.7851 56.8874 64.8214C56.8917 64.8555 56.8682 64.8896 56.8319 64.8939C56.3093 64.9622 55.7845 65.0667 55.2746 65.167C54.6517 65.2907 54.0095 65.4166 53.3674 65.4806C53.0986 65.5062 52.8405 65.519 52.5909 65.519H52.5866Z" fill="black"/>
<path d="M53.2735 53.3568H50.6431C50.6068 53.3568 50.5791 53.3291 50.5791 53.2928C50.5791 53.2566 50.6068 53.2288 50.6431 53.2288H53.2735C53.3098 53.2288 53.3375 53.2566 53.3375 53.2928C53.3375 53.3291 53.3098 53.3568 53.2735 53.3568Z" fill="black"/>
<path d="M69.9626 52.207H59.0804C58.6728 52.207 58.3423 52.5374 58.3423 52.9451V53.504C58.3423 53.9117 58.6728 54.2422 59.0804 54.2422H69.9626C70.3702 54.2422 70.7007 53.9117 70.7007 53.504V52.9451C70.7007 52.5374 70.3702 52.207 69.9626 52.207Z" fill="black"/>
<path d="M55.1681 65.6235C55.1681 65.6235 55.151 65.6235 55.1404 65.6171C55.1084 65.6022 55.0934 65.5638 55.1084 65.5318L60.5292 53.7515C60.5441 53.7195 60.5825 53.7046 60.6145 53.7195C60.6465 53.7344 60.6614 53.7728 60.6465 53.8048L55.2257 65.5851C55.215 65.6086 55.1916 65.6235 55.1681 65.6235Z" fill="black"/>
<path d="M54.8651 67.0273C55.2186 67.0273 55.5051 66.7407 55.5051 66.3873C55.5051 66.0338 55.2186 65.7473 54.8651 65.7473C54.5116 65.7473 54.2251 66.0338 54.2251 66.3873C54.2251 66.7407 54.5116 67.0273 54.8651 67.0273Z" fill="black"/>
<path d="M73.8753 65.6235C73.8519 65.6235 73.8284 65.6107 73.8177 65.5851L68.3969 53.8048C68.382 53.7728 68.3969 53.7344 68.4289 53.7195C68.4609 53.7046 68.4993 53.7195 68.5143 53.7515L73.9351 65.5318C73.95 65.5638 73.9351 65.6022 73.9031 65.6171C73.8945 65.6214 73.886 65.6235 73.8753 65.6235Z" fill="black"/>
<path d="M74.1781 67.0273C74.5315 67.0273 74.8181 66.7407 74.8181 66.3873C74.8181 66.0338 74.5315 65.7473 74.1781 65.7473C73.8246 65.7473 73.5381 66.0338 73.5381 66.3873C73.5381 66.7407 73.8246 67.0273 74.1781 67.0273Z" fill="black"/>
<path d="M50.432 38.2742C49.1691 37.615 47.7632 36.9344 46.3787 37.2736C46.223 37.312 46.0438 37.3931 46.0246 37.551C45.999 37.7707 46.2827 37.8752 46.5024 37.903C46.8608 37.9478 47.2214 37.9947 47.5798 38.0395L47.6374 38.0544C47.3728 38.1718 47.104 38.319 46.9526 38.5664C46.8032 38.8139 46.8267 39.1872 47.0742 39.3366C46.9078 39.4944 46.831 39.7398 46.8779 39.9616C46.9248 40.1856 47.0934 40.3776 47.3088 40.4544C47.2064 40.591 47.2384 40.7894 47.3216 40.9366C47.4582 41.1776 47.7206 41.3398 47.9979 41.3526C48.2624 41.3654 48.5291 41.2374 48.6891 41.0262C48.6848 41.0198 48.6827 41.0134 48.6784 41.0048L48.7083 40.9984C48.7083 40.9984 48.6955 41.0155 48.6891 41.024C48.9728 41.5808 49.3355 42.0971 49.7643 42.5536C49.856 42.6518 49.9499 42.7456 50.048 42.8395L52.0875 39.2982C51.5499 38.9184 51.0059 38.5686 50.432 38.2678V38.2742Z" fill="white"/>
<path d="M50.0458 42.9077C50.0287 42.9077 50.0138 42.9013 50.001 42.8907C49.8879 42.7819 49.7962 42.6901 49.7151 42.6027C49.3055 42.1653 48.9556 41.6747 48.674 41.1435C48.4991 41.3269 48.2452 41.4315 47.9914 41.4208C47.6948 41.408 47.409 41.2309 47.2618 40.9728C47.1892 40.8448 47.1402 40.6507 47.2127 40.4907C47.0122 40.3925 46.8564 40.1984 46.8116 39.9787C46.7647 39.7589 46.8287 39.52 46.9738 39.3493C46.7498 39.1552 46.7455 38.7819 46.8948 38.5365C47.0186 38.3339 47.2106 38.1973 47.4196 38.0885L46.4895 37.9691C46.225 37.9349 45.9263 37.8048 45.9562 37.5467C45.9754 37.3909 46.1183 37.2736 46.3572 37.2139C47.7226 36.8811 49.0751 37.4997 50.4554 38.2208C50.9802 38.496 51.5092 38.8245 52.1194 39.2555C52.1492 39.2768 52.1556 39.3152 52.1343 39.3451C52.113 39.3749 52.0746 39.3813 52.0447 39.36C51.441 38.9333 50.9162 38.6069 50.3956 38.336C49.0388 37.6277 47.7098 37.0176 46.3871 37.3397C46.2804 37.3653 46.097 37.4293 46.082 37.5637C46.0607 37.7408 46.3359 37.824 46.5023 37.8453L47.5796 37.9819C47.5796 37.9819 47.5839 37.9819 47.586 37.9819L47.6436 37.9968C47.6692 38.0032 47.6906 38.0267 47.6927 38.0544C47.6948 38.0821 47.6799 38.1077 47.6543 38.1184C47.3983 38.2336 47.1402 38.3723 46.9994 38.6048C46.8692 38.8203 46.8842 39.1573 47.0996 39.2875C47.1167 39.2981 47.1274 39.3152 47.1295 39.3365C47.1295 39.3557 47.1252 39.3771 47.1103 39.3899C46.961 39.5307 46.8906 39.7547 46.9332 39.9552C46.9759 40.1579 47.1295 40.3328 47.3236 40.4011C47.3428 40.4075 47.3578 40.4224 47.3642 40.4437C47.3706 40.4651 47.3663 40.4843 47.3535 40.5013C47.2639 40.6229 47.3066 40.8 47.3706 40.9131C47.4943 41.1349 47.7396 41.2843 47.9935 41.2971C48.2282 41.3077 48.4586 41.2032 48.6079 41.0261C48.6058 41.0133 48.6079 40.9984 48.6143 40.9856C48.6228 40.9664 48.6399 40.9536 48.6612 40.9515L48.6911 40.9451C48.7167 40.9408 48.7423 40.9515 48.7572 40.9728C48.77 40.992 48.77 41.0197 48.7572 41.0389C49.0367 41.5787 49.3887 42.0779 49.8026 42.5195C49.8815 42.6048 49.9711 42.6944 50.0842 42.8032C50.1098 42.8288 50.1098 42.8693 50.0842 42.8949C50.0714 42.9077 50.0543 42.9141 50.0372 42.9141L50.0458 42.9077Z" fill="black"/>
<path d="M47.2146 39.3046C47.1954 39.3046 47.1741 39.296 47.1634 39.279C47.1421 39.2512 47.1485 39.2107 47.1784 39.1894C47.4002 39.0294 47.6413 38.8971 47.8952 38.7968C47.9272 38.784 47.9656 38.799 47.9784 38.8331C47.9912 38.8651 47.9762 38.9035 47.9421 38.9163C47.6968 39.0123 47.4664 39.1403 47.253 39.2939C47.2424 39.3024 47.2274 39.3067 47.2146 39.3067V39.3046Z" fill="black"/>
<path d="M47.4173 40.4779C47.3981 40.4779 47.3811 40.4693 47.3683 40.4544C47.3448 40.4267 47.3491 40.3861 47.3768 40.3648C47.5453 40.2219 47.7331 40.1003 47.9336 40.0064C47.9656 39.9915 48.004 40.0064 48.0189 40.0363C48.0339 40.0683 48.0189 40.1067 47.9891 40.1216C47.7992 40.2112 47.62 40.3243 47.46 40.4608C47.4472 40.4715 47.4323 40.4757 47.4195 40.4757L47.4173 40.4779Z" fill="black"/>
<path d="M48.7102 41.0304L48.1577 41.0155C48.1214 41.0155 48.0937 40.9856 48.0958 40.9494C48.0958 40.9131 48.1257 40.8854 48.162 40.8875L48.7145 40.9024C48.7508 40.9024 48.7785 40.9323 48.7764 40.9686C48.7764 41.0027 48.7465 41.0304 48.7124 41.0304H48.7102Z" fill="black"/>
<path d="M70.5216 47.8549C69.6534 45.2672 66.2294 38.1355 65.7024 37.0347C65.5168 36.6485 65.3248 36.2517 65.0219 35.9488C64.3222 35.2512 63.2214 35.2 62.2336 35.2363C60.992 35.2832 59.0422 35.2725 57.9392 35.8464C57.0347 36.3179 55.2534 39.6608 54.656 40.8107C53.7579 40.2411 52.879 39.8613 52.0854 39.3003L50.0459 42.8416C50.2102 42.9995 50.3787 43.1509 50.5494 43.2981C50.9568 43.6501 51.3814 43.9872 51.855 44.2453C52.9963 44.8683 54.4043 44.9792 55.631 44.5461C56.8576 44.1131 57.8816 43.1403 58.3787 41.9392L58.3915 41.9136C58.7136 43.1659 59.0891 44.5184 59.4454 45.6704C59.488 45.8069 59.5371 45.952 59.648 46.0416C59.7803 46.1483 59.968 46.1504 60.1387 46.1483C60.4992 46.1419 60.8576 46.1355 61.2182 46.1291C61.632 47.0613 61.8603 47.7483 62.2742 48.6827C62.4448 49.0688 62.624 49.4677 62.9334 49.7579C63.3067 50.112 63.8272 50.2635 64.335 50.3488C65.7472 50.5856 67.1936 50.3829 68.6102 50.1632C69.0432 50.0971 69.4827 50.0245 69.8731 49.8283C70.2635 49.6299 70.6027 49.2821 70.6795 48.8512C70.7392 48.5141 70.6326 48.1728 70.5259 47.8485L70.5216 47.8549Z" fill="#F500A3"/>
<path d="M58.4214 41.952C58.3936 41.952 58.3702 41.9349 58.3595 41.9072C58.1995 41.4229 58.0331 40.9323 57.8624 40.4501C57.8454 40.4032 57.8304 40.3627 57.8027 40.3413C57.7558 40.3051 57.6726 40.3243 57.5574 40.4011C57.5275 40.4203 57.487 40.4117 57.4678 40.3819C57.4486 40.352 57.4571 40.3115 57.487 40.2923C57.6534 40.1835 57.7856 40.1643 57.8816 40.2368C57.9414 40.2816 57.967 40.3541 57.9862 40.4053C58.1568 40.8875 58.3232 41.3803 58.4832 41.8645C58.4939 41.8987 58.4768 41.9349 58.4427 41.9456C58.4363 41.9477 58.4299 41.9499 58.4235 41.9499L58.4214 41.952Z" fill="black"/>
<path d="M57.5507 29.5616C57.5507 29.5616 56.2366 32.3456 57.427 33.4102C58.6174 34.4747 60.7721 32.8811 60.7721 32.8811C60.7721 32.8811 58.9289 28.7616 57.5529 29.5616H57.5507Z" fill="white"/>
<path d="M58.4576 33.8454C58.0736 33.8454 57.6982 33.7408 57.3846 33.4592C56.1728 32.3734 57.44 29.6512 57.4934 29.536C57.4998 29.5232 57.5083 29.5147 57.519 29.5083C57.7302 29.3846 57.9648 29.3632 58.2144 29.4443C59.4731 29.8496 60.7766 32.7339 60.8299 32.8576C60.8427 32.8854 60.8342 32.9174 60.8086 32.9366C60.7424 32.9856 59.5584 33.8496 58.4555 33.8496L58.4576 33.8454ZM57.6 29.6086C57.4912 29.8496 56.3776 32.3862 57.4678 33.3632C57.7494 33.6171 58.0928 33.711 58.4491 33.711C59.4112 33.711 60.4672 33.0134 60.6891 32.8598C60.512 32.4758 59.2918 29.9243 58.1718 29.5638C57.9627 29.4955 57.775 29.5104 57.5979 29.6064L57.6 29.6086Z" fill="black"/>
<path d="M68.544 37.7152C68.3093 36.9984 67.8933 36.3435 67.3664 35.808C67.0976 35.5371 66.7989 35.3046 66.4917 35.0784C66.1803 34.8502 65.8624 34.6262 65.5893 34.351C65.3163 34.0736 65.1136 33.7494 64.9771 33.3846C64.8363 33.007 64.7637 32.6102 64.6912 32.2155C64.6208 31.8251 64.5504 31.4347 64.4352 31.055C64.32 30.6731 64.1685 30.3019 63.9851 29.9456C63.6267 29.2544 63.1403 28.5718 62.5088 28.1046C62.1888 27.8678 61.8197 27.6992 61.4229 27.6416C61.0155 27.5819 60.6037 27.6288 60.2069 27.7312C60.1323 27.7504 60.0597 27.7718 59.9872 27.7952C59.6651 27.7142 59.3429 27.6352 59.0187 27.5584C58.6667 27.4752 58.3125 27.3899 57.9499 27.3771C57.6277 27.3643 57.2885 27.4091 57.0133 27.5904C56.704 27.7931 56.5504 28.1302 56.4864 28.4843C56.3627 29.1776 56.5312 29.9712 57.1179 30.4128C57.3611 30.5963 57.6427 30.7158 57.9179 30.8374C58.1909 30.9568 58.4747 31.0742 58.7008 31.2704C58.9803 31.5115 59.0933 31.8464 59.0656 32.2112C59.0357 32.6102 58.8928 32.992 58.8139 33.3824C58.6709 34.0843 58.624 34.8928 59.0571 35.5051C59.4731 36.0918 60.2709 36.3264 60.5589 37.0134C60.7125 37.3782 60.704 37.7899 60.6592 38.176C60.6101 38.607 60.5141 39.0336 60.4821 39.4667C60.4523 39.8827 60.4736 40.3051 60.6165 40.7019C60.7317 41.0219 60.9152 41.312 61.1435 41.5638C61.6192 42.0864 62.2571 42.4427 62.9227 42.6624C63.7547 42.9376 64.6571 43.0294 65.5232 42.863C66.2592 42.7222 66.9632 42.3915 67.5221 41.888C68.6763 40.8491 69.0133 39.168 68.5397 37.7152H68.544Z" fill="black"/>
<path d="M10.1655 13.7088H22.5858C23.0253 13.7088 23.3837 14.0651 23.3837 14.5067V20.1707C23.3837 20.6101 23.0253 20.9685 22.5858 20.9685H10.1655C9.72608 20.9685 9.36768 20.6123 9.36768 20.1707V14.5067C9.36768 14.0672 9.72608 13.7088 10.1655 13.7088Z" fill="#F3E6FF"/>
<path d="M22.3213 24.2048C22.7172 24.2048 23.0381 23.8839 23.0381 23.488C23.0381 23.0921 22.7172 22.7712 22.3213 22.7712C21.9254 22.7712 21.6045 23.0921 21.6045 23.488C21.6045 23.8839 21.9254 24.2048 22.3213 24.2048Z" fill="#F3E6FF"/>
<path d="M24.416 24.2048C24.8119 24.2048 25.1328 23.8839 25.1328 23.488C25.1328 23.0921 24.8119 22.7712 24.416 22.7712C24.0201 22.7712 23.6992 23.0921 23.6992 23.488C23.6992 23.8839 24.0201 24.2048 24.416 24.2048Z" fill="#F3E6FF"/>
<path d="M26.5112 24.2048C26.9071 24.2048 27.228 23.8839 27.228 23.488C27.228 23.0921 26.9071 22.7712 26.5112 22.7712C26.1154 22.7712 25.7944 23.0921 25.7944 23.488C25.7944 23.8839 26.1154 24.2048 26.5112 24.2048Z" fill="#F3E6FF"/>
<path d="M16.7381 19.2747H6.28052C5.93492 19.2747 5.65332 19.6523 5.65332 20.1195V26.6006C5.65332 27.0657 5.93279 27.4454 6.28052 27.4454H19.9125L17.4208 25.0369L17.3632 20.1195C17.3632 19.6545 17.0837 19.2747 16.736 19.2747H16.7381Z" fill="white"/>
<path d="M19.9126 27.5072H6.28056C5.90082 27.5072 5.58936 27.0998 5.58936 26.5984V20.1174C5.58936 19.616 5.89869 19.2086 6.28056 19.2086H16.7382C17.1179 19.2086 17.4294 19.616 17.4294 20.1174L17.487 25.007L19.9595 27.3984C19.9787 27.4176 19.9851 27.4454 19.9744 27.4688C19.9638 27.4923 19.9403 27.5094 19.9147 27.5094L19.9126 27.5072ZM6.28056 19.3387C5.97122 19.3387 5.71949 19.6886 5.71949 20.1174V26.5984C5.71949 27.0272 5.97122 27.3771 6.28056 27.3771H19.7547L17.3782 25.0774C17.3654 25.0646 17.359 25.0496 17.359 25.0326L17.3014 20.1152C17.3014 19.6843 17.0496 19.3344 16.7403 19.3344H6.28056V19.3387Z" fill="black"/>
<path d="M11.6695 25.28C11.6333 25.28 11.6055 25.2523 11.6055 25.216V24.1387C11.6055 24.1024 11.6333 24.0747 11.6695 24.0747C12.6189 24.0747 13.389 23.3024 13.389 22.3531C13.389 21.4037 12.6167 20.6315 11.6695 20.6315C10.9421 20.6315 10.2893 21.0923 10.0461 21.7792C10.0333 21.8133 9.99701 21.8304 9.96501 21.8176C9.93088 21.8048 9.91381 21.7685 9.92661 21.7365C10.1869 20.9984 10.8887 20.5035 11.6695 20.5035C12.6893 20.5035 13.5191 21.3333 13.5191 22.3531C13.5191 23.3728 12.7234 24.1664 11.7335 24.2005V25.216C11.7335 25.2523 11.7058 25.28 11.6695 25.28Z" fill="black"/>
<path d="M11.6719 26.2144C11.6356 26.2144 11.6079 26.1867 11.6079 26.1504V25.7003C11.6079 25.664 11.6356 25.6363 11.6719 25.6363C11.7082 25.6363 11.7359 25.664 11.7359 25.7003V26.1504C11.7359 26.1867 11.7082 26.2144 11.6719 26.2144Z" fill="black"/>
<path d="M67.9848 21.8517H79.1976C79.5944 21.8517 79.9165 22.2165 79.9165 22.6667V28.448C79.9165 28.8981 79.5944 29.2629 79.1976 29.2629H65.5229L67.2317 27.6245L67.2637 22.6667C67.2637 22.2165 67.5859 21.8517 67.9827 21.8517H67.9848Z" fill="white"/>
<path d="M79.1956 29.3248H65.5209C65.4953 29.3248 65.4719 29.3098 65.4612 29.2842C65.4505 29.2608 65.4569 29.2331 65.4761 29.2139L67.1657 27.5946L67.1977 22.6645C67.1977 22.1803 67.5497 21.7856 67.9807 21.7856H79.1935C79.6265 21.7856 79.9785 22.1803 79.9785 22.6645V28.4458C79.9785 28.9301 79.6265 29.3248 79.1935 29.3248H79.1956ZM65.6809 29.1968H79.1956C79.5561 29.1968 79.8505 28.8597 79.8505 28.4458V22.6645C79.8505 22.2507 79.5561 21.9136 79.1956 21.9136H67.9828C67.6223 21.9136 67.3279 22.2507 67.3279 22.6645L67.2959 27.6224C67.2959 27.6395 67.2895 27.6565 67.2767 27.6693L65.6831 29.1968H65.6809Z" fill="black"/>
<path d="M78.5364 23.9061H74.8564V27.1765H78.5364V23.9061Z" fill="#6E00BE"/>
<path d="M73.7557 24.0021H70.6368C70.6005 24.0021 70.5728 23.9744 70.5728 23.9381C70.5728 23.9019 70.6005 23.8741 70.6368 23.8741H73.7557C73.792 23.8741 73.8197 23.9019 73.8197 23.9381C73.8197 23.9744 73.792 24.0021 73.7557 24.0021Z" fill="black"/>
<path d="M70.1225 24.0021H68.7828C68.7465 24.0021 68.7188 23.9744 68.7188 23.9381C68.7188 23.9019 68.7465 23.8741 68.7828 23.8741H70.1225C70.1588 23.8741 70.1865 23.9019 70.1865 23.9381C70.1865 23.9744 70.1588 24.0021 70.1225 24.0021Z" fill="black"/>
<path d="M73.7556 25.6213H71.4986C71.4623 25.6213 71.4346 25.5936 71.4346 25.5573C71.4346 25.5211 71.4623 25.4933 71.4986 25.4933H73.7556C73.7919 25.4933 73.8196 25.5211 73.8196 25.5573C73.8196 25.5936 73.7919 25.6213 73.7556 25.6213Z" fill="black"/>
<path d="M71.0676 25.6213H68.7828C68.7465 25.6213 68.7188 25.5936 68.7188 25.5573C68.7188 25.5211 68.7465 25.4933 68.7828 25.4933H71.0676C71.1038 25.4933 71.1315 25.5211 71.1315 25.5573C71.1315 25.5936 71.1038 25.6213 71.0676 25.6213Z" fill="black"/>
<path d="M72.627 27.2405H70.9097C70.8734 27.2405 70.8457 27.2128 70.8457 27.1765C70.8457 27.1403 70.8734 27.1125 70.9097 27.1125H72.627C72.6633 27.1125 72.691 27.1403 72.691 27.1765C72.691 27.2128 72.6633 27.2405 72.627 27.2405Z" fill="black"/>
<path d="M70.3019 27.2405H68.7808C68.7445 27.2405 68.7168 27.2128 68.7168 27.1765C68.7168 27.1403 68.7445 27.1125 68.7808 27.1125H70.3019C70.3381 27.1125 70.3659 27.1403 70.3659 27.1765C70.3659 27.2128 70.3381 27.2405 70.3019 27.2405Z" fill="black"/>
</svg>
