<svg width="40" height="40" viewBox="0 0 40 40" fill="none" xmlns="http://www.w3.org/2000/svg">
<path d="M23.5693 18.2873H16.4268C15.6387 18.2873 14.9988 17.6474 14.9988 16.8592V16.1451C14.9988 13.3843 17.2362 11.1448 19.9991 11.1448C22.762 11.1448 24.9994 13.3822 24.9994 16.1451V16.8592C24.9994 17.6474 24.3596 18.2873 23.5714 18.2873H23.5693ZM19.9991 12.5728C18.0286 12.575 16.4311 14.1725 16.429 16.143V16.8571H23.5714V16.143C23.5693 14.1725 21.9717 12.575 20.0012 12.5728H19.9991Z" fill="#E119A0"/>
<path d="M19.9992 12.5727C17.6325 12.5727 15.7129 10.653 15.7129 8.28633C15.7129 5.91963 17.6325 4 19.9992 4C22.3659 4 24.2855 5.91963 24.2855 8.28633C24.2834 10.653 22.3659 12.5684 19.9992 12.5727ZM19.9992 5.43019C18.4207 5.43019 17.1431 6.70995 17.1431 8.28633C17.1431 9.86272 18.4228 11.1425 19.9992 11.1425C21.5756 11.1425 22.8553 9.86272 22.8553 8.28633C22.8553 6.70995 21.5756 5.43019 19.9992 5.43019Z" fill="#00A3FF"/>
<path d="M13.5705 33.9999H6.42806C5.63987 33.9999 5 33.36 5 32.5718V31.8578C5 29.097 7.23743 26.8574 10.0003 26.8574C12.7632 26.8574 15.0007 29.0949 15.0007 31.8578V32.5718C15.0007 33.36 14.3608 33.9999 13.5726 33.9999H13.5705ZM10.0003 28.2855C8.02986 28.2876 6.4323 29.8852 6.43018 31.8557V32.5697H13.5726V31.8557C13.5705 29.8852 11.9729 28.2876 10.0025 28.2855H10.0003Z" fill="#E119A0"/>
<path d="M10.0002 28.2856C7.63349 28.2856 5.71387 26.3659 5.71387 23.9992C5.71387 21.6325 7.63349 19.7129 10.0002 19.7129C12.3669 19.7129 14.2865 21.6325 14.2865 23.9992C14.2844 26.3659 12.3669 28.2813 10.0002 28.2856ZM10.0002 21.1431C8.42167 21.1431 7.14405 22.4228 7.14405 23.9992C7.14405 25.5756 8.42379 26.8554 10.0002 26.8554C11.5765 26.8554 12.8563 25.5756 12.8563 23.9992C12.8563 22.4228 11.5765 21.1431 10.0002 21.1431Z" fill="#00A3FF"/>
<path d="M33.57 33.9999H26.4276C25.6394 33.9999 24.9995 33.36 24.9995 32.5718V31.8578C24.9995 29.097 27.237 26.8574 29.9999 26.8574C32.7628 26.8574 35.0002 29.0949 35.0002 31.8578V32.5718C35.0002 33.36 34.3603 33.9999 33.5721 33.9999H33.57ZM29.9999 28.2855C28.0294 28.2876 26.4318 29.8852 26.4297 31.8557V32.5697H33.5721V31.8557C33.57 29.8852 31.9725 28.2876 30.002 28.2855H29.9999Z" fill="#E119A0"/>
<path d="M29.9972 28.2856C27.6306 28.2856 25.7109 26.3659 25.7109 23.9992C25.7109 21.6325 27.6306 19.7129 29.9972 19.7129C32.3639 19.7129 34.2835 21.6325 34.2835 23.9992C34.2814 26.3659 32.3639 28.2813 29.9972 28.2856ZM29.9972 21.1431C28.4187 21.1431 27.1411 22.4228 27.1411 23.9992C27.1411 25.5756 28.4209 26.8554 29.9972 26.8554C31.5736 26.8554 32.8534 25.5756 32.8534 23.9992C32.8534 22.4228 31.5736 21.1431 29.9972 21.1431Z" fill="#00A3FF"/>
<path d="M19.9987 24.7155C19.6046 24.7155 19.2847 24.3956 19.2847 24.0015V20.4313C19.2847 20.0372 19.6046 19.7173 19.9987 19.7173C20.3928 19.7173 20.7127 20.0372 20.7127 20.4313V24.0015C20.7127 24.3956 20.3928 24.7155 19.9987 24.7155Z" fill="#E119A0"/>
<path d="M22.8551 26.8577C22.7004 26.8577 22.55 26.8068 22.4271 26.7157L19.999 24.8936L17.5708 26.7157C17.2551 26.953 16.8081 26.8895 16.5708 26.5738C16.3335 26.2581 16.397 25.811 16.7127 25.5737L19.5688 23.4316C19.8231 23.2409 20.1727 23.2409 20.427 23.4316L23.2831 25.5737C23.5988 25.811 23.6623 26.2581 23.425 26.5738C23.2894 26.7539 23.0776 26.8598 22.853 26.8598L22.8551 26.8577Z" fill="#E119A0"/>
</svg>
