<svg width="40" height="40" viewBox="0 0 40 40" fill="none" xmlns="http://www.w3.org/2000/svg">
<g clip-path="url(#clip0_2875_28756)">
<path d="M36.32 32C36.2022 32 36.0844 31.968 35.9809 31.9099C33.055 30.2418 29.721 29.3587 26.3403 29.3587C24.255 29.3587 22.1941 29.6911 20.2164 30.3439C20.1453 30.368 20.0743 30.378 20.0012 30.378C19.9281 30.378 19.855 30.366 19.7839 30.3419C17.8063 29.6871 15.7453 29.3567 13.6601 29.3567C10.2794 29.3567 6.94534 30.2398 4.01946 31.9079C3.9159 31.966 3.79814 31.998 3.68037 31.998C3.30677 31.998 3.0022 31.6976 3.0022 31.3292V11.2541C3.0022 10.9557 3.20524 10.6914 3.4956 10.6093C4.23468 10.401 4.99408 10.2328 5.75347 10.1086V9.13342C5.75347 8.82904 5.9626 8.5627 6.26108 8.48461C7.51996 8.16421 8.81946 8 10.1189 8C13.7311 8 17.2357 9.25957 20.0012 11.5484C22.7646 9.25957 26.2692 8 29.8814 8C31.1809 8 32.4804 8.16421 33.7413 8.48661C34.0398 8.5627 34.2489 8.82904 34.2489 9.13542V10.1106C35.0083 10.2348 35.7677 10.403 36.5068 10.6113C36.7971 10.6934 37.0002 10.9577 37.0002 11.2561V31.3332C37.0002 31.4513 36.9697 31.5675 36.9088 31.6696C36.787 31.8758 36.5616 32.004 36.32 32.004V32ZM26.3403 28.019C29.5585 28.019 32.7707 28.774 35.6418 30.2058V11.7647C35.1829 11.6486 34.7159 11.5484 34.2489 11.4663V26.405C34.2489 26.4611 34.2408 26.5192 34.2266 26.5732C34.1494 26.8676 33.8794 27.0738 33.5707 27.0738C33.5139 27.0738 33.455 27.0658 33.4002 27.0518C32.2489 26.7554 31.0611 26.6053 29.8712 26.6053C27.5585 26.6053 25.2905 27.17 23.2601 28.2473C24.2794 28.0951 25.3108 28.019 26.3403 28.019ZM4.35854 30.2078C7.23164 28.776 10.4418 28.021 13.6601 28.021C14.6895 28.021 15.721 28.0971 16.7403 28.2493C14.7118 27.172 12.4438 26.6073 10.1291 26.6073C8.93925 26.6073 7.75144 26.7574 6.60017 27.0538C6.54331 27.0678 6.48646 27.0758 6.42961 27.0758C6.056 27.0758 5.75144 26.7755 5.75144 26.407V11.4663C5.2824 11.5484 4.8154 11.6486 4.35854 11.7647V30.2058V30.2078ZM10.1149 25.2736C13.4205 25.2736 16.6773 26.3429 19.323 28.2934V12.7399C16.7768 10.5432 13.5159 9.33567 10.1332 9.33567C9.11793 9.33567 8.1027 9.44581 7.11184 9.66208V25.566C8.10067 25.3717 9.10981 25.2736 10.1169 25.2736H10.1149ZM20.6794 28.2934C23.323 26.3429 26.5778 25.2716 29.8814 25.2716C30.8905 25.2716 31.9017 25.3697 32.8926 25.566V9.66208C31.9017 9.44581 30.8844 9.33567 29.8712 9.33567C26.4865 9.33567 23.2255 10.5452 20.6814 12.7399V28.2934H20.6794Z" fill="#E119A0"/>
<path d="M17.8326 23.8878C17.7088 23.8878 17.5869 23.8538 17.4813 23.7917C15.256 22.442 12.7057 21.7331 10.1027 21.7331C9.62753 21.7331 9.14631 21.7572 8.67322 21.8052C8.65088 21.8072 8.62652 21.8092 8.60418 21.8092C8.25494 21.8092 7.96459 21.5509 7.93007 21.2065C7.89352 20.842 8.16357 20.5136 8.53109 20.4756C9.05088 20.4235 9.58083 20.3975 10.1027 20.3975C12.9575 20.3975 15.7514 21.1764 18.1839 22.6503C18.3382 22.7424 18.4478 22.8886 18.4905 23.0628C18.5331 23.237 18.5067 23.4152 18.4113 23.5694C18.2874 23.7717 18.0702 23.8918 17.8306 23.8918L17.8326 23.8878Z" fill="#00A3FF"/>
<path d="M22.1715 19.925C21.934 19.925 21.7188 19.8068 21.5929 19.6066C21.3959 19.2922 21.4954 18.8797 21.8142 18.6854C24.2467 17.2116 27.0426 16.4326 29.8974 16.4326C30.4193 16.4326 30.9472 16.4586 31.467 16.5107C31.8406 16.5508 32.1106 16.8812 32.07 17.2496C32.0335 17.5901 31.7431 17.8464 31.3959 17.8464C31.3736 17.8464 31.3512 17.8464 31.3289 17.8424C30.8558 17.7943 30.3726 17.7703 29.8974 17.7703C27.2944 17.7703 24.7462 18.4812 22.5289 19.8249C22.4213 19.8909 22.2995 19.925 22.1736 19.925H22.1715Z" fill="#00A3FF"/>
<path d="M17.8306 19.9269C17.7067 19.9269 17.5849 19.8929 17.4793 19.8308C15.2539 18.4811 12.7037 17.7722 10.1006 17.7722C9.6255 17.7722 9.14428 17.7963 8.67119 17.8443C8.64682 17.8463 8.62449 17.8483 8.60012 17.8483C8.25088 17.8483 7.96256 17.59 7.92601 17.2476C7.88743 16.8811 8.15951 16.5507 8.53108 16.5127C9.05088 16.4606 9.5788 16.4346 10.1006 16.4346C12.9555 16.4346 15.7514 17.2135 18.1839 18.6874C18.3382 18.7795 18.4478 18.9257 18.4905 19.0999C18.5331 19.2741 18.5067 19.4523 18.4113 19.6065C18.2874 19.8088 18.0702 19.9289 17.8306 19.9289V19.9269Z" fill="#00A3FF"/>
<path d="M22.1716 15.964C21.934 15.964 21.7188 15.8459 21.5929 15.6456C21.4975 15.4935 21.4691 15.3132 21.5097 15.139C21.5523 14.9648 21.6599 14.8166 21.8142 14.7245C24.2467 13.2507 27.0427 12.4717 29.8975 12.4717C30.4193 12.4717 30.9472 12.4977 31.467 12.5498C31.6477 12.5678 31.8102 12.6539 31.9239 12.7941C32.0376 12.9323 32.0904 13.1065 32.0721 13.2847C32.0356 13.6271 31.7452 13.8854 31.398 13.8854C31.3736 13.8854 31.3513 13.8854 31.3269 13.8814C30.8538 13.8334 30.3726 13.8094 29.8955 13.8094C27.2924 13.8094 24.7442 14.5202 22.5269 15.8639C22.4193 15.93 22.2975 15.964 22.1716 15.964Z" fill="#00A3FF"/>
<path d="M17.8284 15.964C17.7025 15.964 17.5807 15.93 17.473 15.8639C15.2558 14.5202 12.7076 13.8094 10.1045 13.8094C9.62939 13.8094 9.14817 13.8334 8.67304 13.8814C8.64867 13.8834 8.62634 13.8854 8.60197 13.8854C8.25274 13.8854 7.96238 13.6271 7.92786 13.2847C7.90959 13.1065 7.96238 12.9323 8.07609 12.7941C8.18979 12.6559 8.35223 12.5678 8.53294 12.5498C9.05274 12.4977 9.58065 12.4717 10.1025 12.4717C12.9573 12.4717 15.7532 13.2507 18.1857 14.7245C18.5045 14.9187 18.604 15.3313 18.407 15.6456C18.2832 15.8459 18.0659 15.964 17.8284 15.964Z" fill="#00A3FF"/>
</g>
<defs>
<clipPath id="clip0_2875_28756">
<rect width="34" height="24" fill="white" transform="translate(3 8)"/>
</clipPath>
</defs>
</svg>
