<svg width="80" height="80" viewBox="0 0 80 80" fill="none" xmlns="http://www.w3.org/2000/svg">
<g clip-path="url(#clip0_5478_1714)">
<path d="M80.0272 21.7914H51.0137V58.0982H80.0272V21.7914Z" fill="white"/>
<path d="M80.0271 58.1743H51.0136C50.9719 58.1743 50.9375 58.1399 50.9375 58.0982V21.7914C50.9375 21.7497 50.9719 21.7154 51.0136 21.7154H80.0271C80.0688 21.7154 80.1031 21.7497 80.1031 21.7914V58.0982C80.1031 58.1399 80.0688 58.1743 80.0271 58.1743ZM51.0896 58.0246H79.951V21.8675H51.0896V58.0246Z" fill="black"/>
<path d="M76.447 38.5645H54.5942V40.9326H76.447V38.5645Z" fill="white"/>
<path d="M76.4469 41.0086H54.5941C54.5524 41.0086 54.5181 40.9743 54.5181 40.9325V38.5644C54.5181 38.5227 54.5524 38.4884 54.5941 38.4884H76.4469C76.4886 38.4884 76.523 38.5227 76.523 38.5644V40.9325C76.523 40.9743 76.4886 41.0086 76.4469 41.0086ZM54.6702 40.8565H76.3733V38.6381H54.6702V40.8565Z" fill="black"/>
<path d="M76.447 43.6319H54.5942V46H76.447V43.6319Z" fill="white"/>
<path d="M76.4469 46.0761H54.5941C54.5524 46.0761 54.5181 46.0417 54.5181 46V43.6319C54.5181 43.5902 54.5524 43.5558 54.5941 43.5558H76.4469C76.4886 43.5558 76.523 43.5902 76.523 43.6319V46C76.523 46.0417 76.4886 46.0761 76.4469 46.0761ZM54.6702 45.9239H76.3733V43.7055H54.6702V45.9239Z" fill="black"/>
<path d="M65.5243 35.3571C68.5141 35.3571 70.9378 32.9433 70.9378 29.9657C70.9378 26.9881 68.5141 24.5742 65.5243 24.5742C62.5345 24.5742 60.1108 26.9881 60.1108 29.9657C60.1108 32.9433 62.5345 35.3571 65.5243 35.3571Z" fill="white"/>
<path d="M65.5242 35.4331C62.4985 35.4331 60.0347 32.9816 60.0347 29.9681C60.0347 26.9546 62.496 24.5031 65.5242 24.5031C68.5525 24.5031 71.0138 26.9546 71.0138 29.9681C71.0138 32.9816 68.5525 35.4331 65.5242 35.4331ZM65.5242 24.6528C62.5819 24.6528 60.1868 27.0381 60.1868 29.9681C60.1868 32.8982 62.5819 35.2835 65.5242 35.2835C68.4666 35.2835 70.8617 32.8982 70.8617 29.9681C70.8617 27.0381 68.4666 24.6528 65.5242 24.6528Z" fill="black"/>
<mask id="mask0_5478_1714" style="mask-type:luminance" maskUnits="userSpaceOnUse" x="60" y="25" width="11" height="10">
<path d="M65.5243 34.6871C68.1427 34.6871 70.2654 32.5733 70.2654 29.9657C70.2654 27.3581 68.1427 25.2442 65.5243 25.2442C62.9059 25.2442 60.7832 27.3581 60.7832 29.9657C60.7832 32.5733 62.9059 34.6871 65.5243 34.6871Z" fill="white"/>
</mask>
<g mask="url(#mask0_5478_1714)">
<path d="M70.2877 36.7951H60.7564C60.7343 36.7951 60.7122 36.7853 60.6975 36.7681C60.6827 36.7509 60.6778 36.7289 60.6803 36.7068L61.2619 33.6442C61.4778 32.9031 62.0742 32.3411 62.8202 32.1694L64.2877 31.8332V29.9755C64.2877 29.9338 64.322 29.8994 64.3637 29.8994H66.6754C66.7171 29.8994 66.7515 29.9338 66.7515 29.9755V31.8332L68.2189 32.1694C68.9674 32.3411 69.5637 32.9031 69.7772 33.6368C69.7772 33.6368 69.7772 33.6417 69.7772 33.6442L70.3588 36.7068C70.3637 36.7289 70.3588 36.7509 70.3416 36.7681C70.3269 36.7853 70.3048 36.7951 70.2827 36.7951H70.2877ZM60.8496 36.6454H70.1969L69.6324 33.6761C69.4337 32.9963 68.8815 32.4761 68.187 32.3166L66.6607 31.9657C66.6263 31.9583 66.6018 31.9264 66.6018 31.8921V30.0491H64.4398V31.8921C64.4398 31.9264 64.4153 31.9583 64.3809 31.9657L62.8545 32.3166C62.16 32.4761 61.6054 32.9988 61.4091 33.6786L60.8447 36.643L60.8496 36.6454Z" fill="black"/>
<path d="M67.4411 28.5178C67.3576 28.4982 67.2742 28.5055 67.1957 28.535C67.1294 27.4798 66.4055 26.7632 65.5245 26.7632C64.6435 26.7632 63.9196 27.4798 63.8533 28.535C63.7748 28.5055 63.6914 28.4982 63.6079 28.5178C63.3601 28.5792 63.2178 28.8638 63.2914 29.1559C63.365 29.4479 63.6227 29.6319 63.8705 29.5706C63.9098 29.5608 63.9466 29.5436 63.981 29.524C64.2362 30.3043 64.8325 30.9006 65.5245 30.9006C66.2165 30.9006 66.8128 30.3043 67.0681 29.524C67.1024 29.5436 67.1392 29.5608 67.1785 29.5706C67.4264 29.6319 67.6865 29.4454 67.7576 29.1559C67.8313 28.8638 67.6889 28.5792 67.4411 28.5178Z" fill="white"/>
<path d="M65.5246 30.9743C64.8596 30.9743 64.2289 30.4368 63.9369 29.627C63.9197 29.6319 63.905 29.6393 63.8878 29.6417C63.6007 29.7129 63.2988 29.5019 63.2154 29.1706C63.1712 28.9964 63.1958 28.8148 63.2817 28.6724C63.3528 28.5546 63.4608 28.4712 63.5884 28.4417C63.6522 28.427 63.7185 28.4246 63.7847 28.4344C63.8878 27.416 64.6068 26.6847 65.5246 26.6847C66.4424 26.6847 67.1614 27.416 67.2645 28.4344C67.3307 28.4221 67.397 28.4246 67.4608 28.4417C67.5859 28.4737 67.6964 28.5546 67.7675 28.6724C67.8534 28.8148 67.878 28.9964 67.8338 29.1706C67.7504 29.5019 67.451 29.7129 67.1614 29.6417C67.1442 29.6368 67.1295 29.6319 67.1123 29.627C66.8179 30.4368 66.1896 30.9743 65.5246 30.9743ZM63.9786 29.4479C63.9786 29.4479 63.9958 29.4479 64.0056 29.4528C64.0277 29.4602 64.0448 29.4773 64.0522 29.4994C64.3123 30.2921 64.9037 30.8221 65.5246 30.8221C66.1455 30.8221 66.7369 30.2896 66.997 29.4994C67.0044 29.4773 67.0215 29.4602 67.0436 29.4528C67.0657 29.4454 67.0902 29.4479 67.1099 29.4602C67.1393 29.4773 67.1688 29.4896 67.1982 29.497C67.4043 29.5485 67.6252 29.3865 67.6866 29.1362C67.7209 29.0013 67.7013 28.8614 67.6375 28.7534C67.5859 28.67 67.5123 28.6111 67.424 28.5914C67.3602 28.5743 67.289 28.5816 67.2228 28.6062C67.2007 28.6135 67.1761 28.6111 67.154 28.5988C67.1344 28.5865 67.1221 28.5644 67.1197 28.5399C67.0583 27.5559 66.3859 26.8393 65.5221 26.8393C64.6583 26.8393 63.9884 27.5534 63.9246 28.5399C63.9246 28.5644 63.9099 28.5865 63.8902 28.5988C63.8706 28.6111 63.8461 28.6135 63.8215 28.6062C63.7553 28.5816 63.6866 28.5767 63.6203 28.5914C63.5344 28.6135 63.4583 28.67 63.4068 28.7534C63.343 28.8614 63.3234 29.0013 63.3577 29.1362C63.4191 29.3865 63.6399 29.5485 63.8461 29.497C63.8755 29.4896 63.905 29.4773 63.9369 29.4577C63.9491 29.4503 63.9614 29.4479 63.9761 29.4479H63.9786Z" fill="black"/>
<path d="M65.5244 30.9743C64.8373 30.9743 64.187 30.4 63.9072 29.5461C63.8949 29.5068 63.917 29.4626 63.9563 29.4504C63.9955 29.4381 64.0397 29.4602 64.052 29.4994C64.3121 30.2921 64.9035 30.8221 65.5244 30.8221C66.1452 30.8221 66.7366 30.2896 66.9968 29.4994C67.009 29.4602 67.0532 29.4381 67.0925 29.4504C67.1317 29.4626 67.1538 29.5068 67.1416 29.5461C66.8618 30.4 66.2115 30.9743 65.5244 30.9743Z" fill="black"/>
<path d="M66.0911 25.9534C64.658 25.7129 62.9917 26.0098 63.696 28.2602L63.8801 28.8L64.1721 28.9988C64.1721 28.9988 64.0887 27.5166 64.5549 27.4405C64.9966 27.3669 65.0236 27.6589 65.5537 27.6442C66.0838 27.6589 66.1108 27.3669 66.5525 27.4405C67.0187 27.5166 66.9377 28.9988 66.9377 28.9988L67.2298 28.8L67.4138 28.2602C67.8801 26.5129 67.1341 25.8258 66.0936 25.9534H66.0911Z" fill="white"/>
<path d="M64.1722 29.0724C64.1575 29.0724 64.1427 29.0675 64.1305 29.0602L63.8385 28.8614C63.8237 28.8516 63.8139 28.8393 63.809 28.8221L63.625 28.2823C63.355 27.4209 63.4066 26.7706 63.7747 26.3461C64.3391 25.6982 65.463 25.7718 66.0912 25.8773C66.6016 25.816 67.0311 25.951 67.2986 26.2602C67.5513 26.5497 67.7869 27.1338 67.4826 28.2798L67.2986 28.8246C67.2937 28.8393 67.2839 28.854 67.2691 28.8638L66.9771 29.0626C66.9526 29.0798 66.9231 29.0798 66.8986 29.0651C66.874 29.0504 66.8593 29.0234 66.8593 28.9964C66.8888 28.4491 66.8299 27.5632 66.5378 27.5166C66.3391 27.4847 66.2385 27.5313 66.1108 27.5927C65.9783 27.6565 65.8286 27.7301 65.5489 27.7227C65.274 27.7301 65.1243 27.6565 64.9918 27.5927C64.8642 27.5313 64.7661 27.4823 64.5648 27.5166C64.2728 27.5657 64.2139 28.4491 64.2434 28.9964C64.2434 29.0258 64.2311 29.0528 64.2041 29.0651C64.1918 29.0724 64.1796 29.0749 64.1673 29.0749L64.1722 29.0724ZM63.9415 28.751L64.0888 28.8516C64.0789 28.4491 64.101 27.4356 64.5403 27.3645C64.7881 27.3227 64.9256 27.389 65.0581 27.4528C65.1808 27.5117 65.3059 27.573 65.5489 27.5681C65.7943 27.5755 65.9219 27.5142 66.0446 27.4528C66.1771 27.389 66.3145 27.3227 66.5624 27.3645C67.0016 27.4381 67.0237 28.4491 67.0139 28.8516L67.1612 28.751L67.3354 28.2356C67.5612 27.3865 67.5096 26.7362 67.1808 26.3608C66.9403 26.0859 66.5648 25.9706 66.0937 26.0295C66.0863 26.0295 66.0789 26.0295 66.0716 26.0295C65.0581 25.8602 64.2605 26.0123 63.8826 26.4467C63.5513 26.8295 63.5096 27.4307 63.7624 28.2381L63.9366 28.751H63.9415Z" fill="black"/>
</g>
<path d="M46.4592 67.0454H29.0678C29.0261 67.0454 28.9917 67.0111 28.9917 66.9693V48.27C28.9917 48.2282 29.0261 48.1939 29.0678 48.1939H38.685C38.7267 48.1939 38.761 48.2282 38.761 48.27C38.761 48.3117 38.7267 48.346 38.685 48.346H29.1438V66.8933H46.4592C46.5009 66.8933 46.5353 66.9276 46.5353 66.9693C46.5353 67.0111 46.5009 67.0454 46.4592 67.0454Z" fill="black"/>
<path d="M74.0664 67.2368L60.7069 67.0454C60.6652 67.0454 60.6309 67.011 60.6309 66.9693C60.6309 66.9276 60.6652 66.8932 60.7069 66.8932L74.0664 67.0847C74.1082 67.0847 74.1425 67.119 74.1425 67.1607C74.1425 67.2025 74.1082 67.2368 74.0664 67.2368Z" fill="black"/>
<path d="M38.6482 72.0319H8.00039C7.95867 72.0319 7.92432 71.9976 7.92432 71.9558C7.92432 71.9141 7.95867 71.8798 8.00039 71.8798H38.6482C38.69 71.8798 38.7243 71.9141 38.7243 71.9558C38.7243 71.9976 38.69 72.0319 38.6482 72.0319Z" fill="black"/>
<path d="M31.9803 43.0405H58.8613L58.8613 9.40123H31.9803L31.9803 43.0405Z" fill="#F500A3"/>
<path d="M58.8638 43.1166H31.9828C31.9411 43.1166 31.9067 43.0822 31.9067 43.0405V9.40124C31.9067 9.35952 31.9411 9.32516 31.9828 9.32516H58.8638C58.9055 9.32516 58.9399 9.35952 58.9399 9.40124V43.0405C58.9399 43.0822 58.9055 43.1166 58.8638 43.1166ZM32.0589 42.9644H58.7877V9.47731H32.0589V42.9669V42.9644Z" fill="#E2E9FC"/>
<path d="M35.298 27.1362L55.5459 27.1362V24.9423L35.298 24.9423V27.1362Z" fill="black"/>
<path d="M35.298 31.8282L55.5459 31.8282V29.6344L35.298 29.6344V31.8282Z" fill="black"/>
<path d="M45.4207 21.9681C48.191 21.9681 50.4367 19.7323 50.4367 16.9742C50.4367 14.2162 48.191 11.9804 45.4207 11.9804C42.6505 11.9804 40.4048 14.2162 40.4048 16.9742C40.4048 19.7323 42.6505 21.9681 45.4207 21.9681Z" fill="black"/>
<mask id="mask1_5478_1714" style="mask-type:luminance" maskUnits="userSpaceOnUse" x="41" y="12" width="9" height="10">
<path d="M45.421 21.3497C47.8469 21.3497 49.8136 19.3907 49.8136 16.9742C49.8136 14.5577 47.8469 12.5988 45.421 12.5988C42.995 12.5988 41.0283 14.5577 41.0283 16.9742C41.0283 19.3907 42.995 21.3497 45.421 21.3497Z" fill="white"/>
</mask>
<g mask="url(#mask1_5478_1714)">
<path d="M42.9352 19.0847L45.4186 18.5154L47.9021 19.0847C48.5696 19.2369 49.1021 19.7399 49.2935 20.3951L49.8334 23.2319H41.0039L41.5438 20.3951C41.7352 19.7399 42.2677 19.2369 42.9352 19.0847Z" fill="white"/>
<path d="M45.421 20.0467C46.0124 20.0467 46.4934 19.5681 46.4934 18.9743V16.9816H44.3511V18.9743C44.3511 19.5657 44.8296 20.0467 45.4235 20.0467H45.421Z" fill="white"/>
<path d="M43.6443 15.6319C43.7203 15.6123 43.7989 15.6196 43.8725 15.6466C43.9338 14.6699 44.6038 14.0049 45.4209 14.0049C46.2381 14.0049 46.9081 14.6675 46.9694 15.6466C47.043 15.6196 47.1216 15.6123 47.1976 15.6319C47.4283 15.6883 47.5584 15.9534 47.4921 16.2233C47.4259 16.4933 47.1854 16.665 46.9547 16.6086C46.9179 16.5988 46.8835 16.5841 46.8516 16.5644C46.616 17.2859 46.0639 17.838 45.4209 17.838C44.778 17.838 44.2259 17.2859 43.9903 16.5644C43.9584 16.5841 43.924 16.5988 43.8872 16.6086C43.6565 16.665 43.416 16.4933 43.3498 16.2233C43.2835 15.9534 43.4136 15.6883 43.6443 15.6319Z" fill="white"/>
<path d="M45.4212 17.9141C44.7832 17.9141 44.1795 17.3816 43.9194 16.5865C43.9071 16.5473 43.9292 16.5031 43.9685 16.4908C44.0078 16.4785 44.0519 16.5006 44.0642 16.5399C44.3047 17.2712 44.8495 17.762 45.4237 17.762C45.9979 17.762 46.5427 17.2712 46.7832 16.5399C46.7955 16.5006 46.8397 16.4785 46.8789 16.4908C46.9182 16.5031 46.9403 16.5473 46.928 16.5865C46.6679 17.3792 46.0642 17.9141 45.4262 17.9141H45.4212Z" fill="#E2E9FC"/>
<path d="M44.8959 13.2564C46.2235 13.0356 47.767 13.3104 47.1143 15.3939L46.9449 15.8945L46.675 16.0785C46.675 16.0785 46.7511 14.7043 46.3192 14.6331C45.9118 14.5644 45.8848 14.8344 45.394 14.8221C44.9032 14.8344 44.8787 14.5644 44.4689 14.6331C44.037 14.7043 44.113 16.0785 44.113 16.0785L43.8431 15.8945L43.6738 15.3939C43.2419 13.7742 43.9339 13.1387 44.8983 13.2564H44.8959Z" fill="black"/>
<path d="M44.1131 16.1522C44.0984 16.1522 44.0837 16.1473 44.0714 16.1399L43.8015 15.9558C43.7868 15.946 43.7769 15.9338 43.772 15.9166L43.6027 15.416C43.318 14.3485 43.5389 13.8037 43.772 13.5362C44.0223 13.2491 44.4199 13.1239 44.896 13.1804C45.48 13.0847 46.5229 13.016 47.0481 13.6172C47.3917 14.0123 47.4383 14.616 47.188 15.416L47.0187 15.9166C47.0137 15.9313 47.0039 15.946 46.9892 15.9558L46.7193 16.1399C46.6947 16.1571 46.6653 16.1571 46.6407 16.1423C46.6162 16.1276 46.6015 16.1006 46.6015 16.0736C46.6309 15.5313 46.5598 14.7485 46.3095 14.7068C46.1254 14.6773 46.0346 14.7215 45.9168 14.7779C45.7941 14.8368 45.6542 14.9055 45.3941 14.8982C45.1364 14.9055 44.999 14.8368 44.8763 14.7779C44.761 14.7215 44.6677 14.6773 44.4837 14.7068C44.2309 14.7485 44.1598 15.5313 44.1917 16.0736C44.1917 16.1031 44.1794 16.1301 44.1524 16.1423C44.1401 16.1497 44.1279 16.1522 44.1156 16.1522H44.1131ZM43.9045 15.8454L44.0321 15.9313C44.0223 15.5289 44.0469 14.6258 44.4567 14.5571C44.6874 14.5178 44.815 14.5816 44.9401 14.6405C45.053 14.6945 45.1708 14.7509 45.3941 14.746C45.6223 14.7509 45.7377 14.6945 45.8506 14.6405C45.9733 14.5816 46.1009 14.5178 46.334 14.5571C46.7438 14.6258 46.7683 15.5264 46.7585 15.9313L46.8861 15.8454L47.0481 15.3693C47.2812 14.6258 47.2444 14.0687 46.9377 13.7178C46.5868 13.3154 45.8506 13.1755 44.9131 13.3325C44.9058 13.3325 44.8984 13.3325 44.891 13.3325C44.4567 13.2785 44.1107 13.3841 43.8898 13.6368C43.588 13.9828 43.5389 14.5841 43.7499 15.3743L43.9094 15.8454H43.9045Z" fill="white"/>
</g>
<path d="M62.8274 32.9521H40.2139V61.2515H62.8274V32.9521Z" fill="white"/>
<path d="M62.8273 61.3252H40.2138C40.1721 61.3252 40.1377 61.2908 40.1377 61.2491V32.9497C40.1377 32.908 40.1721 32.8736 40.2138 32.8736H62.8273C62.869 32.8736 62.9033 32.908 62.9033 32.9497V61.2491C62.9033 61.2908 62.869 61.3252 62.8273 61.3252ZM40.2898 61.1755H62.7512V33.0258H40.2898V61.1755Z" fill="black"/>
<path d="M60.0394 46.5227V48.3681H43.0063V46.5227H60.0394ZM60.2136 46.346H42.8296V48.5423H60.2136V46.346Z" fill="black"/>
<path d="M60.0394 50.4712V52.3166H43.0063V50.4712H60.0394ZM60.2136 50.2969H42.8296V52.4933H60.2136V50.2969Z" fill="black"/>
<path d="M51.4848 43.9509C53.7943 43.9509 55.6664 42.0865 55.6664 39.7865C55.6664 37.4866 53.7943 35.6221 51.4848 35.6221C49.1754 35.6221 47.3032 37.4866 47.3032 39.7865C47.3032 42.0865 49.1754 43.9509 51.4848 43.9509Z" fill="black"/>
<mask id="mask2_5478_1714" style="mask-type:luminance" maskUnits="userSpaceOnUse" x="47" y="36" width="9" height="8">
<path d="M51.4846 43.4331C53.5067 43.4331 55.1459 41.8005 55.1459 39.7865C55.1459 37.7725 53.5067 36.1399 51.4846 36.1399C49.4625 36.1399 47.8232 37.7725 47.8232 39.7865C47.8232 41.8005 49.4625 43.4331 51.4846 43.4331Z" fill="white"/>
</mask>
<g mask="url(#mask2_5478_1714)">
<path d="M53.7743 43.8062H49.1952C49.1755 43.8062 49.1559 43.7988 49.1412 43.7816C49.1265 43.7644 49.1191 43.7473 49.1216 43.7252L49.3498 39.1927C49.4234 37.7399 50.3608 36.6037 51.4872 36.6037C52.6136 36.6037 53.551 37.7423 53.6246 39.1927L53.8528 43.7252C53.8528 43.7448 53.8455 43.7669 53.8332 43.7816C53.8185 43.7963 53.7989 43.8062 53.7792 43.8062H53.7743ZM49.2762 43.654H53.6958L53.4725 39.2C53.4038 37.8282 52.5301 36.7534 51.4872 36.7534C50.4443 36.7534 49.5706 37.8282 49.5019 39.2L49.2786 43.654H49.2762Z" fill="white"/>
<path d="M53.5559 41.546L51.4847 41.0699L49.4135 41.546C48.8565 41.6736 48.4123 42.0933 48.2528 42.638L47.8037 45.0037H55.1657L54.7166 42.638C54.5571 42.0908 54.1129 41.6736 53.5559 41.546Z" fill="white"/>
<path d="M51.4846 42.3485C50.9913 42.3485 50.5913 41.9485 50.5913 41.4552V39.7939H52.3778V41.4552C52.3778 41.9485 51.9778 42.3485 51.4846 42.3485Z" fill="white"/>
<path d="M52.982 38.6405C52.9182 38.6233 52.852 38.6307 52.7906 38.6528C52.7391 37.8307 52.1747 37.2712 51.4875 37.2712C50.8004 37.2712 50.236 37.8282 50.1845 38.6528C50.1231 38.6307 50.0569 38.6233 49.9931 38.6405C49.7992 38.6871 49.6888 38.9104 49.7452 39.1387C49.8017 39.3644 50.0053 39.5117 50.1968 39.4626C50.2287 39.4552 50.2556 39.443 50.2826 39.4258C50.4814 40.0344 50.9452 40.4982 51.4875 40.4982C52.0299 40.4982 52.4937 40.0319 52.6925 39.4258C52.7194 39.443 52.7464 39.4552 52.7783 39.4626C52.9722 39.5092 53.1734 39.3644 53.2299 39.1387C53.2863 38.9129 53.1759 38.6896 52.982 38.6405Z" fill="white"/>
<path d="M51.4849 40.5742C50.9646 40.5742 50.4689 40.1571 50.2358 39.5288C50.2284 39.5313 50.2186 39.5338 50.2112 39.5362C49.9781 39.5951 49.7352 39.4233 49.6665 39.1583C49.6321 39.0184 49.6517 38.8736 49.7204 38.7583C49.7793 38.6626 49.8677 38.5963 49.9683 38.5693C50.0149 38.5571 50.064 38.5546 50.1106 38.562C50.199 37.7669 50.7634 37.2 51.4824 37.2C52.2014 37.2 52.7658 37.7669 52.8542 38.562C52.9033 38.5546 52.9499 38.5595 52.9965 38.5693C53.0996 38.5939 53.1879 38.6626 53.2444 38.7583C53.3131 38.8736 53.3327 39.0184 53.2984 39.1583C53.2321 39.4258 52.9867 39.5951 52.7536 39.5362C52.7462 39.5362 52.7364 39.5313 52.729 39.5288C52.4959 40.1571 52.0027 40.5742 51.48 40.5742H51.4849ZM50.28 39.3497C50.28 39.3497 50.2971 39.3497 50.307 39.3546C50.329 39.362 50.3462 39.3792 50.3536 39.4012C50.5524 40.0123 51.0088 40.4221 51.4873 40.4221C51.9658 40.4221 52.4198 40.0123 52.6211 39.4012C52.6284 39.3792 52.6456 39.362 52.6677 39.3546C52.6898 39.3473 52.7143 39.3497 52.7339 39.362C52.756 39.3742 52.7781 39.3841 52.8002 39.389C52.9524 39.4258 53.1143 39.3055 53.1609 39.119C53.1855 39.0184 53.1732 38.9129 53.1241 38.8319C53.0873 38.7706 53.0333 38.7288 52.9695 38.7117C52.9229 38.6994 52.8714 38.7043 52.8223 38.7215C52.8002 38.7288 52.7757 38.7264 52.7536 38.7141C52.7339 38.7019 52.7217 38.6798 52.7192 38.6552C52.6726 37.8969 52.1548 37.3448 51.4898 37.3448C50.8247 37.3448 50.3094 37.8969 50.2603 38.6552C50.2603 38.6798 50.2456 38.7019 50.226 38.7141C50.2063 38.7264 50.1818 38.7288 50.1573 38.7215C50.1082 38.7019 50.0566 38.6994 50.01 38.7117C49.9462 38.7264 49.8922 38.7681 49.8554 38.8319C49.8063 38.9129 49.7941 39.016 49.8186 39.119C49.8652 39.3055 50.0272 39.4258 50.1793 39.389C50.2014 39.3841 50.2235 39.3742 50.2456 39.362C50.2579 39.3546 50.2701 39.3522 50.2849 39.3522L50.28 39.3497Z" fill="black"/>
<path d="M50.1598 38.8614C50.8125 38.7387 51.4923 38.162 51.8996 37.6393C51.9806 38.1031 52.3904 38.643 52.8223 38.8319C52.8223 38.8319 53.0285 36.989 51.4849 37.0503C49.9438 37.1092 50.1598 38.8614 50.1598 38.8614Z" fill="black"/>
</g>
<path d="M54.9155 61.1632H62.8542V55.0282C62.8542 55.0282 63.7793 54.3804 64.2529 55.2442C64.2529 55.2442 65.4775 54.1521 66.0542 55.2908C66.4689 56.1129 66.5106 59.2663 66.464 61.4405C66.4394 62.5644 65.7008 63.546 64.6235 63.8847L60.756 65.1043C60.118 65.3055 59.6861 65.8945 59.6861 66.5595V72.054H47.8627C47.8627 72.054 47.4676 65.8969 47.9584 61.7963C48.1548 60.162 49.3425 58.8147 50.9425 58.4025C52.2235 58.0712 53.637 57.6638 54.037 57.3865C54.8149 56.8491 55.3081 56.3558 55.6836 55.2295C56.0591 54.1031 57.5413 54.3018 57.767 55.5681C57.9903 56.8368 56.1155 59.9018 54.918 61.1632H54.9155Z" fill="white"/>
<path d="M47.8628 72.1301C47.8235 72.1301 47.7892 72.0982 47.7867 72.0589C47.7818 71.9975 47.3966 65.8478 47.8824 61.789C48.0788 60.1399 49.3009 58.7485 50.9229 58.3288C52.6137 57.892 53.6763 57.5436 53.9929 57.3227C54.7782 56.7804 55.2444 56.3018 55.6101 55.2049C55.7843 54.6822 56.2064 54.3804 56.7094 54.4172C57.1782 54.4515 57.7082 54.8172 57.8383 55.5558C58.069 56.8687 56.2235 59.8258 55.0874 61.0896H62.7782V55.0307C62.7782 55.0061 62.7904 54.984 62.8101 54.9693C62.8297 54.9546 63.291 54.638 63.7499 54.7436C63.961 54.7926 64.1352 54.9227 64.2702 55.1313C64.4567 54.984 64.9769 54.6209 65.4702 54.7141C65.745 54.7656 65.9634 54.9497 66.1205 55.2589C66.6113 56.2307 66.5647 60.2405 66.5401 61.4454C66.5156 62.6012 65.7548 63.6098 64.6481 63.9583L60.7806 65.1779C60.172 65.3693 59.7622 65.9264 59.7622 66.562V72.0564C59.7622 72.0982 59.7278 72.1325 59.6861 72.1325C59.6444 72.1325 59.6101 72.0982 59.6101 72.0564V66.562C59.6101 65.8601 60.0616 65.2466 60.734 65.0356L64.6015 63.8159C65.6469 63.4871 66.3634 62.5325 66.388 61.4429C66.442 58.9767 66.3634 56.0761 65.9855 55.3301C65.8505 55.065 65.6689 54.908 65.4432 54.8638C64.9156 54.7632 64.3094 55.2982 64.3021 55.3055C64.2849 55.3202 64.2604 55.3276 64.2383 55.3227C64.2162 55.3178 64.1966 55.3055 64.1843 55.2834C64.0665 55.0675 63.9094 54.9374 63.7156 54.8908C63.3843 54.8123 63.0334 55.0061 62.9278 55.0724V61.1656C62.9278 61.2074 62.8935 61.2417 62.8518 61.2417H54.9131C54.8837 61.2417 54.8567 61.2245 54.8444 61.1951C54.8321 61.1681 54.8395 61.1362 54.8591 61.1141C56.1254 59.7791 57.8972 56.7705 57.6886 55.5853C57.5732 54.9276 57.107 54.6012 56.6972 54.5718C56.3585 54.5472 55.934 54.7141 55.7524 55.2564C55.3745 56.3877 54.8739 56.9006 54.0788 57.4503C53.7426 57.6834 52.6923 58.0294 50.9597 58.4785C49.399 58.8834 48.2211 60.2209 48.0297 61.8086C47.5463 65.8552 47.9315 71.9902 47.9364 72.0515C47.9389 72.0932 47.907 72.1301 47.8653 72.1325C47.8653 72.1325 47.8628 72.1325 47.8604 72.1325L47.8628 72.1301Z" fill="black"/>
<path d="M61.3819 62.4785C61.35 62.4785 61.3206 62.4589 61.3108 62.427C61.2985 62.3877 61.3181 62.3436 61.3574 62.3313L63.5439 61.5877C63.9218 61.4577 64.177 61.1043 64.177 60.7067V55.2442C64.177 55.2024 64.2114 55.1681 64.2531 55.1681C64.2948 55.1681 64.3292 55.2024 64.3292 55.2442V60.7067C64.3292 61.1705 64.0322 61.5828 63.593 61.7325L61.4065 62.4761C61.4065 62.4761 61.3893 62.481 61.3819 62.481V62.4785Z" fill="black"/>
<path d="M10.1155 43.1461C10.1155 43.1461 8.1032 50.8761 6.8075 53.8332C5.81854 56.0908 2.1032 61.6761 0.405043 64.1865C-0.0955702 64.9252 -0.0194966 65.9092 0.586638 66.562L3.95842 70.1939C5.00136 71.3178 6.46639 71.9559 7.99768 71.9559H8.94247C9.39891 71.9559 9.68112 71.4602 9.44799 71.0675L8.48112 69.4356C8.48112 69.4356 15.1928 57.7326 16.1081 55.0626C17.0234 52.3927 16.41 42.3436 16.41 42.3436L10.1106 43.1436L10.1155 43.1461Z" fill="white"/>
<path d="M8.945 72.0319H8.00022C6.45175 72.0319 4.95973 71.3816 3.90451 70.2454L0.532732 66.6135C-0.100397 65.9313 -0.178925 64.9154 0.343775 64.1448C1.93396 61.7939 5.745 56.0761 6.73887 53.8037C8.01494 50.8884 10.0223 43.2049 10.0419 43.1289C10.0493 43.0994 10.0738 43.0773 10.1057 43.0724L16.4051 42.2724C16.4248 42.27 16.4468 42.2749 16.4616 42.2896C16.4787 42.3019 16.4886 42.3215 16.4886 42.3436C16.5131 42.7534 17.0922 52.4393 16.1843 55.0921C15.3033 57.6614 8.99654 68.6994 8.572 69.4405L9.51678 71.0356C9.63948 71.2442 9.64193 71.4921 9.52169 71.7031C9.40144 71.9141 9.18549 72.0393 8.945 72.0393V72.0319ZM10.1744 43.2148C10.0002 43.8822 8.10328 51.0602 6.87629 53.8626C5.87506 56.1473 2.06157 61.8724 0.468928 64.2283C-0.0145074 64.9424 0.0591122 65.8798 0.645615 66.5105L4.01739 70.1424C5.04316 71.2467 6.49592 71.8798 8.00267 71.8798H8.94746C9.13396 71.8798 9.30083 71.7841 9.39408 71.6197C9.48733 71.4577 9.48488 71.2638 9.38917 71.1043L8.4223 69.4724C8.40758 69.4479 8.40758 69.4209 8.4223 69.3963C8.48856 69.2786 15.1413 57.6687 16.0444 55.0356C16.9008 52.5375 16.4002 43.3841 16.3462 42.427L10.1794 43.2098L10.1744 43.2148Z" fill="black"/>
<path d="M7.90202 69.1853C7.88975 69.1853 7.87502 69.1829 7.86521 69.1755C5.32778 67.708 3.05539 65.8503 1.10938 63.6589C1.08238 63.627 1.08484 63.5804 1.11674 63.5534C1.14864 63.5264 1.19527 63.5289 1.22226 63.5608C3.15846 65.7424 5.41858 67.5878 7.94128 69.0479C7.97809 69.07 7.99036 69.1141 7.96827 69.151C7.95355 69.1755 7.92901 69.1878 7.90202 69.1878V69.1853Z" fill="black"/>
<path d="M10.982 64.589C10.982 64.589 10.9648 64.589 10.955 64.5841C8.11577 63.4994 5.51209 61.7571 3.42129 59.5509C3.39184 59.5215 3.39429 59.4724 3.42374 59.4454C3.45319 59.416 3.50227 59.4184 3.52926 59.4479C5.60288 61.6393 8.18939 63.3669 11.0066 64.4442C11.0458 64.4589 11.0655 64.5031 11.0507 64.5424C11.0385 64.5718 11.0115 64.5914 10.9796 64.5914L10.982 64.589Z" fill="black"/>
<path d="M13.8481 43.5338L15.8776 70.7166C15.9291 71.416 16.5107 71.9558 17.2126 71.9558H27.35C27.7181 71.9558 27.8825 71.492 27.5954 71.2589L25.3917 69.4871L22.2751 41.4798L13.8506 43.5313L13.8481 43.5338Z" fill="white"/>
<path d="M27.35 72.0319H17.2126C16.4764 72.0319 15.858 71.4577 15.804 70.7239L13.7746 43.5411C13.7721 43.5043 13.7967 43.47 13.831 43.4626L22.2556 41.4111C22.2777 41.4062 22.2997 41.4111 22.3169 41.4233C22.3341 41.4356 22.3464 41.4552 22.3488 41.4773L25.4629 69.4528L27.6421 71.2049C27.7991 71.3301 27.8556 71.5338 27.7893 71.7227C27.723 71.9117 27.5488 72.0344 27.35 72.0344V72.0319ZM13.9267 43.5927L15.9513 70.7117C16.0003 71.3669 16.5525 71.8798 17.2102 71.8798H27.3476C27.512 71.8798 27.6102 71.7718 27.6445 71.6687C27.6813 71.5657 27.674 71.4209 27.5439 71.3178L25.3402 69.546C25.3255 69.5338 25.3157 69.5166 25.3132 69.4945L22.204 41.573L13.9243 43.5902L13.9267 43.5927Z" fill="black"/>
<path d="M16.2777 70.0123C16.236 70.0123 16.2041 69.9804 16.2017 69.9387C16.2017 69.8969 16.2336 69.8626 16.2753 69.8626C19.2741 69.7939 22.3121 69.6368 25.3035 69.4012C25.3452 69.3988 25.382 69.4282 25.3845 69.4699C25.3869 69.5117 25.3575 69.5485 25.3158 69.5509C22.3219 69.789 19.2814 69.9436 16.2802 70.0123H16.2777Z" fill="black"/>
<path d="M17.8136 65.8184C17.1363 65.8184 16.459 65.8012 15.7842 65.7669C15.7425 65.7669 15.7106 65.7301 15.713 65.6884C15.713 65.6466 15.7523 65.6147 15.7916 65.6172C18.7756 65.7718 21.7793 65.5828 24.7192 65.0601C24.7609 65.0528 24.8001 65.0798 24.8075 65.1215C24.8149 65.1632 24.7879 65.2025 24.7462 65.2098C22.459 65.6172 20.1351 65.8209 17.8136 65.8209V65.8184Z" fill="black"/>
<path d="M14.1669 27.5657C14.1669 27.5657 10.9522 27.8184 9.49208 29.838C8.03195 31.8577 6.23318 33.6834 7.53625 35.7522C8.54974 37.362 11.7326 39.2 11.7326 39.2L13.0823 35.7522L11.4086 34.0614L14.1669 27.5632V27.5657Z" fill="white"/>
<path d="M11.7326 39.2761C11.7203 39.2761 11.7056 39.2736 11.6958 39.2663C11.5657 39.1902 8.48596 37.3988 7.47492 35.7939C6.31173 33.946 7.55099 32.3043 8.86142 30.5644C9.05038 30.3141 9.2467 30.054 9.4332 29.7939C10.8958 27.7693 14.1301 27.492 14.162 27.4896C14.189 27.4896 14.2136 27.4994 14.2283 27.5215C14.243 27.5436 14.2479 27.5706 14.2357 27.5951L11.497 34.0466L13.1338 35.7006C13.1559 35.7227 13.1608 35.7546 13.151 35.7816L11.8013 39.2295C11.7939 39.2491 11.7768 39.2663 11.7547 39.2736C11.7473 39.2761 11.7375 39.2786 11.7301 39.2786L11.7326 39.2761ZM14.0467 27.654C13.443 27.7276 10.8123 28.1399 9.55345 29.8822C9.36449 30.1424 9.16817 30.4025 8.97921 30.6552C7.70068 32.3509 6.49332 33.9534 7.60007 35.7129C8.50559 37.1509 11.205 38.8 11.6933 39.092L12.9939 35.7718L11.3547 34.1154C11.3326 34.0933 11.3277 34.0614 11.3399 34.0319L14.0492 27.6516L14.0467 27.654Z" fill="black"/>
<path d="M14.1671 27.5657C14.1671 27.5657 17.8799 27.0479 20.864 27.9632L23.4211 49.0258C23.4211 49.0258 20.8517 49.7914 20.7118 46.643C20.7118 46.643 19.8775 49.8847 14.41 49.5019C8.94252 49.119 8.34375 48.0712 8.34375 48.0712L14.1646 27.5608L14.1671 27.5657Z" fill="#6E00BE"/>
<path d="M20.8637 27.9632C18.7877 31.9313 19.0748 34.9203 19.8895 35.1534C20.7042 35.389 21.4821 34.0614 21.4821 34.0614C21.7398 34.2601 22.1251 34.4957 22.5913 34.7141C23.8895 33.2466 24.2895 30.9816 24.4098 29.9313C22.8343 28.7313 20.8637 27.9632 20.8637 27.9632Z" fill="white"/>
<path d="M22.5911 34.7902C22.5911 34.7902 22.569 34.7902 22.5592 34.7828C22.2206 34.6233 21.904 34.4491 21.6463 34.2724C21.612 34.2479 21.6022 34.2012 21.6267 34.1669C21.6488 34.1325 21.6979 34.1227 21.7322 34.1473C21.9703 34.3092 22.2598 34.4712 22.574 34.6209C23.8304 33.1657 24.2181 30.9154 24.331 29.9657C22.7875 28.8 20.8586 28.0417 20.839 28.0344C20.7997 28.0196 20.7801 27.9755 20.7973 27.9362C20.812 27.8969 20.8562 27.8773 20.8954 27.8945C20.9151 27.9019 22.893 28.6798 24.4586 29.8724C24.4807 29.8896 24.4905 29.9141 24.4881 29.9411C24.3531 31.119 23.9384 33.3129 22.6525 34.7657C22.6378 34.7828 22.6181 34.7902 22.596 34.7902H22.5911Z" fill="black"/>
<path d="M27.3962 27.8749C27.3962 27.8749 28.1005 26.2184 28.2772 25.5166C28.4539 24.8147 27.114 23.9411 26.4686 23.9068C25.8232 23.8724 25.806 24.643 25.806 24.643C25.141 24.5816 25.3864 25.4012 25.3864 25.4012C25.0232 25.308 25.0723 25.9043 25.0723 25.9043C24.7435 25.9117 24.8907 26.4712 24.8907 26.4712C24.2134 27.9485 25.0036 30.4221 25.0036 30.4221C24.8171 30.2503 24.6158 30.0859 24.4097 29.9288C24.2895 30.9791 23.8895 33.2442 22.5913 34.7117C24.1251 35.4307 26.5177 35.9706 27.9582 34.4957C29.8379 32.5742 27.3938 27.8724 27.3938 27.8724L27.3962 27.8749Z" fill="white"/>
<path d="M25.5339 35.5141C24.2676 35.5141 23.0578 35.0184 22.5596 34.7853C22.5375 34.7755 22.5228 34.7558 22.5179 34.7313C22.513 34.7092 22.5179 34.6847 22.5351 34.665C23.8406 33.1902 24.2283 30.8564 24.3339 29.9239C24.3363 29.8969 24.3535 29.8749 24.378 29.8626C24.4026 29.8528 24.432 29.8552 24.4541 29.8724C24.5964 29.9804 24.729 30.0884 24.8566 30.1963C24.675 29.5288 24.2627 27.6908 24.8075 26.4663C24.7854 26.373 24.7363 26.0908 24.8541 25.9337C24.8885 25.8871 24.9351 25.8552 24.9915 25.8405C24.9915 25.7203 25.0063 25.4896 25.1388 25.3791C25.1707 25.3522 25.2198 25.3252 25.286 25.3178C25.2566 25.1656 25.232 24.8883 25.3744 24.7141C25.4553 24.6135 25.578 24.5644 25.7351 24.5644C25.7498 24.4344 25.8063 24.1669 25.9928 23.9926C26.1179 23.8773 26.2799 23.8233 26.4713 23.8331C26.9351 23.8577 27.7498 24.2871 28.1498 24.8295C28.3339 25.0773 28.4026 25.3227 28.3486 25.5362C28.1842 26.1914 27.5805 27.6295 27.4799 27.8724C27.7106 28.3239 29.8504 32.6773 28.0148 34.5522C27.3056 35.2761 26.4075 35.5117 25.5339 35.5117V35.5141ZM22.7142 34.6896C23.632 35.1043 26.2971 36.0908 27.9044 34.4491C29.7253 32.589 27.3523 27.9583 27.3277 27.9117C27.3179 27.892 27.3155 27.8675 27.3277 27.8479C27.3351 27.8307 28.032 26.189 28.2038 25.5018C28.2578 25.2883 28.14 25.0675 28.0296 24.9203C27.659 24.4196 26.886 24.0074 26.4639 23.9853C26.3142 23.9779 26.1915 24.0172 26.0958 24.1055C25.8921 24.2945 25.8799 24.6454 25.8799 24.6479C25.8799 24.6675 25.8701 24.6896 25.8553 24.7018C25.8406 24.7166 25.8185 24.7215 25.7989 24.7215C25.6566 24.7092 25.5535 24.7387 25.4921 24.8147C25.3694 24.9644 25.4259 25.2761 25.4578 25.3841C25.4652 25.411 25.4578 25.438 25.4406 25.4577C25.421 25.4773 25.394 25.4847 25.367 25.4773C25.2934 25.4577 25.259 25.4773 25.2394 25.4945C25.1437 25.5755 25.1412 25.8209 25.1486 25.8994C25.1486 25.919 25.1437 25.9411 25.129 25.9558C25.1142 25.9706 25.0946 25.9804 25.075 25.9804C25.0185 25.9804 24.9915 26.0049 24.9793 26.0245C24.9032 26.1252 24.9449 26.3755 24.9645 26.454C24.9695 26.4712 24.967 26.4883 24.9596 26.5055C24.302 27.9387 25.0676 30.3779 25.0774 30.4025C25.0872 30.4344 25.0774 30.4712 25.0455 30.4883C25.0161 30.508 24.9793 30.5031 24.9547 30.481C24.8075 30.346 24.6455 30.2086 24.4713 30.0736C24.3241 31.2564 23.9044 33.2883 22.7167 34.6896H22.7142Z" fill="black"/>
<path d="M25.5658 26.9178C25.5339 26.9178 25.5044 26.8982 25.4946 26.8638C25.4823 26.8245 25.5044 26.7828 25.5437 26.7681C25.8455 26.6748 26.0836 26.3951 26.275 25.9141C26.302 25.8454 26.329 25.7767 26.3535 25.7055C26.4737 25.384 26.5989 25.0503 26.8468 24.8025C26.9891 24.6601 27.2271 24.535 27.4308 24.6479C27.6443 24.7656 27.6517 25.0503 27.6394 25.254L27.556 26.5301C27.5535 26.5718 27.5142 26.6037 27.475 26.6012C27.4333 26.5988 27.4014 26.562 27.4038 26.5202L27.4872 25.2442C27.5044 24.9865 27.4627 24.8393 27.3572 24.7804C27.2345 24.7117 27.0676 24.7975 26.9523 24.9104C26.7265 25.1362 26.6087 25.4528 26.4934 25.7595C26.4664 25.8307 26.4394 25.9018 26.4124 25.9706C26.2038 26.4982 25.9339 26.8049 25.5854 26.9129C25.578 26.9129 25.5707 26.9153 25.5633 26.9153L25.5658 26.9178Z" fill="black"/>
<path d="M25.4773 26.935C25.4012 26.935 25.3227 26.9178 25.2466 26.881C24.9718 26.7509 24.7951 26.4221 24.7754 26.2822C24.7705 26.2405 24.8 26.2037 24.8417 26.1988C24.8834 26.1939 24.9202 26.2233 24.9251 26.265C24.9374 26.3583 25.0871 26.6405 25.3104 26.7485C25.4356 26.8074 25.5632 26.8 25.6859 26.7215C25.7202 26.6994 25.7668 26.7117 25.7889 26.746C25.811 26.7804 25.7987 26.827 25.7644 26.8491C25.6687 26.908 25.5705 26.9374 25.4724 26.9374L25.4773 26.935Z" fill="black"/>
<path d="M25.7525 26.5742C25.6421 26.5742 25.5292 26.5472 25.4261 26.4933C25.1954 26.3681 25.0286 26.1104 24.9917 25.8184C24.9868 25.7767 25.0163 25.7399 25.058 25.735C25.0997 25.7301 25.1365 25.7595 25.1414 25.8012C25.1709 26.0466 25.3083 26.2601 25.4973 26.3632C25.6985 26.4712 25.966 26.4344 26.1059 26.2798C26.1328 26.2479 26.1819 26.2454 26.2114 26.2748C26.2433 26.3018 26.2457 26.3509 26.2163 26.3804C26.1009 26.508 25.9267 26.5767 25.75 26.5767L25.7525 26.5742Z" fill="black"/>
<path d="M26.0589 26.0859C25.8994 26.0859 25.7399 26.0196 25.6295 25.9264C25.4651 25.7865 25.3497 25.5656 25.2908 25.2712C25.2835 25.2294 25.308 25.1902 25.3497 25.1828C25.3915 25.1755 25.4307 25.2 25.4381 25.2417C25.4921 25.5018 25.5878 25.6957 25.7277 25.8135C25.8724 25.9362 26.1178 25.9902 26.2798 25.865C26.3117 25.8405 26.3608 25.8454 26.3853 25.8773C26.4099 25.9092 26.405 25.9583 26.3731 25.9828C26.2798 26.0564 26.1694 26.0859 26.0614 26.0859H26.0589Z" fill="black"/>
<path d="M26.3803 25.4847C26.1963 25.4847 26.0147 25.3791 25.9092 25.2442C25.7791 25.0773 25.7595 24.9055 25.7374 24.7239L25.73 24.6528C25.7251 24.611 25.7546 24.5742 25.7963 24.5693C25.838 24.5644 25.8748 24.5939 25.8797 24.6356L25.8871 24.7067C25.9067 24.881 25.9239 25.0184 26.027 25.1509C26.1325 25.2859 26.3337 25.384 26.503 25.3055C26.5398 25.2883 26.5865 25.3055 26.6036 25.3423C26.6208 25.3791 26.6036 25.4258 26.5668 25.4429C26.5055 25.4724 26.4417 25.4847 26.3803 25.4847Z" fill="black"/>
<path d="M26.805 25.0037C26.7756 25.0037 26.7461 24.9865 26.7338 24.9546L26.4639 24.2675C26.4492 24.2282 26.4688 24.1841 26.5056 24.1693C26.5449 24.1546 26.5891 24.1743 26.6038 24.2111L26.8737 24.8982C26.8884 24.9374 26.8688 24.9816 26.832 24.9963C26.8222 24.9988 26.8124 25.0012 26.805 25.0012V25.0037Z" fill="black"/>
<path d="M26.1323 31.5436C26.1151 31.5436 26.0955 31.5362 26.0808 31.5239L24.9519 30.481C24.9225 30.4515 24.92 30.4049 24.947 30.3755C24.9765 30.346 25.0231 30.3436 25.0525 30.3705L26.1814 31.4135C26.2108 31.4429 26.2133 31.4896 26.1863 31.519C26.1716 31.5362 26.1519 31.5436 26.1298 31.5436H26.1323Z" fill="black"/>
<path d="M30.81 22.6331C29.9412 22.6331 29.0603 22.4417 28.2284 22.0368C26.8026 21.3448 25.7302 20.1374 25.21 18.6405C24.6897 17.1411 24.7854 15.5313 25.4774 14.1031C26.9057 11.1583 30.4664 9.92394 33.4112 11.3522C34.837 12.0442 35.9093 13.2516 36.4296 14.7485C36.9498 16.2479 36.8541 17.8577 36.1621 19.2859C35.1363 21.3988 33.0161 22.6307 30.81 22.6307V22.6331ZM30.8271 10.9104C28.6774 10.9104 26.6112 12.1104 25.6124 14.1693C24.9376 15.5608 24.8443 17.1289 25.3523 18.5914C25.8578 20.0515 26.9032 21.227 28.2946 21.9019C29.1069 22.2945 29.9658 22.481 30.8124 22.481C32.9621 22.481 35.0284 21.281 36.0271 19.2221C36.702 17.8307 36.7952 16.2626 36.2873 14.8C35.7817 13.3399 34.7363 12.1644 33.3449 11.4896C32.5327 11.0969 31.6738 10.9104 30.8271 10.9104Z" fill="black"/>
<path d="M27.3939 24.7166C27.1534 24.6454 27.0577 24.6822 26.7975 24.9252L26.5718 24.3853L27.838 21.7743L28.6748 22.1792L27.3939 24.7141V24.7166Z" fill="black"/>
<path d="M20.4244 25.7129L19.5974 27.5657L20.0956 27.762C20.0956 27.762 19.114 29.5902 16.8219 29.362C14.5299 29.1338 17.7618 25.2565 17.7618 25.2565C17.7618 25.2565 19.8526 24.7951 20.4244 25.7154V25.7129Z" fill="white"/>
<path d="M16.822 29.4356C16.822 29.4356 16.817 29.4356 16.8146 29.4356C16.3876 29.3939 16.1103 29.2246 15.9901 28.9325C15.5361 27.8258 17.6146 25.3129 17.7029 25.2074C17.7128 25.1951 17.7275 25.1853 17.7447 25.1829C17.833 25.1632 19.8943 24.7191 20.4882 25.6761C20.5005 25.6982 20.5029 25.7227 20.4931 25.7473L19.698 27.5264L20.0416 27.6614C20.0809 27.6761 20.1005 27.7203 20.0833 27.7595C20.0686 27.7988 20.0244 27.8184 19.9851 27.8013L19.5704 27.6368C19.5508 27.6295 19.5361 27.6148 19.5287 27.5951C19.5213 27.5755 19.5213 27.5559 19.5287 27.5362L20.3385 25.7227C19.806 24.9522 18.0367 25.2786 17.8036 25.3252C17.6048 25.5681 15.7299 27.9019 16.1299 28.8761C16.2281 29.1141 16.4563 29.2491 16.8293 29.2859C16.871 29.2908 16.9005 29.3276 16.898 29.3694C16.8931 29.4086 16.8612 29.4381 16.822 29.4381V29.4356Z" fill="black"/>
<path d="M20.9325 21.9117C21.1166 21.6393 21.3399 21.3497 21.3031 21.0234C21.2442 20.4957 20.5816 20.2896 20.0491 20.2945C18.1472 20.3142 16.4196 21.4135 15.0086 22.6896C13.5976 23.9657 12.3779 25.4626 10.8295 26.5669C9.71534 27.362 8.44663 27.9411 7.42823 28.854C6.40982 29.7669 5.65399 31.1632 6.01473 32.4835C6.32639 33.6246 7.42577 34.4295 8.58406 34.6602C9.74234 34.8908 10.9497 34.6307 12.0589 34.2184C15.9288 32.7804 19.0184 29.3743 20.0957 25.3915C20.2454 24.8418 20.1031 24.3632 20.189 23.8086C20.2945 23.1313 20.5497 22.4786 20.9325 21.9092V21.9117Z" fill="black"/>
<path d="M15.9927 21.3595C16.1424 21.1608 16.1645 20.8908 16.1032 20.6503C16.0418 20.4098 15.9044 20.1963 15.7572 19.9976C15.4259 19.5559 15.0234 19.1657 14.5694 18.8467C14.2357 18.6135 13.87 18.4148 13.47 18.3338C13.07 18.2528 12.6357 18.2994 12.2921 18.5203C11.8553 18.8025 11.6246 19.3571 11.6909 19.8724C11.7572 20.3878 12.0983 20.8516 12.5498 21.1092C13.0013 21.3669 13.5363 21.4258 14.0541 21.4798C14.5498 21.5313 15.6197 21.8479 15.9903 21.3595H15.9927Z" fill="black"/>
<path d="M20.6698 22.3534C20.6698 22.3534 19.5189 22.773 19.6269 23.3473C19.7348 23.9215 19.7373 24.2111 19.4698 24.4565C19.4698 24.4565 18.4661 24.1424 18.3557 24.8393C18.2453 25.5362 18.9913 25.8012 19.5434 25.5976C19.5434 25.5976 20.1373 26.2209 21.0625 25.7644C21.9876 25.3055 21.4723 23.7963 20.6723 22.3558L20.6698 22.3534Z" fill="white"/>
<path d="M20.3975 26.0049C19.9386 26.0049 19.6269 25.7718 19.5263 25.6835C19.1754 25.7963 18.7803 25.7374 18.5275 25.5313C18.3239 25.3644 18.2355 25.1141 18.2797 24.827C18.3091 24.6454 18.395 24.508 18.5373 24.4197C18.8392 24.2307 19.303 24.3338 19.4478 24.3706C19.6588 24.1546 19.6515 23.8896 19.5533 23.3595C19.4355 22.7289 20.5962 22.2994 20.6453 22.2822C20.6797 22.27 20.7189 22.2822 20.7361 22.3166C21.4846 23.6614 21.7643 24.6528 21.5729 25.2687C21.4944 25.5239 21.3324 25.7129 21.0944 25.8307C20.8367 25.9583 20.6012 26.0049 20.395 26.0049H20.3975ZM19.5435 25.5215C19.5631 25.5215 19.5827 25.5289 19.5975 25.546C19.6196 25.5706 20.1668 26.1227 21.0281 25.6957C21.2318 25.5951 21.3619 25.4405 21.4306 25.2246C21.6048 24.6675 21.33 23.708 20.638 22.4491C20.3042 22.5841 19.6294 22.9424 19.703 23.335C19.8159 23.9338 19.8159 24.2454 19.5214 24.5129C19.5018 24.5301 19.4723 24.5374 19.4478 24.5301C19.4429 24.5301 18.9128 24.3681 18.6183 24.5497C18.5153 24.6135 18.4539 24.7141 18.4318 24.8516C18.395 25.0847 18.4613 25.281 18.6257 25.416C18.8441 25.5951 19.2122 25.6417 19.5189 25.5289C19.5263 25.5264 19.5361 25.5239 19.5459 25.5239L19.5435 25.5215Z" fill="black"/>
<path d="M19.46 25.1853C19.4428 25.1853 19.4257 25.1804 19.4134 25.1681C19.2612 25.043 19.0355 25.0111 18.8539 25.0871C18.8146 25.1019 18.7704 25.0847 18.7557 25.0454C18.741 25.0062 18.7582 24.962 18.7974 24.9473C19.033 24.8516 19.3128 24.8908 19.5091 25.0528C19.541 25.0798 19.5459 25.1264 19.5189 25.1583C19.5042 25.1755 19.4821 25.1853 19.46 25.1853Z" fill="black"/>
</g>
<defs>
<clipPath id="clip0_5478_1714">
<rect width="80" height="80" fill="white"/>
</clipPath>
</defs>
</svg>
