<svg width="80" height="80" viewBox="0 0 80 80" fill="none" xmlns="http://www.w3.org/2000/svg">
<g clip-path="url(#clip0_5479_1028)">
<path d="M71.8145 29.2857H45.3635C44.6635 29.2857 44.1329 28.7184 44.1818 28.0163L44.9492 16.8449C44.9982 16.1449 45.6043 15.5755 46.3063 15.5755H72.7574C73.4574 15.5755 73.988 16.1428 73.939 16.8449L73.1716 28.0163C73.1227 28.7163 72.5165 29.2857 71.8145 29.2857Z" fill="white"/>
<path d="M71.8144 29.351H45.3634C45.0063 29.351 44.6798 29.2122 44.4451 28.9592C44.2083 28.7061 44.092 28.3694 44.1165 28.0122L44.8838 16.8408C44.9349 16.1082 45.5716 15.5102 46.3063 15.5102H72.7573C73.1144 15.5102 73.441 15.649 73.6757 15.902C73.9124 16.1551 74.0287 16.4918 74.0042 16.849L73.2369 28.0204C73.1859 28.753 72.5491 29.351 71.8144 29.351ZM46.3063 15.6408C45.641 15.6408 45.0614 16.1837 45.0145 16.849L44.2471 28.0204C44.2247 28.3408 44.3287 28.6428 44.541 28.8694C44.7512 29.0959 45.043 29.2184 45.3634 29.2184H71.8144C72.4798 29.2184 73.0593 28.6755 73.1063 28.0102L73.8736 16.8388C73.8961 16.5184 73.792 16.2163 73.5798 15.9898C73.3696 15.7633 73.0777 15.6408 72.7573 15.6408H46.3063Z" fill="black"/>
<path d="M63.5042 19.3122H56.1348C55.8593 19.3122 55.6532 19.0898 55.6715 18.8143C55.6899 18.5388 55.9287 18.3163 56.2042 18.3163H63.5736C63.8491 18.3163 64.0552 18.5388 64.0369 18.8143C64.0185 19.0898 63.7797 19.3122 63.5042 19.3122Z" fill="#F500A3"/>
<path d="M66.4861 21.3918H55.9922C55.7167 21.3918 55.5106 21.1694 55.529 20.8939C55.5473 20.6184 55.7861 20.3959 56.0616 20.3959H66.5555C66.831 20.3959 67.0371 20.6184 67.0188 20.8939C67.0004 21.1694 66.7616 21.3918 66.4861 21.3918Z" fill="#F500A3"/>
<path d="M58.2737 23.7714H55.7411C55.7044 23.7714 55.6758 23.7428 55.6758 23.7061C55.6758 23.6694 55.7044 23.6408 55.7411 23.6408H58.2737C58.3105 23.6408 58.339 23.6694 58.339 23.7061C58.339 23.7428 58.3105 23.7714 58.2737 23.7714Z" fill="black"/>
<path d="M71.2758 23.7714H60.3534C60.3167 23.7714 60.2881 23.7428 60.2881 23.7061C60.2881 23.6694 60.3167 23.6408 60.3534 23.6408H71.2758C71.3126 23.6408 71.3411 23.6694 71.3411 23.7061C71.3411 23.7428 71.3126 23.7714 71.2758 23.7714Z" fill="black"/>
<path d="M64.4472 25.0959H55.6512C55.6145 25.0959 55.5859 25.0673 55.5859 25.0306C55.5859 24.9939 55.6145 24.9653 55.6512 24.9653H64.4472C64.4839 24.9653 64.5125 24.9939 64.5125 25.0306C64.5125 25.0673 64.4839 25.0959 64.4472 25.0959Z" fill="black"/>
<path d="M71.1837 25.0959H66.7001C66.6633 25.0959 66.6348 25.0673 66.6348 25.0306C66.6348 24.9939 66.6633 24.9653 66.7001 24.9653H71.1837C71.2205 24.9653 71.249 24.9939 71.249 25.0306C71.249 25.0673 71.2205 25.0959 71.1837 25.0959Z" fill="black"/>
<path d="M59.0064 26.4204H55.5594C55.5227 26.4204 55.4941 26.3918 55.4941 26.3551C55.4941 26.3184 55.5227 26.2898 55.5594 26.2898H59.0064C59.0431 26.2898 59.0717 26.3184 59.0717 26.3551C59.0717 26.3918 59.0431 26.4204 59.0064 26.4204Z" fill="black"/>
<path d="M71.0921 26.4204H61.7186C61.6819 26.4204 61.6533 26.3918 61.6533 26.3551C61.6533 26.3184 61.6819 26.2898 61.7186 26.2898H71.0921C71.1288 26.2898 71.1574 26.3184 71.1574 26.3551C71.1574 26.3918 71.1288 26.4204 71.0921 26.4204Z" fill="black"/>
<path d="M52.7183 25.2423C54.4534 23.6657 54.6667 21.0744 53.1947 19.4544C51.7227 17.8344 49.1228 17.7993 47.3877 19.3759C45.6527 20.9524 45.4394 23.5438 46.9114 25.1637C48.3834 26.7837 50.9832 26.8189 52.7183 25.2423Z" fill="white"/>
<path d="M49.7738 26.4694C48.6555 26.4694 47.6351 26.0347 46.9004 25.2469C46.1657 24.4612 45.8044 23.4163 45.88 22.3061C46.0371 20.0163 48.0371 18.153 50.3371 18.153C51.4555 18.153 52.4759 18.5877 53.2106 19.3755C53.9453 20.1612 54.3065 21.2061 54.231 22.3163C54.0738 24.6061 52.0738 26.4694 49.7738 26.4694ZM50.3371 18.2837C48.1044 18.2837 46.1636 20.0918 46.0106 22.3163C45.9371 23.3898 46.2861 24.4 46.9963 25.1592C47.7065 25.9204 48.6942 26.3408 49.7738 26.3408C52.0065 26.3408 53.9473 24.5326 54.1004 22.3081C54.1738 21.2347 53.8249 20.2245 53.1146 19.4653C52.4044 18.7041 51.4167 18.2837 50.3371 18.2837Z" fill="black"/>
<mask id="mask0_5479_1028" style="mask-type:luminance" maskUnits="userSpaceOnUse" x="46" y="18" width="8" height="8">
<path d="M52.3873 24.8783C53.9072 23.4972 54.0941 21.2274 52.8048 19.8085C51.5154 18.3895 49.2381 18.3588 47.7183 19.7399C46.1984 21.1209 46.0115 23.3907 47.3008 24.8097C48.5902 26.2286 50.8674 26.2593 52.3873 24.8783Z" fill="white"/>
</mask>
<g mask="url(#mask0_5479_1028)">
<path d="M52.3736 21.2C52.3409 21.4184 52.1287 21.502 52.047 21.6449C51.9634 21.7898 52.047 21.9163 51.8674 22.1347C51.694 22.349 51.5246 22.251 51.3879 22.3429C51.2552 22.4327 51.147 22.598 50.996 22.6592C50.8511 22.7184 50.6817 22.6694 50.5266 22.7C50.3756 22.7286 50.2205 22.8449 50.0654 22.8449C49.9164 22.8449 49.7858 22.698 49.6348 22.6694C49.4838 22.6408 49.3572 22.7653 49.2226 22.7123C48.9511 22.6082 49.0287 22.4735 48.9103 22.3918C48.7858 22.3082 48.5409 22.3306 48.4021 22.1857C48.243 22.0184 48.3777 21.8755 48.3062 21.7469C48.2328 21.6143 48.0409 21.6204 47.994 21.3633C47.9511 21.1245 48.0817 21.0123 48.0838 20.851C48.0838 20.6939 47.9409 20.5449 48.0083 20.3898C48.1123 20.151 48.2654 20.1388 48.347 19.998C48.4307 19.8531 48.4103 19.6408 48.5144 19.5123C48.6532 19.3408 48.8532 19.4102 48.9919 19.3184C49.1246 19.2286 49.1552 19.0612 49.3389 18.9531C49.5042 18.8571 49.696 18.9898 49.8511 18.9592C50.0021 18.9306 50.0572 18.7653 50.2695 18.7674C50.4511 18.7714 50.5552 18.9347 50.7042 18.9633C50.8532 18.9918 50.9756 18.8674 51.1613 18.9408C51.3695 19.0225 51.3409 19.1959 51.4613 19.2776C51.5858 19.3612 51.745 19.3041 51.8981 19.449C52.0654 19.6061 51.9511 19.7735 52.0226 19.902C52.096 20.0347 52.3001 20.1041 52.3389 20.251C52.3777 20.402 52.247 20.5878 52.2552 20.7469C52.2654 20.951 52.4083 20.9674 52.3715 21.2041L52.3736 21.2Z" fill="black"/>
<path d="M53.3206 27.5041H46.0838C46.0634 27.5041 46.0451 27.4939 46.0328 27.4796C46.0206 27.4633 46.0165 27.4429 46.0206 27.4225L46.6226 25.098C46.8247 24.5347 47.3083 24.1061 47.8859 23.9755L49.0145 23.7204L49.1104 22.3123C49.1124 22.2776 49.141 22.251 49.1757 22.251H50.9308C50.9491 22.251 50.9655 22.2592 50.9777 22.2714C50.99 22.2857 50.9961 22.3021 50.9961 22.3204L50.9002 23.7225L51.9859 23.9755C52.5491 24.1061 52.9757 24.5368 53.1002 25.1C53.1002 25.1021 53.1002 25.1041 53.1002 25.1061L53.3818 27.4306C53.3838 27.449 53.3777 27.4674 53.3655 27.4817C53.3532 27.4959 53.3349 27.5041 53.3165 27.5041H53.3206ZM46.1696 27.3735H53.2471L52.9736 25.1265C52.8594 24.6163 52.4696 24.2245 51.9573 24.1041L50.8165 23.8388C50.7859 23.8306 50.7634 23.8021 50.7655 23.7714L50.8614 22.3857H49.2369L49.141 23.7816C49.141 23.8102 49.1185 23.8347 49.09 23.8408L47.9145 24.1061C47.3798 24.2265 46.9328 24.6225 46.7471 25.1388L46.1675 27.3755L46.1696 27.3735Z" fill="black"/>
<path d="M51.5881 21.2102C51.5269 21.1939 51.4616 21.2 51.4003 21.2225C51.4044 20.4204 50.8575 20.4123 50.1861 20.4123C49.5146 20.4123 48.9656 20.4225 48.8616 21.2225C48.8044 21.2 48.7391 21.1939 48.6758 21.2102C48.484 21.2572 48.3616 21.4735 48.4024 21.6939C48.4432 21.9143 48.6289 22.0551 48.8207 22.0102C48.8514 22.0021 48.8799 21.9898 48.9065 21.9755C49.0595 22.5674 49.4799 23.0204 50.0065 23.0204C50.533 23.0204 51.0167 22.5674 51.2514 21.9755C51.2758 21.9919 51.3024 22.0041 51.333 22.0102C51.5187 22.0572 51.7248 21.9163 51.7942 21.6939C51.8636 21.4735 51.7718 21.2572 51.5861 21.2102H51.5881Z" fill="white"/>
<path d="M50.0064 23.0857C49.5003 23.0857 49.0472 22.6796 48.8636 22.0674C48.8534 22.0714 48.8452 22.0735 48.835 22.0755C48.733 22.1 48.6268 22.0817 48.537 22.0225C48.433 21.9551 48.3595 21.8408 48.335 21.7082C48.2881 21.4551 48.433 21.2041 48.6575 21.149C48.7064 21.1368 48.7554 21.1347 48.8044 21.1429C48.9432 20.349 49.5452 20.349 50.184 20.349C50.6146 20.349 51.0187 20.349 51.2575 20.5878C51.384 20.7143 51.4493 20.8959 51.4615 21.1408C51.5085 21.1347 51.5554 21.1368 51.6024 21.147C51.6983 21.1714 51.7779 21.2327 51.8268 21.3225C51.8881 21.4347 51.9003 21.5776 51.8554 21.7143C51.7758 21.9674 51.533 22.1286 51.3146 22.0735C51.3044 22.0714 51.2942 22.0674 51.2819 22.0633C51.0166 22.6776 50.5085 23.0837 50.0044 23.0837L50.0064 23.0857ZM48.9064 21.9102C48.9064 21.9102 48.9228 21.9102 48.9309 21.9143C48.9493 21.9225 48.9636 21.9388 48.9697 21.9592C49.1248 22.5551 49.5411 22.9551 50.0064 22.9551C50.4717 22.9551 50.9513 22.551 51.1901 21.951C51.1983 21.9327 51.2126 21.9184 51.2309 21.9123C51.2493 21.9061 51.2697 21.9082 51.286 21.9184C51.3064 21.9306 51.3268 21.9408 51.3493 21.9449C51.5003 21.9837 51.6738 21.8612 51.733 21.6735C51.7656 21.5714 51.7595 21.4653 51.7146 21.3857C51.6819 21.3266 51.633 21.2878 51.5717 21.2735C51.5248 21.2612 51.4738 21.2653 51.4228 21.2837C51.4024 21.2919 51.3799 21.2878 51.3615 21.2755C51.3432 21.2633 51.333 21.2429 51.333 21.2225C51.333 20.9714 51.2799 20.7939 51.1656 20.6796C50.9656 20.4776 50.586 20.4776 50.184 20.4776C49.4636 20.4776 49.0187 20.5143 48.9228 21.2306C48.9207 21.251 48.9085 21.2674 48.8921 21.2776C48.8758 21.2878 48.8534 21.2898 48.835 21.2817C48.786 21.2633 48.737 21.2592 48.6881 21.2714C48.5309 21.3102 48.4289 21.4939 48.4636 21.6796C48.4819 21.7776 48.533 21.8612 48.6064 21.9082C48.6656 21.947 48.735 21.9592 48.8024 21.9429C48.8248 21.9368 48.8493 21.9286 48.8717 21.9143C48.8819 21.9082 48.8942 21.9061 48.9044 21.9061L48.9064 21.9102Z" fill="black"/>
<path d="M50.0064 23.0857C49.4798 23.0857 49.0125 22.647 48.8431 21.9919C48.8349 21.9572 48.8553 21.9204 48.89 21.9123C48.9247 21.9021 48.9615 21.9245 48.9696 21.9592C49.1247 22.5551 49.5411 22.9551 50.0064 22.9551C50.4717 22.9551 50.9513 22.551 51.19 21.951C51.2043 21.9184 51.2411 21.9021 51.2758 21.9143C51.3084 21.9286 51.3268 21.9653 51.3125 22C51.0553 22.649 50.5309 23.0857 50.0064 23.0857Z" fill="black"/>
<path d="M48.8491 21.1592C48.8655 21.1286 48.8818 21.1 48.8961 21.0694C49.0573 21.9265 49.2859 22.1327 49.4695 22.1572C49.6655 22.1837 49.7879 22 50.1246 22.0041C50.4512 22.0061 50.5389 22.1816 50.7308 22.149C50.9063 22.1184 51.1328 21.9204 51.3552 21.1653C51.3879 21.1449 51.4206 21.1245 51.4532 21.1061C51.4471 21.3123 51.4042 21.7674 51.0981 22.2225C50.9655 22.4204 50.5675 23.0163 50.0042 23.0204C49.3675 23.0265 49.0328 22.2714 48.9757 22.1449C48.792 21.7367 48.8206 21.349 48.8471 21.1592H48.8491Z" fill="black"/>
</g>
<path d="M7.96735 29.9837C9.56122 28.9122 10.5939 28.7265 10.7612 27.2673C10.9592 25.5429 11.2122 25.2837 12.4204 24.3041C13.8592 23.1367 15.449 23.5082 15.9347 23.5959C17.4918 23.8755 19.0163 24.7327 19.451 24.9939C20.1714 25.4286 21.2857 25.9898 21.402 27.398C21.4796 28.3429 20.2633 29.4224 20.2755 30.6061C20.2918 32.0673 19.6816 32.2878 19.6245 33.3571C19.5306 35.0959 19.0061 35.9653 19.9122 37.1163C21.5041 39.1367 21.6939 40.9673 21.6551 41.2265C21.5469 41.9735 14.4612 44 10.0694 43.9796C8.44898 43.9714 0 42.0388 0 42.0388C0 42.0388 0.910204 37.4531 4.33878 36.2571C6.83469 35.3857 4.84286 32.0857 7.96531 29.9837H7.96735Z" fill="black"/>
<path d="M12.7039 25.5592C11.0876 25.6061 9.19577 24.9122 9.05699 22.3714C8.91822 19.8327 11.859 19.0776 13.059 20.7408C14.259 22.402 13.906 23.8959 13.3978 24.8347C12.8896 25.7735 12.7039 25.5592 12.7039 25.5592Z" fill="black"/>
<path d="M14.5773 31.4878L11.4753 37.7653C11.4753 37.7653 8.94671 37.398 9.70181 38.2674C11.0018 39.7612 16.1181 42.8327 17.9324 42.7163C20.8018 42.5306 20.2671 39.2857 18.1283 38.2776L16.5957 38.0429L18.5467 32.798L14.5773 31.4878Z" fill="white"/>
<path d="M16.4794 38.5469C16.4794 38.5469 16.4651 38.5469 16.4569 38.5429C16.4222 38.5306 16.4059 38.4939 16.4181 38.4592L18.461 32.8388L14.5549 31.549C14.5202 31.5367 14.5018 31.5 14.5141 31.4673C14.5263 31.4326 14.563 31.4143 14.5957 31.4265L18.5651 32.7367C18.5814 32.7429 18.5957 32.7551 18.6038 32.7694C18.612 32.7857 18.612 32.8041 18.6059 32.8204L16.5385 38.5041C16.5283 38.5306 16.5038 38.5469 16.4773 38.5469H16.4794Z" fill="black"/>
<path d="M20.6512 29.8122C20.7492 30.6326 20.7022 31.5388 20.4349 32.2939C20.1696 33.049 19.6083 33.7224 18.8594 34.0082C18.2104 34.2551 17.4675 34.1959 16.8267 33.9286C16.1859 33.6612 15.343 32.6918 14.8961 32.1592C14.2124 32.402 13.3777 32.1184 12.9839 31.5082C12.7573 31.1571 12.6757 30.6877 12.8614 30.3122C13.0471 29.9367 13.5798 29.7286 13.992 29.8122C14.2145 29.8571 14.3369 29.9633 14.5573 30.0551C14.8022 30.1592 15.339 30.0816 15.59 29.9959C16.2369 29.7735 18.843 28.2775 19.6839 26.302C20.1165 27.1428 20.539 28.8653 20.6512 29.8102V29.8122Z" fill="white"/>
<path d="M17.9775 34.2286C17.5877 34.2286 17.1857 34.1469 16.802 33.9878C16.1163 33.702 15.2102 32.6347 14.8755 32.2347C14.1755 32.4592 13.3285 32.1612 12.9285 31.5449C12.6673 31.1408 12.6183 30.6571 12.804 30.2857C12.9938 29.902 13.5448 29.6551 14.0061 29.751C14.1571 29.7816 14.2653 29.8388 14.3795 29.898C14.4428 29.9306 14.5081 29.9653 14.5836 29.998C14.8061 30.0918 15.3163 30.0245 15.5693 29.9367C16.1653 29.7306 18.7938 28.2347 19.6244 26.2796C19.6346 26.2571 19.6571 26.2408 19.6816 26.2408C19.7081 26.2408 19.7306 26.2531 19.7428 26.2755C20.1673 27.102 20.5959 28.8 20.7163 29.8061C20.8244 30.7184 20.7469 31.6102 20.4979 32.3163C20.2081 33.1388 19.604 33.7939 18.8836 34.0694C18.602 34.1775 18.2938 34.2306 17.9775 34.2306V34.2286ZM14.8959 32.0918C14.9142 32.0918 14.9326 32.1 14.9469 32.1143C15.251 32.4775 16.1755 33.5837 16.851 33.8653C17.5163 34.1429 18.2387 34.1714 18.8346 33.9429C19.5204 33.6816 20.0938 33.0551 20.3714 32.2673C20.6142 31.5775 20.6897 30.7082 20.5836 29.8163C20.4714 28.8714 20.0734 27.2878 19.6857 26.4551C18.7714 28.4143 16.2285 29.8429 15.6102 30.0551C15.3693 30.1388 14.804 30.2286 14.5306 30.1143C14.4489 30.0796 14.3816 30.0449 14.3163 30.0102C14.2061 29.9531 14.1102 29.902 13.9775 29.8755C13.5775 29.7939 13.0816 30.0122 12.9183 30.3408C12.7571 30.6673 12.804 31.1102 13.0367 31.4714C13.4122 32.0531 14.2204 32.3265 14.8734 32.0959C14.8816 32.0939 14.8877 32.0918 14.8959 32.0918Z" fill="black"/>
<path d="M13.8691 30.9571C14.2508 30.9388 14.6344 31.1674 14.7957 31.5143L13.8691 30.9571Z" fill="white"/>
<path d="M14.7956 31.5796C14.7711 31.5796 14.7467 31.5653 14.7365 31.5429C14.5854 31.2204 14.2303 31.0061 13.8711 31.0245C13.8365 31.0286 13.8038 30.998 13.8018 30.9633C13.8018 30.9265 13.8283 30.8959 13.863 30.8939C14.2711 30.8735 14.6793 31.1184 14.8528 31.4878C14.8691 31.5204 14.8528 31.5592 14.8222 31.5755C14.814 31.5796 14.8038 31.5816 14.7936 31.5816L14.7956 31.5796Z" fill="black"/>
<path d="M47.1876 27.5429C46.9325 27.0735 46.4468 27.3061 46.4468 27.3061C46.4203 26.5531 44.7387 27.3816 44.7387 27.3816C45.0754 26.5531 44.304 26.9918 43.006 27.5735C41.708 28.1551 39.7081 27.6408 38.5142 28.7755C37.9632 29.3 33.7203 37.4143 33.7203 37.4143L30.957 42.3204C33.7346 45.7041 37.9509 41.2592 39.3876 40.0775C40.6448 36.6571 41.7325 32.5918 41.955 31.9265C42.2978 30.9041 42.6427 30.4775 43.757 30.0796C44.8713 29.6837 46.8305 29.0939 46.8611 28.6571C46.8836 28.3306 46.4468 28.3898 46.4468 28.3898C46.4468 28.3898 47.4427 28.0122 47.1876 27.5449V27.5429Z" fill="white"/>
<path d="M40.9834 35.2837C40.9834 35.2837 40.9712 35.2837 40.9651 35.2816C40.9304 35.2714 40.91 35.2347 40.9202 35.2C40.9283 35.1735 41.6712 32.5633 41.8916 31.9061C42.2222 30.9204 42.5508 30.4408 43.7345 30.0184C43.912 29.9551 44.112 29.8857 44.3243 29.8143C45.2998 29.4796 46.7732 28.9755 46.7957 28.6531C46.7998 28.5918 46.7855 28.5469 46.7508 28.5163C46.6732 28.4449 46.512 28.4469 46.4549 28.4551C46.4222 28.4592 46.3916 28.4388 46.3834 28.4061C46.3753 28.3735 46.3916 28.3408 46.4243 28.3286C46.4304 28.3265 47.0345 28.0939 47.1467 27.7898C47.1732 27.7163 47.1692 27.6469 47.1304 27.5755C46.9079 27.1673 46.4936 27.3571 46.4753 27.3653C46.4549 27.3755 46.4324 27.3735 46.414 27.3612C46.3957 27.349 46.3834 27.3306 46.3834 27.3082C46.3794 27.2122 46.3467 27.1449 46.2794 27.1061C45.9712 26.9224 45.0855 27.2857 44.7692 27.4408C44.7447 27.4531 44.7161 27.449 44.6957 27.4306C44.6753 27.4122 44.6692 27.3837 44.6794 27.3571C44.7855 27.098 44.7528 27.0286 44.7324 27.0102C44.6243 26.9082 44.0549 27.1673 43.4528 27.4429C43.3202 27.5041 43.1794 27.5673 43.0324 27.6326C42.4998 27.8714 41.8692 27.9265 41.1998 27.9878C40.2426 28.0735 39.2549 28.1612 38.5569 28.8224C38.4487 28.9286 37.312 30.9122 36.8243 31.7592L36.6385 32.0816C36.6202 32.1122 36.5814 32.1245 36.5487 32.1061C36.5181 32.0878 36.5059 32.049 36.5243 32.0163L36.71 31.6939C37.6936 29.9796 38.3692 28.8204 38.4651 28.7286C39.1957 28.0347 40.2079 27.9449 41.1855 27.8592C41.8426 27.8 42.463 27.7449 42.9753 27.5163C43.1222 27.451 43.261 27.3857 43.3936 27.3265C44.1753 26.9694 44.6467 26.7551 44.8181 26.9184C44.8875 26.9837 44.8977 27.0918 44.8487 27.2592C45.1875 27.1082 45.9896 26.7857 46.3406 26.9959C46.4243 27.0449 46.4773 27.1204 46.4977 27.2163C46.7059 27.151 47.0447 27.1531 47.2406 27.5143C47.2977 27.6184 47.3059 27.7286 47.2651 27.8367C47.1814 28.0612 46.9038 28.2388 46.6998 28.3449C46.7487 28.3592 46.7977 28.3837 46.8365 28.4204C46.8998 28.4796 46.9283 28.5612 46.9222 28.6633C46.8957 29.0449 45.8447 29.4326 44.363 29.9408C44.1528 30.0122 43.9528 30.0816 43.7753 30.1449C42.661 30.5408 42.3447 30.9633 42.0141 31.951C41.7936 32.6061 41.0508 35.2143 41.0447 35.2388C41.0365 35.2673 41.01 35.2857 40.9814 35.2857L40.9834 35.2837Z" fill="black"/>
<path d="M43.243 28.3816C43.2185 28.3816 43.194 28.3674 43.1838 28.3449C43.1695 28.3123 43.1838 28.2735 43.2144 28.2572C43.7532 28.0061 44.2552 27.6857 44.7083 27.3041C44.7369 27.2816 44.7777 27.2837 44.8001 27.3123C44.8226 27.3408 44.8205 27.3816 44.7919 27.4041C44.3307 27.7939 43.8185 28.1204 43.2695 28.3776C43.2613 28.3816 43.2511 28.3837 43.2409 28.3837L43.243 28.3816Z" fill="black"/>
<path d="M44.0508 28.9224C44.0263 28.9224 44.0039 28.9082 43.9916 28.8857C43.9753 28.8531 43.9896 28.8143 44.0223 28.798C44.7631 28.4388 45.4896 28.0306 46.1814 27.5816C46.2386 27.5449 46.3059 27.502 46.3447 27.4429C46.3733 27.4 46.3916 27.3347 46.3651 27.2878C46.3467 27.2571 46.357 27.2163 46.3876 27.198C46.4182 27.1796 46.459 27.1898 46.4774 27.2204C46.5284 27.3061 46.5202 27.4224 46.4529 27.5184C46.3978 27.598 46.3182 27.649 46.2529 27.6918C45.557 28.1429 44.8263 28.5551 44.0814 28.9163C44.0712 28.9204 44.0631 28.9224 44.0529 28.9224H44.0508Z" fill="black"/>
<path d="M44.3715 29.3286C44.3449 29.3286 44.3184 29.3102 44.3102 29.2837C44.298 29.249 44.3184 29.2122 44.3511 29.202C45.0796 28.9632 45.7919 28.6612 46.4674 28.3C46.5 28.2837 46.5388 28.2959 46.5551 28.3265C46.5715 28.3592 46.5592 28.3979 46.5286 28.4143C45.8449 28.7775 45.1266 29.0837 44.3898 29.3245C44.3837 29.3265 44.3755 29.3286 44.3694 29.3286H44.3715Z" fill="black"/>
<path d="M11.8142 60.7428C12.2 60.8265 12.5061 60.5592 12.6836 60.2735C13.0612 59.6612 13.2061 58.7979 13.2061 58.7979L11.5102 57.7816L11.4897 60.4632L11.8163 60.7428H11.8142Z" fill="#6E00BE"/>
<path d="M38.9837 59.7428H14.5531C14.4082 59.7428 14.2633 59.7061 14.1449 59.6245C13.8653 59.4326 13.7694 59.0898 13.8796 58.7939C14.1673 58.1898 14.7633 57.9775 15.6429 57.9775H40.5857L40.2612 58.8571C40.0612 59.3898 39.551 59.7428 38.9816 59.7428H38.9837Z" fill="black"/>
<path d="M39.1225 59.7429C39.6103 59.7429 40.0511 59.4449 40.2307 58.9918L44.5552 48.1469C44.6695 47.8592 44.6348 47.5326 44.4613 47.2775C44.2879 47.0204 43.9981 46.8673 43.6879 46.8673H28.6736C27.7695 46.8673 26.9613 47.4367 26.6593 48.2898L22.6001 59.7449H39.1225V59.7429Z" fill="black"/>
<path d="M39.4735 58.149H24.5878C24.551 58.149 24.5225 58.1204 24.5225 58.0837C24.5225 58.0469 24.551 58.0184 24.5878 58.0184H39.4735C39.5102 58.0184 39.5388 58.0469 39.5388 58.0837C39.5388 58.1204 39.5102 58.149 39.4735 58.149Z" fill="white"/>
<path d="M23.6491 45.6878C23.6491 45.6878 32.0144 46.7082 36.2021 43.5122C38.8572 41.4878 42.0593 36.9163 42.0593 36.9163C42.0593 36.9163 39.5348 32.2633 36.0736 32.1306L33.7226 35.4776C32.6736 36.951 30.9899 37.8429 29.1817 37.8878L17.8613 38.098L23.647 45.6878H23.6491Z" fill="#6E00BE"/>
<path d="M1.75521 55.4449C0.175617 52.0796 0.491944 54.5694 0.502148 50.851C0.50827 49.0082 2.9797 41.9286 4.05929 40.4326C5.22664 38.8143 7.22256 37.9735 9.19603 37.6755C9.99194 37.5551 11.4736 37.7653 11.4736 37.7653C11.4736 37.7653 13.543 38.3347 16.594 38.0429C17.5777 37.8837 20.1205 38.5102 20.8981 39.1347C21.6736 39.7571 22.2491 40.5939 22.7715 41.4408C23.594 42.7735 23.6368 45.6877 23.6368 45.6877C23.4552 45.7796 22.143 58.3143 22.143 58.3143C22.143 58.3143 12.9164 57.0082 12.2552 57.5428C11.2532 58.3551 2.42664 56.8755 1.75521 55.4449Z" fill="#6E00BE"/>
<path d="M11.8837 60.7551C11.8837 60.7551 0 59.9286 0 54.202C0 52.8939 0.255102 51.2592 0.595918 50.0327C0.595918 50.0327 11.4959 50.9224 15.2204 52.9898C15.3061 53.0367 13.5898 54.0163 12.0551 58.3122C11.2531 60.5571 11.8857 60.7531 11.8857 60.7531L11.8837 60.7551Z" fill="#6E00BE"/>
<path d="M15.1754 53.0204C15.1754 53.0204 15.157 53.0204 15.1489 53.0143C13.3264 52.2102 11.253 51.6429 8.62439 51.2245C8.5897 51.2184 8.56521 51.1857 8.56929 51.149C8.57541 51.1143 8.60807 51.0898 8.6448 51.0939C11.2856 51.5143 13.3693 52.0857 15.2019 52.8939C15.2346 52.9082 15.2509 52.947 15.2346 52.9796C15.2244 53.0041 15.1999 53.0184 15.1754 53.0184V53.0204Z" fill="black"/>
<path d="M8.63488 51.2245C8.63488 51.2245 8.62468 51.2245 8.61856 51.2245C8.58386 51.2163 8.56345 51.1796 8.57162 51.1449L9.97978 45.6673C9.98794 45.6326 10.0247 45.6102 10.0594 45.6204C10.0941 45.6286 10.1145 45.6653 10.1063 45.7L8.69815 51.1775C8.68998 51.2061 8.66345 51.2265 8.63488 51.2265V51.2245Z" fill="black"/>
<path d="M11.8266 60.7408C11.8266 60.7408 11.8103 60.7408 11.8021 60.7367C11.3185 60.5449 11.7103 59.4204 11.7572 59.2939C11.7695 59.2592 11.8062 59.2428 11.8409 59.2551C11.8756 59.2673 11.8919 59.3041 11.8797 59.3388C11.7736 59.6306 11.5409 60.4939 11.8491 60.6163C11.8817 60.6306 11.9001 60.6673 11.8858 60.702C11.8756 60.7285 11.8511 60.7428 11.8246 60.7428L11.8266 60.7408Z" fill="black"/>
<path d="M23.5753 45.5122C23.5386 45.5122 23.51 45.4837 23.51 45.4469C23.5018 44.4449 23.712 43.4306 24.1182 42.5163C24.1324 42.4837 24.1712 42.4673 24.2039 42.4837C24.2365 42.498 24.2508 42.5367 24.2365 42.5694C23.8365 43.4673 23.6304 44.4633 23.6386 45.4469C23.6386 45.4837 23.61 45.5122 23.5733 45.5122H23.5753Z" fill="black"/>
<path d="M22.4898 61.7449C22.4898 61.7449 22.998 62.249 23.4245 61.6408C23.8082 61.0939 23.0633 57.3429 17 53.8878C16.3816 53.5347 15.5592 53.1714 14.9755 52.9878C13.8959 54.2367 12.0816 56.602 11.4204 59.2592C13.6 59.5796 15.9633 60.1204 17.2122 61.549C19.4204 64.0694 18.4796 61.3286 18.4796 61.3286C18.4796 61.3286 19.849 63.3939 20.3265 63.0837C20.9633 62.6714 19.9265 60.9592 19.4571 60.251C19.3245 60.0612 19.2449 59.9408 19.2449 59.9408C19.2449 59.9408 19.3306 60.0592 19.4571 60.251C19.9959 61.0245 21.4225 62.9735 22.0347 62.8469C22.7959 62.6918 22.4878 61.749 22.4878 61.749L22.4898 61.7449Z" fill="white"/>
<path d="M22.4855 61.8143C22.463 61.8143 22.4386 61.802 22.4284 61.7796C22.0079 60.9898 21.3304 59.8612 20.4835 58.9653C20.459 58.9388 20.459 58.898 20.4855 58.8735C20.512 58.849 20.5528 58.849 20.5773 58.8755C21.4345 59.7816 22.1202 60.9204 22.5426 61.7184C22.559 61.751 22.5467 61.7898 22.5161 61.8061C22.5059 61.8122 22.4957 61.8143 22.4855 61.8143Z" fill="black"/>
<path d="M19.8447 60.8837C19.8222 60.8837 19.8018 60.8735 19.7896 60.8531C19.5651 60.4939 19.1529 59.9 18.9875 59.7C18.9651 59.6714 18.9692 59.6306 18.9978 59.6082C19.0263 59.5857 19.0671 59.5898 19.0896 59.6184C19.2569 59.8225 19.6733 60.4225 19.8998 60.7857C19.9182 60.8163 19.91 60.8572 19.8794 60.8755C19.8692 60.8817 19.8569 60.8857 19.8447 60.8857V60.8837Z" fill="black"/>
<path d="M18.4981 61.451C18.4777 61.451 18.4573 61.4408 18.4451 61.4225C18.1532 60.998 18.0777 60.9184 17.7981 60.6225L17.7022 60.5225C17.6777 60.4959 17.6777 60.4551 17.7042 60.4306C17.7308 60.4061 17.7716 60.4061 17.7961 60.4327L17.892 60.5327C18.1716 60.8265 18.2553 60.9163 18.5532 61.349C18.5736 61.3796 18.5655 61.4204 18.5369 61.4408C18.5247 61.449 18.5124 61.4531 18.5002 61.4531L18.4981 61.451Z" fill="black"/>
<path d="M20.2185 63.1755C19.7777 63.1755 19.0512 62.249 18.6573 61.7C18.7471 62.0571 18.8144 62.5286 18.6042 62.649C18.4573 62.7347 18.1491 62.7163 17.1634 61.5898C15.9165 60.1673 13.7675 59.6796 11.6307 59.3633C11.594 59.3571 11.5695 59.3245 11.5756 59.2898C11.5818 59.2551 11.6144 59.2286 11.6491 59.2347C13.8103 59.5531 15.9879 60.049 17.2614 61.5041C18.1899 62.5653 18.4634 62.5796 18.5389 62.5367C18.7042 62.4408 18.5675 61.7837 18.4165 61.3469C18.4063 61.3163 18.4205 61.2816 18.4491 61.2673C18.4777 61.2531 18.5144 61.2633 18.5328 61.2898C19.0491 62.0673 19.9818 63.2265 20.2899 63.0245C20.3716 62.9714 20.4246 62.8898 20.4471 62.7796C20.5777 62.151 19.7593 60.8224 19.4022 60.2816C19.2695 60.0918 19.1899 59.9714 19.1899 59.9714C19.1695 59.9408 19.1777 59.902 19.2063 59.8816C19.2348 59.8612 19.2756 59.8673 19.2961 59.898C19.2961 59.898 19.3838 60.0204 19.5083 60.2102C20.6675 61.8735 21.6287 62.8571 22.0185 62.7796C22.194 62.7449 22.3205 62.6612 22.394 62.5306C22.5695 62.2286 22.4226 61.7714 22.4226 61.7653C22.4124 61.7367 22.4246 61.7061 22.4512 61.6898C22.4777 61.6735 22.5103 61.6775 22.5307 61.7C22.5307 61.7 22.7348 61.8959 22.9716 61.8755C23.1165 61.8633 23.2491 61.7714 23.3654 61.6041C23.5287 61.3714 23.5981 60.1224 22.3634 58.3531C22.343 58.3224 22.3491 58.2837 22.3797 58.2612C22.4103 58.2408 22.4491 58.2469 22.4716 58.2775C23.6654 59.9878 23.7124 61.3367 23.4736 61.6775C23.3328 61.8775 23.1675 61.9878 22.9838 62.0041C22.8287 62.0184 22.6899 61.9612 22.592 61.9041C22.6246 62.0857 22.641 62.3694 22.5103 62.5959C22.4165 62.7592 22.2593 62.8633 22.0471 62.9061C21.6103 62.9939 20.8369 62.1735 20.1654 61.3184C20.443 61.8653 20.6512 62.4327 20.5736 62.8041C20.543 62.949 20.4716 63.0592 20.3593 63.1327C20.3165 63.1612 20.2675 63.1735 20.2165 63.1735L20.2185 63.1755Z" fill="black"/>
<path d="M15.1677 38.1347L11.7126 36.349L10.4351 37.6388C10.8412 39.449 12.5595 40.6122 14.6289 40.5082L15.1677 38.1347Z" fill="white"/>
<path d="M15.1676 38.1347L17.237 36.9184L17.8614 38.0531C18.0635 38.6939 17.6512 39.8571 16.2206 40.4122L15.1655 38.1347H15.1676Z" fill="white"/>
<path d="M15.1676 38.2C15.1574 38.2 15.1472 38.1979 15.137 38.1918L11.7247 36.4286L10.4819 37.6837C10.4574 37.7102 10.4145 37.7102 10.39 37.6837C10.3635 37.6592 10.3635 37.6163 10.39 37.5918L11.6676 36.302C11.688 36.2816 11.7186 36.2775 11.7431 36.2898L15.1655 38.0592L17.2043 36.8612C17.2186 36.8531 17.237 36.849 17.2553 36.8551C17.2716 36.8592 17.2859 36.8714 17.2961 36.8857L17.9206 37.9837C17.939 38.0143 17.9268 38.0551 17.8961 38.0735C17.8655 38.0918 17.8247 38.0796 17.8063 38.049L17.2145 37.0082L15.2023 38.1898C15.2023 38.1898 15.1798 38.1979 15.1696 38.1979L15.1676 38.2Z" fill="black"/>
<path d="M73.2814 55.9714C73.2242 55.9714 73.1691 55.9755 73.114 55.9816C72.9773 55.4286 72.7589 54.9081 72.4712 54.4326C72.514 54.3979 72.5569 54.3632 72.5977 54.3224C73.1365 53.7837 73.1365 52.9122 72.5977 52.3735C72.0589 51.8347 71.1875 51.8347 70.6487 52.3735C70.6079 52.4143 70.5732 52.4551 70.5385 52.5C70.063 52.2143 69.5426 51.9959 68.9895 51.8571C68.9957 51.802 68.9997 51.7469 68.9997 51.6898C68.9997 50.9286 68.3834 50.3122 67.6222 50.3122C66.861 50.3122 66.2446 50.9286 66.2446 51.6898C66.2446 51.7469 66.2487 51.802 66.2548 51.8571C65.7018 51.9939 65.1814 52.2122 64.7059 52.5C64.6712 52.4571 64.6365 52.4143 64.5957 52.3735C64.0569 51.8347 63.1855 51.8347 62.6467 52.3735C62.1079 52.9122 62.1079 53.7837 62.6467 54.3224C62.6875 54.3632 62.7283 54.3979 62.7732 54.4326C62.4875 54.9081 62.2691 55.4286 62.1303 55.9816C62.0752 55.9755 62.0201 55.9714 61.963 55.9714C61.2018 55.9714 60.5854 56.5877 60.5854 57.349C60.5854 58.1102 61.2018 58.7265 61.963 58.7265C62.0201 58.7265 62.0752 58.7224 62.1303 58.7163C62.2671 59.2694 62.4854 59.7898 62.7732 60.2653C62.7303 60.3 62.6875 60.3347 62.6467 60.3755C62.1079 60.9143 62.1079 61.7857 62.6467 62.3245C63.1855 62.8632 64.0569 62.8632 64.5957 62.3245C64.6365 62.2837 64.6712 62.2428 64.7059 62.1979C65.1814 62.4837 65.7018 62.702 66.2548 62.8408C66.2487 62.8959 66.2446 62.951 66.2446 63.0081C66.2446 63.7694 66.861 64.3857 67.6222 64.3857C68.3834 64.3857 68.9997 63.7694 68.9997 63.0081C68.9997 62.951 68.9957 62.8959 68.9895 62.8408C69.5426 62.7041 70.063 62.4857 70.5385 62.1979C70.5732 62.2408 70.6079 62.2837 70.6487 62.3245C71.1875 62.8632 72.0589 62.8632 72.5977 62.3245C73.1365 61.7857 73.1365 60.9143 72.5977 60.3755C72.5569 60.3347 72.5161 60.3 72.4712 60.2653C72.7569 59.7898 72.9752 59.2694 73.114 58.7163C73.1691 58.7224 73.2242 58.7265 73.2814 58.7265C74.0426 58.7265 74.6589 58.1102 74.6589 57.349C74.6589 56.5877 74.0426 55.9714 73.2814 55.9714ZM67.6222 59.9081C66.2079 59.9081 65.063 58.7632 65.063 57.349C65.063 55.9347 66.2079 54.7898 67.6222 54.7898C69.0365 54.7898 70.1814 55.9347 70.1814 57.349C70.1814 58.7632 69.0365 59.9081 67.6222 59.9081Z" fill="white"/>
<path d="M67.622 64.4531C66.8261 64.4531 66.1791 63.8061 66.1791 63.0102C66.1791 62.9735 66.1791 62.9347 66.1852 62.8918C65.671 62.7592 65.1791 62.5551 64.722 62.2857C64.6954 62.3184 64.6689 62.3469 64.6424 62.3735C64.0791 62.9367 63.1648 62.9367 62.6016 62.3735C62.0383 61.8102 62.0383 60.8939 62.6016 60.3326C62.6281 60.3061 62.6567 60.2796 62.6893 60.2531C62.4199 59.7959 62.2158 59.3041 62.0832 58.7898C62.0424 58.7939 62.0016 58.7959 61.9648 58.7959C61.1689 58.7959 60.522 58.149 60.522 57.3531C60.522 56.5571 61.1689 55.9102 61.9648 55.9102C62.0016 55.9102 62.0403 55.9102 62.0832 55.9163C62.2158 55.402 62.4199 54.9102 62.6893 54.4531C62.6567 54.4265 62.6281 54.4 62.6016 54.3735C62.3281 54.1 62.1791 53.7388 62.1791 53.353C62.1791 52.9673 62.3301 52.6041 62.6016 52.3326C62.875 52.0592 63.2363 51.9102 63.622 51.9102C64.0077 51.9102 64.371 52.0612 64.6424 52.3326C64.6689 52.3592 64.6954 52.3877 64.722 52.4204C65.1791 52.151 65.671 51.9469 66.1852 51.8143C66.1812 51.7714 66.1791 51.7326 66.1791 51.6959C66.1791 50.9 66.8261 50.2531 67.622 50.2531C68.4179 50.2531 69.0648 50.9 69.0648 51.6959C69.0648 51.7326 69.0648 51.7714 69.0587 51.8143C69.573 51.9469 70.0648 52.151 70.522 52.4204C70.5485 52.3877 70.575 52.3592 70.6016 52.3326C70.875 52.0592 71.2363 51.9102 71.622 51.9102C72.0077 51.9102 72.371 52.0612 72.6424 52.3326C72.9159 52.6061 73.0648 52.9673 73.0648 53.353C73.0648 53.7388 72.9138 54.102 72.6424 54.3735C72.6159 54.4 72.5873 54.4265 72.5546 54.4531C72.824 54.9102 73.0281 55.402 73.1607 55.9163C73.2016 55.9122 73.2424 55.9102 73.2791 55.9102C74.075 55.9102 74.722 56.5571 74.722 57.3531C74.722 58.149 74.075 58.7959 73.2791 58.7959C73.2424 58.7959 73.2036 58.7959 73.1607 58.7898C73.0281 59.3041 72.824 59.7959 72.5546 60.2531C72.5873 60.2796 72.6159 60.3061 72.6424 60.3326C73.2056 60.8959 73.2056 61.8122 72.6424 62.3735C72.0791 62.9367 71.1628 62.9367 70.6016 62.3735C70.575 62.3469 70.5485 62.3184 70.522 62.2857C70.0648 62.5551 69.573 62.7592 69.0587 62.8918C69.0628 62.9326 69.0648 62.9714 69.0648 63.0102C69.0648 63.8061 68.4179 64.4531 67.622 64.4531ZM64.7056 62.1347C64.7179 62.1347 64.7281 62.1388 64.7403 62.1449C65.2159 62.4326 65.7322 62.6449 66.273 62.7796C66.3056 62.7877 66.3261 62.8184 66.322 62.851C66.3138 62.9102 66.3118 62.9612 66.3118 63.0102C66.3118 63.7347 66.9016 64.3224 67.624 64.3224C68.3465 64.3224 68.9363 63.7326 68.9363 63.0102C68.9363 62.9612 68.9322 62.9102 68.9261 62.851C68.922 62.8184 68.9424 62.7877 68.975 62.7796C69.5159 62.6449 70.0301 62.4326 70.5077 62.1449C70.5363 62.1286 70.573 62.1347 70.5934 62.1612C70.6301 62.2082 70.6648 62.2469 70.6995 62.2816C71.2118 62.7939 72.0444 62.7939 72.5567 62.2816C73.0689 61.7694 73.0689 60.9367 72.5567 60.4245C72.522 60.3898 72.4832 60.3571 72.4363 60.3204C72.4097 60.3 72.4036 60.2633 72.4199 60.2347C72.7077 59.7592 72.9199 59.2428 73.0546 58.702C73.0628 58.6694 73.0934 58.649 73.1261 58.653C73.1852 58.6612 73.2363 58.6633 73.2852 58.6633C74.0097 58.6633 74.5975 58.0735 74.5975 57.351C74.5975 56.6286 74.0077 56.0388 73.2852 56.0388C73.2363 56.0388 73.1852 56.0428 73.1261 56.049C73.0934 56.0531 73.0628 56.0326 73.0546 56C72.9199 55.4592 72.7077 54.9449 72.4199 54.4673C72.4036 54.4388 72.4097 54.402 72.4363 54.3816C72.4832 54.3449 72.522 54.3102 72.5567 54.2755C72.8036 54.0286 72.9403 53.6979 72.9403 53.3469C72.9403 52.9959 72.8036 52.6673 72.5567 52.4184C72.3097 52.1694 71.9791 52.0347 71.6281 52.0347C71.2771 52.0347 70.9485 52.1714 70.6995 52.4184C70.6648 52.4531 70.6301 52.4918 70.5934 52.5388C70.573 52.5653 70.5363 52.5714 70.5077 52.5551C70.0322 52.2673 69.5159 52.0551 68.975 51.9204C68.9424 51.9122 68.922 51.8816 68.9261 51.849C68.9342 51.7898 68.9363 51.7388 68.9363 51.6898C68.9363 50.9653 68.3465 50.3775 67.624 50.3775C66.9016 50.3775 66.3118 50.9673 66.3118 51.6898C66.3118 51.7388 66.3159 51.7898 66.322 51.849C66.3261 51.8816 66.3056 51.9122 66.273 51.9204C65.7322 52.0551 65.2179 52.2673 64.7403 52.5551C64.7118 52.5714 64.675 52.5653 64.6546 52.5388C64.6179 52.4918 64.5832 52.4531 64.5485 52.4184C64.2995 52.1694 63.971 52.0347 63.6199 52.0347C63.2689 52.0347 62.9403 52.1714 62.6914 52.4184C62.4444 52.6653 62.3077 52.9959 62.3077 53.3469C62.3077 53.6979 62.4444 54.0265 62.6914 54.2755C62.7261 54.3102 62.7648 54.3449 62.8118 54.3796C62.8383 54.4 62.8444 54.4367 62.8281 54.4653C62.5403 54.9408 62.3281 55.4571 62.1934 55.9979C62.1852 56.0306 62.1546 56.051 62.122 56.0469C62.0628 56.0388 62.0118 56.0367 61.9628 56.0367C61.2383 56.0367 60.6505 56.6265 60.6505 57.349C60.6505 58.0714 61.2403 58.6612 61.9628 58.6612C62.0118 58.6612 62.0628 58.6571 62.122 58.651C62.1546 58.6469 62.1852 58.6673 62.1934 58.7C62.3281 59.2408 62.5403 59.7551 62.8281 60.2326C62.8444 60.2612 62.8383 60.2979 62.8118 60.3184C62.7648 60.3551 62.7261 60.3898 62.6914 60.4224C62.1791 60.9347 62.1791 61.7673 62.6914 62.2796C63.2036 62.7918 64.0363 62.7918 64.5485 62.2796C64.5832 62.2449 64.6159 62.2061 64.6546 62.1592C64.6669 62.1428 64.6873 62.1347 64.7056 62.1347ZM67.622 59.9755C66.175 59.9755 64.9975 58.7979 64.9975 57.351C64.9975 55.9041 66.175 54.7265 67.622 54.7265C69.0689 54.7265 70.2465 55.9041 70.2465 57.351C70.2465 58.7979 69.0689 59.9755 67.622 59.9755ZM67.622 54.8551C66.2465 54.8551 65.1281 55.9735 65.1281 57.349C65.1281 58.7245 66.2465 59.8428 67.622 59.8428C68.9975 59.8428 70.1159 58.7245 70.1159 57.349C70.1159 55.9735 68.9975 54.8551 67.622 54.8551Z" fill="black"/>
<path d="M78.3938 49.2428C78.3612 49.2102 78.3285 49.1837 78.2938 49.1551C78.5244 48.7653 78.6918 48.3469 78.7938 47.9184C78.8367 47.9224 78.8816 47.9265 78.9265 47.9265C79.5326 47.9224 80.0183 47.4265 80.0142 46.8224C80.0101 46.2163 79.5142 45.7306 78.9101 45.7347C78.8652 45.7347 78.8203 45.7388 78.7775 45.7449C78.6673 45.3163 78.4938 44.902 78.2571 44.5163C78.2918 44.4898 78.3244 44.4592 78.3571 44.4286C78.7816 43.9979 78.7754 43.3041 78.3448 42.8775C77.9142 42.451 77.2203 42.4592 76.7938 42.8898C76.7612 42.9224 76.7346 42.9551 76.706 42.9898C76.3163 42.7592 75.8979 42.5918 75.4693 42.4898C75.4734 42.4469 75.4775 42.402 75.4775 42.3571C75.4734 41.751 74.9775 41.2653 74.3734 41.2694C73.7673 41.2735 73.2816 41.7694 73.2856 42.3735C73.2856 42.4184 73.2897 42.4633 73.2958 42.5061C72.8673 42.6163 72.453 42.7898 72.0673 43.0265C72.0407 42.9918 72.0101 42.9592 71.9795 42.9265C71.5489 42.502 70.855 42.5081 70.4285 42.9388C70.002 43.3694 70.0101 44.0633 70.4407 44.4898C70.4734 44.5224 70.5061 44.549 70.5407 44.5775C70.3101 44.9673 70.1428 45.3857 70.0407 45.8143C69.9979 45.8102 69.953 45.8061 69.9081 45.8061C69.302 45.8102 68.8163 46.3061 68.8203 46.9102C68.8244 47.5163 69.3203 48.002 69.9244 47.9979C69.9693 47.9979 70.0142 47.9939 70.0571 47.9877C70.1673 48.4163 70.3407 48.8306 70.5775 49.2163C70.5428 49.2428 70.5101 49.2735 70.4775 49.3041C70.053 49.7347 70.0591 50.4286 70.4897 50.8551C70.9203 51.2796 71.6142 51.2735 72.0407 50.8428C72.0734 50.8102 72.0999 50.7775 72.1285 50.7428C72.5183 50.9735 72.9367 51.1408 73.3652 51.2428C73.3612 51.2857 73.3571 51.3306 73.3571 51.3755C73.3612 51.9816 73.8571 52.4673 74.4612 52.4633C75.0673 52.4592 75.553 51.9633 75.5489 51.3592C75.5489 51.3143 75.5448 51.2694 75.5387 51.2265C75.9673 51.1163 76.3816 50.9428 76.7673 50.7061C76.7938 50.7408 76.8244 50.7735 76.855 50.8061C77.2856 51.2306 77.9795 51.2245 78.4061 50.7939C78.8305 50.3633 78.8244 49.6694 78.3938 49.2428ZM72.9897 48.3163C72.1877 47.5286 72.1775 46.2388 72.9673 45.4388C73.755 44.6367 75.0448 44.6265 75.8448 45.4163C76.6469 46.2041 76.6571 47.4939 75.8673 48.2939C75.0795 49.0959 73.7897 49.1061 72.9897 48.3163Z" fill="#6E00BE"/>
<path d="M60.5835 61.9306L43.455 61.8837C43.4182 61.8837 43.3896 61.8551 43.3896 61.8184C43.3896 61.7816 43.4182 61.7531 43.455 61.7531L60.5835 61.8C60.6203 61.8 60.6488 61.8286 60.6488 61.8653C60.6488 61.902 60.6203 61.9306 60.5835 61.9306Z" fill="black"/>
<path d="M54.2936 64.4857H30.9569C30.9202 64.4857 30.8916 64.4571 30.8916 64.4204V60.7122C30.8916 60.6755 30.9202 60.6469 30.9569 60.6469C30.9936 60.6469 31.0222 60.6755 31.0222 60.7122V64.3551H54.2936C54.3304 64.3551 54.3589 64.3836 54.3589 64.4204C54.3589 64.4571 54.3304 64.4857 54.2936 64.4857Z" fill="black"/>
<path d="M33.6816 18.7143C33.4428 18.7143 33.2224 18.6204 33.0612 18.451C32.8999 18.2816 32.8204 18.0551 32.8346 17.8163C32.8632 17.3286 33.2857 16.9306 33.7734 16.9306C34.0122 16.9306 34.2326 17.0245 34.3938 17.1939C34.553 17.3633 34.6346 17.5898 34.6204 17.8286C34.5918 18.3163 34.1693 18.7143 33.6816 18.7143ZM33.7755 17.1347C33.3918 17.1347 33.0632 17.4449 33.0408 17.8286C33.0306 18.0102 33.0918 18.1816 33.2122 18.3102C33.3326 18.4388 33.5 18.5102 33.6836 18.5102C34.0673 18.5102 34.3959 18.2 34.4183 17.8163C34.4285 17.6326 34.3693 17.4633 34.2469 17.3347C34.1265 17.2061 33.9591 17.1347 33.7755 17.1347Z" fill="#340160"/>
<path d="M35.9897 18.7143C35.7509 18.7143 35.5305 18.6204 35.3692 18.451C35.2101 18.2816 35.1284 18.0551 35.1427 17.8163C35.1713 17.3286 35.5937 16.9306 36.0815 16.9306C36.3203 16.9306 36.5407 17.0245 36.7019 17.1939C36.8611 17.3633 36.9427 17.5898 36.9284 17.8286C36.8999 18.3163 36.4774 18.7143 35.9897 18.7143ZM36.0815 17.1347C35.6978 17.1347 35.3692 17.4449 35.3468 17.8286C35.3366 18.0122 35.3958 18.1816 35.5182 18.3102C35.6386 18.4388 35.806 18.5102 35.9897 18.5102C36.3733 18.5102 36.7019 18.2 36.7243 17.8163C36.7346 17.6326 36.6754 17.4633 36.5529 17.3347C36.4325 17.2061 36.2652 17.1347 36.0815 17.1347Z" fill="#340160"/>
<path d="M39.1328 17.8224C39.1063 18.2592 38.7328 18.6122 38.2961 18.6122C37.8594 18.6122 37.5267 18.2592 37.5532 17.8224C37.5798 17.3857 37.9532 17.0327 38.39 17.0327C38.8267 17.0327 39.1594 17.3857 39.1328 17.8224Z" fill="#F500A3"/>
<path d="M44.4715 22.6796H38.0858C38.0674 22.6796 38.0511 22.6714 38.0389 22.6592C38.0266 22.6469 38.0205 22.6285 38.0205 22.6102L38.2225 19.1836C38.2246 19.1469 38.2552 19.1204 38.2919 19.1224C38.3287 19.1245 38.3552 19.1551 38.3532 19.1918L38.1552 22.549H44.4715C44.5083 22.549 44.5368 22.5775 44.5368 22.6143C44.5368 22.651 44.5083 22.6796 44.4715 22.6796Z" fill="black"/>
<path d="M47.9509 46.9122C48.9958 46.9122 49.8428 46.0643 49.8428 45.0184C49.8428 43.9724 48.9958 43.1245 47.9509 43.1245C46.9061 43.1245 46.0591 43.9724 46.0591 45.0184C46.0591 46.0643 46.9061 46.9122 47.9509 46.9122Z" fill="#F500A3"/>
<path d="M47.7164 46.1367C47.6756 46.1367 47.6348 46.1163 47.6123 46.0816L46.8654 44.9571C46.8266 44.9 46.8429 44.8224 46.9001 44.7837C46.9572 44.7449 47.0348 44.7612 47.0735 44.8184L47.7184 45.7877L48.898 44.051C48.9368 43.9939 49.0144 43.9796 49.0715 44.0184C49.1286 44.0571 49.1429 44.1347 49.1041 44.1918L47.8205 46.0816C47.798 46.1163 47.7592 46.1367 47.7164 46.1367Z" fill="white"/>
<path d="M47.9509 57.1082C48.9958 57.1082 49.8428 56.2602 49.8428 55.2143C49.8428 54.1683 48.9958 53.3204 47.9509 53.3204C46.9061 53.3204 46.0591 54.1683 46.0591 55.2143C46.0591 56.2602 46.9061 57.1082 47.9509 57.1082Z" fill="#F500A3"/>
<path d="M47.7164 56.3347C47.6756 56.3347 47.6348 56.3143 47.6123 56.2796L46.8654 55.1551C46.8266 55.098 46.8429 55.0204 46.9001 54.9816C46.9572 54.9429 47.0348 54.9592 47.0735 55.0163L47.7184 55.9857L48.898 54.249C48.9368 54.1918 49.0144 54.1776 49.0715 54.2163C49.1286 54.2551 49.1429 54.3327 49.1041 54.3898L47.8205 56.2796C47.798 56.3143 47.7592 56.3347 47.7164 56.3347Z" fill="white"/>
<path d="M47.9509 52.0102C48.9958 52.0102 49.8428 51.1623 49.8428 50.1163C49.8428 49.0704 48.9958 48.2224 47.9509 48.2224C46.9061 48.2224 46.0591 49.0704 46.0591 50.1163C46.0591 51.1623 46.9061 52.0102 47.9509 52.0102Z" fill="#F500A3"/>
<path d="M47.7164 51.2347C47.6756 51.2347 47.6348 51.2143 47.6123 51.1796L46.8654 50.0551C46.8266 49.998 46.8429 49.9204 46.9001 49.8816C46.9572 49.8429 47.0348 49.8592 47.0735 49.9163L47.7184 50.8857L48.898 49.149C48.9368 49.0918 49.0144 49.0775 49.0715 49.1163C49.1286 49.1551 49.1429 49.2326 49.1041 49.2898L47.8205 51.1796C47.798 51.2143 47.7592 51.2347 47.7164 51.2347Z" fill="white"/>
<path d="M58.308 44.5041H51.5305C51.4835 44.5041 51.4468 44.4673 51.4468 44.4204C51.4468 44.3735 51.4835 44.3367 51.5305 44.3367H58.308C58.3549 44.3367 58.3917 44.3735 58.3917 44.4204C58.3917 44.4673 58.3549 44.5041 58.308 44.5041Z" fill="black"/>
<path d="M58.308 45.6367H51.5305C51.4835 45.6367 51.4468 45.6 51.4468 45.5531C51.4468 45.5061 51.4835 45.4694 51.5305 45.4694H58.308C58.3549 45.4694 58.3917 45.5061 58.3917 45.5531C58.3917 45.6 58.3549 45.6367 58.308 45.6367Z" fill="black"/>
<path d="M58.308 54.702H51.5305C51.4835 54.702 51.4468 54.6653 51.4468 54.6184C51.4468 54.5714 51.4835 54.5347 51.5305 54.5347H58.308C58.3549 54.5347 58.3917 54.5714 58.3917 54.6184C58.3917 54.6653 58.3549 54.702 58.308 54.702Z" fill="black"/>
<path d="M58.308 55.8327H51.5305C51.4835 55.8327 51.4468 55.7959 51.4468 55.749C51.4468 55.702 51.4835 55.6653 51.5305 55.6653H58.308C58.3549 55.6653 58.3917 55.702 58.3917 55.749C58.3917 55.7959 58.3549 55.8327 58.308 55.8327Z" fill="black"/>
<path d="M58.308 49.602H51.5305C51.4835 49.602 51.4468 49.5653 51.4468 49.5184C51.4468 49.4714 51.4835 49.4347 51.5305 49.4347H58.308C58.3549 49.4347 58.3917 49.4714 58.3917 49.5184C58.3917 49.5653 58.3549 49.602 58.308 49.602Z" fill="black"/>
<path d="M58.308 50.7347H51.5305C51.4835 50.7347 51.4468 50.698 51.4468 50.651C51.4468 50.6041 51.4835 50.5674 51.5305 50.5674H58.308C58.3549 50.5674 58.3917 50.6041 58.3917 50.651C58.3917 50.698 58.3549 50.7347 58.308 50.7347Z" fill="black"/>
<path d="M47.9509 42.3102C47.9039 42.3102 47.8672 42.2735 47.8672 42.2265V39.0755C47.8672 39.0286 47.9039 38.9918 47.9509 38.9918H62.0754C62.1223 38.9918 62.159 39.0286 62.159 39.0755C62.159 39.1224 62.1223 39.1592 62.0754 39.1592H48.0345V42.2265C48.0345 42.2735 47.9978 42.3102 47.9509 42.3102Z" fill="black"/>
<path d="M49.1366 36.2612H44.7366C44.7182 36.2612 44.6999 36.253 44.6876 36.2408C44.6754 36.2265 44.6692 36.2081 44.6713 36.1898L45.0978 31.7898C45.1019 31.7571 45.1284 31.7306 45.1631 31.7306H49.3101C49.3468 31.7306 49.3754 31.7592 49.3754 31.7959C49.3754 31.8326 49.3468 31.8612 49.3101 31.8612H45.2223L44.808 36.1306H49.0754L49.3815 32.9714C49.3856 32.9347 49.4162 32.9081 49.4529 32.9122C49.4897 32.9163 49.5162 32.9469 49.5121 32.9837L49.1999 36.202C49.1958 36.2347 49.1692 36.2612 49.1345 36.2612H49.1366Z" fill="black"/>
<path d="M47.0102 35.5061C47.0102 35.5061 47.0081 35.5061 47.0061 35.5061C46.9857 35.5061 46.9653 35.4939 46.9551 35.4755L45.4653 33.0612C45.4469 33.0306 45.4551 32.9898 45.4857 32.9714C45.5163 32.953 45.5571 32.9612 45.5755 32.9918L47.0163 35.3265L50.3673 31.2122C50.3898 31.1837 50.4306 31.1796 50.4592 31.202C50.4877 31.2245 50.4918 31.2653 50.4694 31.2939L47.0592 35.4796C47.0469 35.4959 47.0285 35.5041 47.0081 35.5041L47.0102 35.5061Z" fill="#F500A3"/>
<path d="M73.3834 32.6633H66.5487C66.512 32.6633 66.4834 32.6347 66.4834 32.598C66.4834 32.5612 66.512 32.5327 66.5487 32.5327H73.3834C73.4201 32.5327 73.4487 32.5612 73.4487 32.598C73.4487 32.6347 73.4201 32.6633 73.3834 32.6633Z" fill="black"/>
<path d="M65.2322 32.6633H58.6547C58.6179 32.6633 58.5894 32.6347 58.5894 32.598C58.5894 32.5612 58.6179 32.5327 58.6547 32.5327H65.2322C65.269 32.5327 65.2975 32.5612 65.2975 32.598C65.2975 32.6347 65.269 32.6633 65.2322 32.6633Z" fill="black"/>
<path d="M57.3383 32.6633H51.4178C51.3811 32.6633 51.3525 32.6347 51.3525 32.598C51.3525 32.5612 51.3811 32.5327 51.4178 32.5327H57.3383C57.375 32.5327 57.4036 32.5612 57.4036 32.598C57.4036 32.6347 57.375 32.6633 57.3383 32.6633Z" fill="black"/>
<path d="M71.9241 34.1306H69.3241C69.2874 34.1306 69.2588 34.102 69.2588 34.0653C69.2588 34.0286 69.2874 34 69.3241 34H71.9241C71.9608 34 71.9894 34.0286 71.9894 34.0653C71.9894 34.102 71.9608 34.1306 71.9241 34.1306Z" fill="black"/>
<path d="M68.0079 34.1306H56.7406C56.7039 34.1306 56.6753 34.102 56.6753 34.0653C56.6753 34.0286 56.7039 34 56.7406 34H68.0079C68.0447 34 68.0733 34.0286 68.0733 34.0653C68.0733 34.102 68.0447 34.1306 68.0079 34.1306Z" fill="black"/>
<path d="M55.4242 34.1306H51.2772C51.2405 34.1306 51.2119 34.102 51.2119 34.0653C51.2119 34.0286 51.2405 34 51.2772 34H55.4242C55.4609 34 55.4895 34.0286 55.4895 34.0653C55.4895 34.102 55.4609 34.1306 55.4242 34.1306Z" fill="black"/>
</g>
<defs>
<clipPath id="clip0_5479_1028">
<rect width="80" height="80" fill="white"/>
</clipPath>
</defs>
</svg>
