<svg width="80" height="80" viewBox="0 0 80 80" fill="none" xmlns="http://www.w3.org/2000/svg">
<g clip-path="url(#clip0_5479_795)">
<path d="M72.842 57.0198C73.0049 56.482 72.701 55.914 72.1632 55.7511C71.6254 55.5882 71.0574 55.8921 70.8945 56.4299C70.7316 56.9677 71.0356 57.5357 71.5733 57.6986C72.1111 57.8614 72.6791 57.5575 72.842 57.0198Z" fill="#5C78EE"/>
<path d="M79.4326 62.2839H37.936L36.2241 62.533V63.1726C36.2241 63.943 36.8489 64.5678 37.6194 64.5678H78.6389C79.4093 64.5678 80.0341 63.943 80.0341 63.1726V62.6617L79.4326 62.2839Z" fill="white"/>
<path d="M37.6551 36.5298H78.605C79.3944 36.5298 80.034 37.1694 80.034 37.9588V62.6596H36.2261V37.9588C36.2261 37.1694 36.8657 36.5298 37.6551 36.5298Z" fill="white"/>
<path d="M80.0338 62.7251H36.2259C36.19 62.7251 36.1626 62.6955 36.1626 62.6617V37.9609C36.1626 37.1377 36.8317 36.4665 37.6571 36.4665H78.6069C79.4301 36.4665 80.1014 37.1356 80.1014 37.9609V62.6617C80.1014 62.6976 80.0718 62.7251 80.0381 62.7251H80.0338ZM36.2892 62.5963H79.9684V37.9609C79.9684 37.2074 79.3563 36.5953 78.6027 36.5953H37.6528C36.8993 36.5953 36.2871 37.2074 36.2871 37.9609V62.5963H36.2892Z" fill="black"/>
<path d="M78.5374 61.2285H37.7206C37.6847 61.2285 37.6572 61.199 37.6572 61.1652V38.172C37.6572 38.0581 37.7501 37.9652 37.8641 37.9652H78.3939C78.5079 37.9652 78.6008 38.0581 78.6008 38.172V61.1652C78.6008 61.2011 78.5712 61.2285 78.5374 61.2285ZM37.786 61.0997H78.4741V38.1699C78.4741 38.1256 78.4382 38.0918 78.396 38.0918H37.8662C37.8219 38.0918 37.7881 38.1277 37.7881 38.1699V61.0997H37.786Z" fill="black"/>
<path d="M78.6387 64.629H37.6192C36.815 64.629 36.1606 63.9747 36.1606 63.1704C36.1606 63.1346 36.1902 63.1071 36.224 63.1071C36.2577 63.1071 36.2873 63.1367 36.2873 63.1704C36.2873 63.9029 36.8847 64.5003 37.6171 64.5003H78.6366C79.3691 64.5003 79.9664 63.9029 79.9664 63.1704C79.9664 63.1346 79.996 63.1071 80.0298 63.1071C80.0635 63.1071 80.0931 63.1367 80.0931 63.1704C80.0931 63.9747 79.4387 64.629 78.6345 64.629H78.6387Z" fill="black"/>
<path d="M50.1323 64.5657H66.126V67.5863C66.126 68.2554 65.5835 68.7979 64.9144 68.7979H51.3439C50.6748 68.7979 50.1323 68.2554 50.1323 67.5863V64.5657Z" fill="white"/>
<path d="M64.9142 68.8633H51.3438C50.6409 68.8633 50.0688 68.2913 50.0688 67.5884V64.5678C50.0688 64.5319 50.0984 64.5045 50.1322 64.5045H66.1258C66.1617 64.5045 66.1892 64.534 66.1892 64.5678V67.5884C66.1892 68.2913 65.6171 68.8633 64.9142 68.8633ZM50.1976 64.629V67.5863C50.1976 68.2195 50.7126 68.7346 51.3459 68.7346H64.9163C65.5496 68.7346 66.0625 68.2195 66.0625 67.5863V64.629H50.1976Z" fill="black"/>
<path d="M65.5304 65.6232H50.7293C50.6935 65.6232 50.666 65.5937 50.666 65.5599C50.666 65.5261 50.6956 65.4966 50.7293 65.4966H65.5304C65.5663 65.4966 65.5937 65.5261 65.5937 65.5599C65.5937 65.5937 65.5642 65.6232 65.5304 65.6232Z" fill="black"/>
<path d="M65.8724 57.7372C65.275 57.7372 64.7896 57.2517 64.7896 56.6544C64.7896 56.057 65.275 55.5715 65.8724 55.5715C66.4698 55.5715 66.9553 56.057 66.9553 56.6544C66.9553 57.2517 66.4698 57.7372 65.8724 57.7372ZM65.8724 55.7024C65.3468 55.7024 64.9183 56.1309 64.9183 56.6565C64.9183 57.1821 65.3468 57.6106 65.8724 57.6106C66.398 57.6106 66.8265 57.1821 66.8265 56.6565C66.8265 56.1309 66.398 55.7024 65.8724 55.7024Z" fill="black"/>
<path d="M68.8421 57.7372C68.2448 57.7372 67.7593 57.2517 67.7593 56.6544C67.7593 56.057 68.2448 55.5715 68.8421 55.5715C69.4395 55.5715 69.925 56.057 69.925 56.6544C69.925 57.2517 69.4395 57.7372 68.8421 57.7372ZM68.8421 55.7024C68.3165 55.7024 67.888 56.1309 67.888 56.6565C67.888 57.1821 68.3165 57.6106 68.8421 57.6106C69.3677 57.6106 69.7962 57.1821 69.7962 56.6565C69.7962 56.1309 69.3677 55.7024 68.8421 55.7024Z" fill="black"/>
<path d="M72.7981 56.8853C72.9272 56.3385 72.5885 55.7905 72.0416 55.6614C71.4947 55.5323 70.9468 55.871 70.8177 56.4179C70.6886 56.9648 71.0273 57.5127 71.5742 57.6418C72.1211 57.7709 72.669 57.4322 72.7981 56.8853Z" fill="#6E00BE"/>
<path d="M62.3792 56.7198H43.6478C43.6119 56.7198 43.5845 56.6903 43.5845 56.6565V53.0174C43.5845 52.9815 43.614 52.9541 43.6478 52.9541C43.6816 52.9541 43.7111 52.9837 43.7111 53.0174V56.5932H62.3792C62.4151 56.5932 62.4425 56.6227 62.4425 56.6565C62.4425 56.6903 62.413 56.7198 62.3792 56.7198Z" fill="black"/>
<path d="M63.3794 43.6496H74.3028C74.7968 43.6496 75.1978 44.0507 75.1978 44.5446V54.305H62.4844V44.5446C62.4844 44.0507 62.8854 43.6496 63.3794 43.6496Z" fill="white"/>
<path d="M75.2001 54.3683H62.4867C62.4508 54.3683 62.4233 54.3388 62.4233 54.305V44.5446C62.4233 44.0148 62.8539 43.5842 63.3838 43.5842H74.3072C74.8371 43.5842 75.2677 44.0148 75.2677 44.5446V54.305C75.2677 54.3409 75.2381 54.3683 75.2043 54.3683H75.2001ZM62.55 54.2396H75.1347V44.5446C75.1347 44.0865 74.7611 43.7129 74.303 43.7129H63.3795C62.9215 43.7129 62.5479 44.0865 62.5479 44.5446V54.2396H62.55Z" fill="black"/>
<path d="M74.5081 47.7361L68.8427 49.6528L63.1772 47.7361V41.047H74.5081V47.7361Z" fill="white"/>
<path d="M68.8426 49.7499C68.8426 49.7499 68.8215 49.7499 68.8109 49.7456L63.1455 47.829C63.1054 47.8163 63.0801 47.7784 63.0801 47.7382V41.0491C63.0801 40.9963 63.1223 40.952 63.1772 40.952H74.508C74.5608 40.952 74.6051 40.9942 74.6051 41.0491V47.7382C74.6051 47.7805 74.5798 47.8163 74.5397 47.829L68.8743 49.7456C68.8743 49.7456 68.8532 49.7499 68.8426 49.7499ZM63.2743 47.6665L68.8426 49.5493L74.4109 47.6665V41.1441H63.2722V47.6665H63.2743Z" fill="black"/>
<path d="M73.4275 44.1942H64.2603V44.9625H73.4275V44.1942Z" fill="#F500A3"/>
<path d="M73.4275 42.6364H64.2603V43.4048H73.4275V42.6364Z" fill="#F500A3"/>
<path d="M73.4275 45.752H64.2603V46.5203H73.4275V45.752Z" fill="#F500A3"/>
<path d="M68.8425 49.7161C68.8425 49.7161 68.8278 49.7161 68.8214 49.7118L62.4636 47.5567C62.4299 47.5462 62.413 47.5082 62.4235 47.4744C62.4341 47.4406 62.4721 47.4237 62.5059 47.4343L68.8636 49.5894C68.8974 49.6 68.9143 49.638 68.9037 49.6717C68.8953 49.6992 68.87 49.7161 68.8425 49.7161Z" fill="black"/>
<path d="M68.8427 49.7161C68.8152 49.7161 68.7899 49.6992 68.7814 49.6717C68.7709 49.638 68.7878 49.6021 68.8216 49.5894L75.1793 47.4343C75.2131 47.4237 75.249 47.4406 75.2617 47.4744C75.2722 47.5082 75.2553 47.544 75.2215 47.5567L68.8638 49.7118C68.8638 49.7118 68.849 49.7161 68.8427 49.7161Z" fill="black"/>
<path d="M3.70294 34.1657L2.90083 67.3098C2.88183 68.0612 3.48763 68.762 4.23908 68.762H12.1948C12.9948 68.762 13.6174 67.9831 13.5246 67.1874L12.4818 58.0792L14.9536 67.7531C15.1056 68.3462 15.6396 68.7599 16.2517 68.7599H27.0802C27.5784 68.7599 27.8401 68.171 27.5066 67.7995L25.5119 65.5853L13.1911 32.4074L8.87233 30.5119L3.70083 34.1657H3.70294Z" fill="white"/>
<path d="M27.0823 68.8275H16.2538C15.6121 68.8275 15.0527 68.3926 14.8944 67.7721L12.6548 59.0122L13.5899 67.1831C13.6385 67.6032 13.4991 68.0317 13.21 68.3567C12.9398 68.6607 12.5788 68.8275 12.1968 68.8275H4.23899C3.88226 68.8275 3.5382 68.6776 3.27434 68.4053C2.98727 68.1098 2.82685 67.7108 2.8374 67.3077L3.63951 34.1636C3.63951 34.1425 3.65007 34.1235 3.66696 34.1129L8.83846 30.4591C8.85746 30.4465 8.88068 30.4443 8.90178 30.4528L13.2205 32.3483C13.2374 32.3546 13.248 32.3694 13.2543 32.3842L25.573 65.5536L27.5593 67.7594C27.7303 67.9494 27.7725 68.2132 27.6691 68.4475C27.5656 68.6818 27.3419 68.8275 27.0844 68.8275H27.0823ZM12.4838 58.018C12.5134 58.018 12.5387 58.037 12.5451 58.0665L15.0168 67.7404C15.1604 68.3061 15.6691 68.7008 16.2517 68.7008H27.0801C27.2849 68.7008 27.4643 68.5847 27.5466 68.3969C27.629 68.209 27.5973 68 27.4601 67.848L25.4654 65.6338C25.4654 65.6338 25.4548 65.6211 25.4527 65.6127L13.1403 32.456L8.88068 30.5858L3.76616 34.1995L2.96405 67.3119C2.95561 67.6792 3.10126 68.0443 3.36511 68.3166C3.60574 68.5636 3.91603 68.7008 4.23899 68.7008H12.1947C12.5408 68.7008 12.8659 68.5488 13.1129 68.2723C13.3788 67.9747 13.5055 67.5821 13.4612 67.1979L12.4184 58.0897C12.4142 58.056 12.4374 58.0243 12.4712 58.0201C12.4754 58.0201 12.4796 58.0201 12.4838 58.0201V58.018Z" fill="black"/>
<path d="M12.4417 57.8027C12.4101 57.8027 12.3826 57.7794 12.3784 57.7457L10.2781 39.5779C10.2444 39.2802 10.3626 38.9911 10.5969 38.8032L11.0549 38.4359C11.0824 38.4127 11.1225 38.419 11.1457 38.4465C11.1689 38.4739 11.1626 38.514 11.1351 38.5372L10.6771 38.9045C10.4787 39.0649 10.3773 39.3098 10.4048 39.5631L12.5051 57.7309C12.5093 57.7668 12.4839 57.7984 12.4481 57.8027C12.446 57.8027 12.4438 57.8027 12.4396 57.8027H12.4417Z" fill="black"/>
<path d="M25.0262 65.7203H14.4383C14.4024 65.7203 14.375 65.6908 14.375 65.657C14.375 65.6232 14.4046 65.5937 14.4383 65.5937H25.0262C25.0621 65.5937 25.0895 65.6232 25.0895 65.657C25.0895 65.6908 25.06 65.7203 25.0262 65.7203Z" fill="black"/>
<path d="M12.8235 65.7203H2.96811C2.93223 65.7203 2.90479 65.6908 2.90479 65.657C2.90479 65.6232 2.93434 65.5937 2.96811 65.5937H12.8214C12.8573 65.5937 12.8847 65.6232 12.8847 65.657C12.8847 65.6908 12.8552 65.7203 12.8214 65.7203H12.8235Z" fill="black"/>
<path d="M11.0188 17.7035C11.213 17.4101 11.3756 17.047 11.2637 16.7135C11.1455 16.361 10.7001 16.1583 10.3581 16.304C10.5017 16.0528 10.6199 15.7847 10.7064 15.5082C9.76711 15.4808 8.80247 15.6475 7.99824 16.1351C7.19613 16.6227 6.57766 17.4628 6.50378 18.4C6.47212 18.7905 6.54178 19.2 6.77397 19.5145C7.01671 19.8438 7.41355 20.0317 7.81038 20.1309C8.32964 20.2597 8.89956 20.2575 9.37239 20.0064C9.69112 19.8375 9.95075 19.5441 10.0647 19.2C10.0943 19.1135 10.1133 19.0227 10.1196 18.9298C10.1238 18.8644 10.0922 18.742 10.1175 18.6829C10.1471 18.6132 10.2758 18.5457 10.3328 18.495C10.413 18.4232 10.4911 18.3473 10.5671 18.2692C10.7339 18.094 10.8858 17.9061 11.0209 17.7035H11.0188Z" fill="black"/>
<path d="M10.1532 17.7647C10.1363 17.7647 10.1194 17.7583 10.1088 17.7457C10.0835 17.7203 10.0835 17.6802 10.1088 17.6549C10.303 17.4586 10.4466 17.2158 10.5226 16.952C10.5331 16.9182 10.569 16.8992 10.6028 16.9077C10.6365 16.9182 10.6555 16.9541 10.6471 16.9879C10.5627 17.2728 10.4086 17.5346 10.1996 17.7436C10.1869 17.7562 10.1701 17.7625 10.1532 17.7625V17.7647Z" fill="black"/>
<path d="M10.0668 22.8116L9.54118 22.7547L9.68049 20.9626C9.68049 20.9626 9.24355 18.7779 7.56334 20.4095L7.25516 22.8433L6.76123 22.9045C6.76123 22.9045 6.96176 24.0401 8.37178 24.0359C9.57073 24.0338 10.0879 23.6285 10.0668 22.8095V22.8116Z" fill="white"/>
<path d="M6.95978 22.9446C6.92812 22.9446 6.90068 22.9214 6.89646 22.8876C6.89223 22.8517 6.91757 22.8201 6.95134 22.8159L7.19619 22.7842L7.49804 20.399C7.49804 20.3842 7.50648 20.3715 7.51704 20.361C8.04474 19.848 8.51334 19.6496 8.90807 19.772C9.5392 19.9684 9.7334 20.9077 9.74184 20.9478C9.74184 20.9541 9.74184 20.9604 9.74184 20.9647L9.60886 22.6955L9.85582 22.723C9.89171 22.7272 9.91704 22.7589 9.91282 22.7947C9.90859 22.8306 9.87693 22.856 9.84105 22.8517L9.53076 22.818C9.49698 22.8137 9.47165 22.7842 9.47377 22.7483L9.61097 20.9647C9.58986 20.8739 9.39567 20.0591 8.86585 19.8945C8.5239 19.7889 8.10384 19.9705 7.61836 20.437L7.31229 22.8496C7.30807 22.8792 7.28485 22.9024 7.25741 22.9045L6.964 22.9425C6.964 22.9425 6.95767 22.9425 6.95556 22.9425L6.95978 22.9446Z" fill="black"/>
<path d="M8.34039 20.4918C8.59157 20.7071 8.89131 20.8739 9.21849 20.9372C9.54355 20.9984 9.89817 20.9478 10.1726 20.7663C10.6348 20.4602 10.8037 19.8375 10.7214 19.2887C10.6391 18.7399 10.3541 18.2459 10.0713 17.7689C10.0713 17.7689 8.98841 18.5984 7.99421 18.7335C7.86756 19.0565 7.85279 19.371 7.92667 19.6792C7.92667 19.6792 7.70503 19.4787 7.50239 19.6116C7.28287 19.7552 7.19421 20.0633 7.29975 20.3019C7.40529 20.5404 7.6797 20.6882 7.93933 20.6628C8.08709 20.648 8.22218 20.6206 8.34039 20.494V20.4918Z" fill="white"/>
<path d="M9.4843 21.0259C9.39142 21.0259 9.29854 21.0174 9.20567 21.0005C8.91015 20.9435 8.61253 20.8 8.34234 20.5784C8.21358 20.6881 8.07005 20.7114 7.94551 20.724C7.65211 20.7536 7.35448 20.5847 7.2405 20.3251C7.12018 20.0528 7.21939 19.7151 7.46635 19.5546C7.60145 19.4681 7.73654 19.4976 7.83364 19.542C7.79353 19.2591 7.82519 18.9805 7.93285 18.7061C7.94129 18.685 7.96029 18.6681 7.9835 18.666C8.95026 18.5351 10.0204 17.7224 10.031 17.714C10.0458 17.7034 10.0648 17.6992 10.0817 17.7013C10.1007 17.7056 10.1154 17.7161 10.1239 17.7309C10.3793 18.1594 10.6959 18.6934 10.7824 19.2739C10.8774 19.9156 10.6516 20.5193 10.2062 20.8148C10.0014 20.952 9.74604 21.0216 9.48218 21.0216L9.4843 21.0259ZM8.34023 20.4285C8.35501 20.4285 8.36978 20.4327 8.38245 20.4433C8.6463 20.6691 8.9397 20.819 9.231 20.8739C9.55817 20.9351 9.88957 20.876 10.1386 20.7114C10.5988 20.4053 10.7318 19.7805 10.66 19.295C10.5819 18.7652 10.297 18.267 10.0542 17.8596C9.81781 18.0327 8.91015 18.6554 8.04261 18.7884C7.93707 19.0776 7.92018 19.3625 7.98984 19.6623C7.99617 19.6897 7.9835 19.7172 7.96029 19.7319C7.93707 19.7467 7.9054 19.7425 7.8843 19.7235C7.87585 19.7172 7.69643 19.5589 7.53812 19.6623C7.34604 19.7868 7.26583 20.0612 7.36081 20.2744C7.45369 20.4855 7.69643 20.6206 7.93496 20.5974C8.08905 20.5826 8.1967 20.553 8.29591 20.4496C8.30857 20.437 8.32546 20.4285 8.34234 20.4285H8.34023Z" fill="black"/>
<path d="M8.13111 20.2639C8.13111 20.2639 8.12056 20.2639 8.11634 20.2639C7.98336 20.2322 7.85671 20.1815 7.74061 20.1119C7.71106 20.0929 7.70051 20.0549 7.71951 20.0232C7.7385 19.9937 7.7765 19.9831 7.80816 20.0021C7.9137 20.0655 8.02557 20.1119 8.14589 20.1393C8.17966 20.1478 8.20288 20.1815 8.19444 20.2174C8.18811 20.247 8.16067 20.2681 8.13111 20.2681V20.2639Z" fill="black"/>
<path d="M13.3997 28.3842C13.3997 28.3842 17.957 29.0765 21.7396 25.4987C20.8361 24.9816 20.281 24.0549 19.9855 22.8243C19.9855 22.8243 18.4446 24.3272 16.9712 24.3272C15.6942 24.3272 12.929 22.9721 10.0668 22.78C10.0098 22.9615 9.92955 23.1367 9.80923 23.2823C9.57704 23.5673 9.20765 23.7235 8.85303 23.7805C8.51108 23.8354 8.15435 23.8164 7.82084 23.7235C7.52111 23.6391 7.22982 23.4892 7.00818 23.2676C6.90686 23.1662 6.82243 23.0502 6.76121 22.9256C4.69261 23.0903 3.39024 23.3414 2.29683 24.6755C0.891028 26.3979 -0.282587 29.6317 0.0593658 31.6728C0.401318 33.714 1.34063 34.3473 2.53747 34.7399L2.4847 35.8438C2.42559 37.0681 3.6372 37.9525 4.78549 37.5261L14.3517 33.9821C14.8161 33.809 15.0609 33.2982 14.9026 32.8275L13.3997 28.3821V28.3842Z" fill="#6E00BE"/>
<path d="M13.3765 28.361C13.3491 28.361 13.3238 28.3441 13.3153 28.3166L13.0578 27.5462C13.0473 27.5124 13.0641 27.4765 13.0979 27.4639C13.1317 27.4533 13.1676 27.4702 13.1802 27.504L13.4378 28.2744C13.4483 28.3082 13.4314 28.3441 13.3977 28.3568C13.3913 28.3589 13.385 28.361 13.3765 28.361Z" fill="black"/>
<path d="M20.0765 22.7905C21.3451 21.6317 22.5124 20.3335 23.9731 19.4301C24.1018 19.3499 24.239 19.2718 24.3889 19.2591C24.5388 19.2465 24.7076 19.3182 24.7604 19.4618C24.8132 19.6053 24.7308 19.7615 24.6464 19.8881C24.3762 20.2871 23.9815 20.6987 23.5783 20.9604C23.5783 20.9604 24.2475 21.0639 24.2137 21.6929C24.2137 21.6929 24.6084 21.7626 24.429 22.5246C24.429 22.5246 24.6527 23.1198 24.1187 23.4533C23.7345 23.6939 23.4834 23.5969 23.4834 23.5969C23.4834 23.5969 22.2 25.2011 21.3662 25.752C20.5303 26.3029 19.3968 23.4153 20.0807 22.7905H20.0765Z" fill="white"/>
<path d="M21.8202 25.4565C21.8033 25.4565 21.7844 25.4501 21.7717 25.4354C21.7485 25.4079 21.7506 25.3678 21.778 25.3446C22.5421 24.6649 23.4223 23.5694 23.4308 23.5567C23.4477 23.5356 23.4772 23.5272 23.5047 23.5377C23.5131 23.5399 23.7369 23.6158 24.083 23.3984C24.5664 23.0966 24.3743 22.5689 24.3659 22.5457C24.3617 22.533 24.3595 22.5203 24.3638 22.5077C24.4482 22.1446 24.3954 21.9567 24.3363 21.8639C24.2772 21.771 24.2012 21.7541 24.197 21.7541C24.1654 21.7478 24.1421 21.7182 24.1442 21.6866C24.1759 21.1209 23.5891 21.0259 23.5638 21.0217C23.5363 21.0174 23.5152 20.9984 23.511 20.971C23.5047 20.9457 23.5173 20.9182 23.5384 20.9034C23.9121 20.6607 24.3047 20.2681 24.5896 19.8501C24.6572 19.7509 24.7416 19.6053 24.6973 19.4808C24.6551 19.3647 24.5094 19.3119 24.3933 19.3203C24.2582 19.3309 24.1337 19.4027 24.0049 19.4808C22.9242 20.1499 21.911 21.123 20.9316 22.0623C20.6508 22.3325 20.3849 22.5879 20.1189 22.8348C20.0936 22.8581 20.0514 22.8581 20.0281 22.8306C20.0049 22.8053 20.0049 22.7631 20.0324 22.7399C20.2983 22.4929 20.5643 22.2375 20.845 21.9694C21.8287 21.0259 22.8461 20.0486 23.9395 19.371C24.0746 19.2866 24.2202 19.2042 24.3849 19.1916C24.5537 19.1768 24.7564 19.257 24.8218 19.4364C24.8851 19.6158 24.7817 19.7995 24.6994 19.9219C24.4355 20.3103 24.0809 20.6797 23.7284 20.933C23.9311 21.0027 24.2772 21.1905 24.2772 21.6443C24.3237 21.6655 24.3891 21.7056 24.444 21.7879C24.5516 21.9504 24.5685 22.1953 24.4946 22.5161C24.5284 22.628 24.6677 23.181 24.1527 23.5019C23.8382 23.6982 23.6039 23.6834 23.5068 23.6644C23.3548 23.8523 22.5632 24.8148 21.8646 25.4354C21.8519 25.4459 21.8371 25.4523 21.8223 25.4523L21.8202 25.4565Z" fill="black"/>
<path d="M23.1689 23.1831C23.0697 23.1831 22.9768 23.1557 22.9008 23.0987C22.8164 23.0354 22.7615 22.9277 22.7594 22.8158C22.7573 22.7187 22.7931 22.6301 22.8607 22.5731C22.8881 22.5499 22.9282 22.5541 22.9515 22.5815C22.9747 22.609 22.9704 22.6491 22.943 22.6723C22.8923 22.7145 22.886 22.7779 22.8881 22.8116C22.8881 22.8855 22.924 22.9552 22.9789 22.9953C23.095 23.0818 23.2617 23.0607 23.3757 23.0016C23.5024 22.9362 23.5995 22.8285 23.7092 22.6871C23.8338 22.5246 23.9879 22.3071 24.066 22.056C24.0934 21.9694 24.1103 21.8808 24.1166 21.7942C24.1187 21.7583 24.1504 21.733 24.1842 21.7351C24.2201 21.7372 24.2475 21.7689 24.2433 21.8027C24.2369 21.8998 24.2179 21.9968 24.1884 22.0939C24.104 22.3641 23.9414 22.5942 23.8106 22.7652C23.7071 22.9003 23.5889 23.0354 23.4348 23.1156C23.3483 23.1599 23.2575 23.181 23.1689 23.181V23.1831Z" fill="black"/>
<path d="M21.995 22.8475C21.8684 22.8475 21.7439 22.7948 21.6848 22.6808C21.6679 22.6491 21.6805 22.6111 21.7122 22.5942C21.7439 22.5773 21.7818 22.59 21.7987 22.6217C21.8515 22.723 22.0035 22.742 22.1154 22.6955C22.223 22.6512 22.3074 22.5668 22.3982 22.476C22.413 22.4612 22.4299 22.4444 22.4446 22.4296C22.5502 22.3261 22.6937 22.2058 22.871 22.1953C22.9702 22.1889 23.0631 22.2185 23.1539 22.248C23.2425 22.2755 23.327 22.3029 23.4072 22.2924C23.4832 22.2818 23.5507 22.2354 23.5993 22.1594C23.6626 22.0602 23.6795 21.9335 23.6457 21.828C23.5697 21.5895 23.3227 21.4565 23.1834 21.3995C22.9238 21.294 22.641 21.2623 22.3665 21.3066C22.3307 21.313 22.299 21.2876 22.2927 21.2539C22.2863 21.218 22.3117 21.1863 22.3454 21.18C22.6452 21.1314 22.9512 21.1652 23.232 21.2792C23.3924 21.3446 23.6774 21.4987 23.7681 21.7879C23.8125 21.9293 23.7892 22.0982 23.7069 22.2269C23.6373 22.3346 23.538 22.4042 23.422 22.419C23.3122 22.4338 23.2109 22.4021 23.1117 22.3705C23.0293 22.3451 22.9512 22.3198 22.8753 22.324C22.7402 22.3325 22.6198 22.4338 22.5312 22.5225C22.5164 22.5372 22.4995 22.552 22.4847 22.5689C22.3898 22.6639 22.2906 22.7631 22.1597 22.818C22.109 22.8391 22.0499 22.8496 21.9908 22.8496L21.995 22.8475Z" fill="black"/>
<path d="M23.3715 23.5018C23.3081 23.5018 23.249 23.4913 23.1963 23.4681C23.0717 23.4153 22.9852 23.2971 22.981 23.1726C22.981 23.1367 23.0084 23.1071 23.0422 23.105C23.0781 23.105 23.1076 23.1325 23.1097 23.1662C23.1118 23.2401 23.1688 23.314 23.2469 23.3478C23.3208 23.3794 23.4137 23.3794 23.5087 23.3478C23.6036 23.3161 23.6902 23.2591 23.7641 23.2063C24.011 23.029 24.1778 22.8454 24.2791 22.6449C24.2939 22.6132 24.334 22.6005 24.3657 22.6153C24.3973 22.6301 24.41 22.6702 24.3952 22.7018C24.2854 22.9214 24.1039 23.1219 23.8401 23.3098C23.7598 23.3689 23.6606 23.4322 23.5488 23.4681C23.4897 23.4871 23.4306 23.4976 23.3736 23.4976L23.3715 23.5018Z" fill="black"/>
<path d="M23.4642 23.6327C23.4473 23.6327 23.4304 23.6264 23.4178 23.6137C23.3798 23.5757 23.3481 23.5293 23.327 23.4807C23.3122 23.4491 23.327 23.4111 23.3608 23.3963C23.3924 23.3815 23.4304 23.3963 23.4452 23.4301C23.46 23.4639 23.4832 23.4976 23.5085 23.523C23.5339 23.5483 23.5339 23.5884 23.5085 23.6137C23.4959 23.6264 23.479 23.6327 23.4621 23.6327H23.4642Z" fill="black"/>
<path d="M13.5456 25.066H8.72446C8.6548 25.066 8.5957 25.1103 8.57459 25.1779L6.7424 31.3499C6.71285 31.4491 6.78673 31.5504 6.89227 31.5504H11.7134C11.783 31.5504 11.8421 31.5061 11.8632 31.4385L13.6954 25.2665C13.725 25.1673 13.6511 25.066 13.5456 25.066Z" fill="#F500A3"/>
<path d="M11.0691 29.8723C11.276 29.6718 11.4026 29.4565 11.2696 29.2433C11.1366 29.0301 10.8052 28.9815 10.6153 29.1462C10.7546 29.0364 10.8981 28.9224 10.9825 28.7662C11.067 28.61 11.0796 28.399 10.9614 28.266C10.858 28.1478 10.6828 28.1182 10.5287 28.152C10.4527 28.1689 10.3831 28.1984 10.3134 28.2343C10.3789 28.1351 10.3979 27.9937 10.3409 27.886C10.2459 27.7003 10.0116 27.6222 9.80471 27.6454C9.59785 27.6686 9.40999 27.7742 9.22635 27.8755C8.01052 28.5594 5.60629 29.9504 5.60629 29.9504C5.54297 30.2966 6.80946 33.0829 7.28862 33.5472C7.59891 33.4544 9.92292 31.5926 10.8031 30.837C10.9509 30.7103 11.1029 30.5752 11.1767 30.3958C11.2527 30.2164 11.2232 29.9779 11.0628 29.8702L11.0691 29.8723Z" fill="white"/>
<path d="M8.89304 29.2222C8.87193 29.2222 8.85082 29.2116 8.83816 29.1905C8.81916 29.161 8.82971 29.1209 8.85927 29.1019C9.30254 28.8296 9.74792 28.5425 10.1806 28.2512C10.2102 28.2322 10.2503 28.2386 10.2693 28.2681C10.2883 28.2977 10.282 28.3378 10.2524 28.3568C9.81758 28.6481 9.37219 28.9351 8.92681 29.2095C8.91626 29.2159 8.9057 29.2201 8.89304 29.2201V29.2222Z" fill="black"/>
<path d="M9.45631 30.056C9.4352 30.056 9.41621 30.0475 9.40354 30.0285C9.38243 29.999 9.38877 29.9589 9.41832 29.9378L10.5666 29.1166C10.5962 29.0955 10.6363 29.1019 10.6574 29.1314C10.6785 29.161 10.6721 29.2011 10.6426 29.2222L9.49431 30.0433C9.48375 30.0517 9.46898 30.056 9.45631 30.056Z" fill="black"/>
<path d="M9.99472 30.7399C9.97361 30.7399 9.95462 30.7293 9.94195 30.7124C9.92295 30.6829 9.92929 30.6428 9.95884 30.6238C10.3071 30.3895 10.647 30.1341 10.972 29.8681C10.9995 29.8449 11.0396 29.8491 11.0628 29.8765C11.086 29.904 11.0818 29.9441 11.0544 29.9673C10.7272 30.2375 10.3831 30.4929 10.0327 30.7314C10.0222 30.7399 10.0095 30.742 9.99683 30.742L9.99472 30.7399Z" fill="black"/>
<path d="M3.61802 34.9509C3.29084 34.9509 2.96155 34.9256 2.63438 34.8707C2.59849 34.8644 2.57527 34.8327 2.58161 34.7969C2.58794 34.761 2.6196 34.7377 2.65548 34.7441C4.25548 35.0037 5.92092 34.6027 7.22752 33.6422C7.25707 33.6211 7.29717 33.6275 7.31828 33.6549C7.33939 33.6845 7.33306 33.7246 7.30562 33.7457C6.23965 34.5309 4.93517 34.9509 3.62013 34.9509H3.61802Z" fill="black"/>
<path d="M2.90034 31.5905C2.87712 31.5905 2.85602 31.58 2.84546 31.5588C2.82857 31.5272 2.83913 31.4892 2.86868 31.4702L5.4481 29.98C5.47976 29.9631 5.51776 29.9736 5.53675 30.0032C5.55364 30.0348 5.54309 30.0728 5.51354 30.0918L2.93412 31.5821C2.93412 31.5821 2.91301 31.5905 2.90245 31.5905H2.90034Z" fill="black"/>
<path d="M3.7255 30.9277C3.7255 30.9277 3.71706 30.9277 3.71283 30.9277C3.67906 30.9214 3.65584 30.8876 3.66218 30.8517L4.35663 27.4639C4.36297 27.4301 4.39885 27.4069 4.43262 27.4132C4.4664 27.4195 4.48962 27.4533 4.48328 27.4892L3.78882 30.8771C3.78249 30.9066 3.75505 30.9277 3.7255 30.9277Z" fill="black"/>
<path d="M60.336 14.6892H33.0874V48.933H60.336V14.6892Z" fill="white"/>
<path d="M60.3358 48.9984H33.0873C33.0514 48.9984 33.0239 48.9689 33.0239 48.9351V14.6892C33.0239 14.6533 33.0535 14.6259 33.0873 14.6259H60.3358C60.3717 14.6259 60.3991 14.6554 60.3991 14.6892V48.933C60.3991 48.9689 60.3696 48.9963 60.3358 48.9963V48.9984ZM33.1527 48.8697H60.2725V14.7546H33.1527V48.8697Z" fill="black"/>
<path d="M58.6475 13.0005H31.3989V47.2444H58.6475V13.0005Z" fill="white"/>
<path d="M58.6473 47.3098H31.3988C31.3629 47.3098 31.3354 47.2802 31.3354 47.2465V13.0005C31.3354 12.9647 31.365 12.9372 31.3988 12.9372H58.6473C58.6832 12.9372 58.7107 12.9668 58.7107 13.0005V47.2444C58.7107 47.2802 58.6811 47.3077 58.6473 47.3077V47.3098ZM31.4642 47.181H58.584V13.066H31.4642V47.181Z" fill="black"/>
<path d="M56.8975 11.2507H29.6489V45.4945H56.8975V11.2507Z" fill="#F500A3"/>
<path d="M56.8973 45.5599H29.6488C29.6129 45.5599 29.5854 45.5304 29.5854 45.4966V11.2507C29.5854 11.2148 29.615 11.1873 29.6488 11.1873H56.8973C56.9332 11.1873 56.9606 11.2169 56.9606 11.2507V45.4945C56.9606 45.5304 56.9311 45.5578 56.8973 45.5578V45.5599ZM29.7142 45.4311H56.834V11.3161H29.7142V45.4311Z" fill="black"/>
<path d="M53.5347 27.0713H33.0112V29.3045H53.5347V27.0713Z" fill="black"/>
<path d="M53.5347 31.8502H33.0112V34.0834H53.5347V31.8502Z" fill="black"/>
<path d="M43.2764 24.0464C46.0847 24.0464 48.3613 21.7698 48.3613 18.9615C48.3613 16.1531 46.0847 13.8765 43.2764 13.8765C40.468 13.8765 38.1914 16.1531 38.1914 18.9615C38.1914 21.7698 40.468 24.0464 43.2764 24.0464Z" fill="black"/>
<path d="M47.609 19.9851C48.1741 17.5911 46.6914 15.1924 44.2974 14.6273C41.9034 14.0623 39.5046 15.545 38.9396 17.939C38.3746 20.333 39.8572 22.7317 42.2512 23.2968C44.6452 23.8618 47.044 22.3791 47.609 19.9851Z" fill="black"/>
<mask id="mask0_5479_795" style="mask-type:luminance" maskUnits="userSpaceOnUse" x="38" y="14" width="10" height="10">
<path d="M47.609 19.9851C48.1741 17.5911 46.6914 15.1924 44.2974 14.6273C41.9034 14.0623 39.5046 15.545 38.9396 17.939C38.3746 20.333 39.8572 22.7317 42.2512 23.2968C44.6452 23.8618 47.044 22.3791 47.609 19.9851Z" fill="white"/>
</mask>
<g mask="url(#mask0_5479_795)">
<path d="M45.7944 21.1103L43.2762 20.5298L40.758 21.1103C40.0804 21.2665 39.5401 21.7773 39.348 22.4444L38.8013 25.332H47.7511L47.2044 22.4444C47.0102 21.7773 46.472 21.2665 45.7944 21.1103Z" fill="white"/>
<path d="M42.189 18.9699H44.361V21.1589C44.361 21.6718 43.9452 22.0876 43.4322 22.0876H43.1198C42.6069 22.0876 42.1911 21.6718 42.1911 21.1589V18.9699H42.189Z" fill="white"/>
<path d="M45.0767 17.5958C44.9986 17.5768 44.9184 17.5831 44.8445 17.6127C44.7812 16.6185 44.1036 15.943 43.2741 15.943C42.4445 15.943 41.767 16.6185 41.7036 17.6127C41.6298 17.5852 41.5517 17.5768 41.4715 17.5958C41.2393 17.6528 41.1063 17.923 41.1738 18.1974C41.2414 18.4718 41.4862 18.647 41.7184 18.59C41.7564 18.5815 41.7902 18.5647 41.8219 18.5457C42.0625 19.2802 42.6197 19.8438 43.272 19.8438C43.9242 19.8438 44.4836 19.2802 44.7221 18.5457C44.7538 18.5647 44.7876 18.5794 44.8255 18.59C45.0577 18.647 45.3026 18.4718 45.3701 18.1974C45.4377 17.923 45.3047 17.6528 45.0725 17.5958H45.0767Z" fill="white"/>
<path d="M43.276 19.9388C42.6196 19.9388 41.999 19.39 41.733 18.5752C41.7161 18.5246 41.7436 18.4697 41.7942 18.4528C41.8449 18.4359 41.8998 18.4634 41.9166 18.514C42.1573 19.2507 42.7019 19.7446 43.276 19.7446C43.8502 19.7446 44.3948 19.2507 44.6354 18.514C44.6523 18.4634 44.7071 18.4359 44.7578 18.4528C44.8085 18.4697 44.8359 18.5246 44.819 18.5752C44.5531 19.3921 43.9325 19.9388 43.276 19.9388Z" fill="#E2E9FC"/>
<path d="M43.8085 15.1768C42.4618 14.9509 40.8977 15.2317 41.5605 17.3509L41.7315 17.8597L42.0059 18.0454C42.0059 18.0454 41.9278 16.648 42.3668 16.5742C42.7806 16.5045 42.808 16.781 43.304 16.7684C43.8001 16.781 43.8275 16.5066 44.2413 16.5742C44.6782 16.6459 44.6022 18.0454 44.6022 18.0454L44.8766 17.8597L45.0476 17.3509C45.4845 15.7024 44.7837 15.0544 43.8064 15.1768H43.8085Z" fill="black"/>
<path d="M42.0057 18.1108C41.993 18.1108 41.9804 18.1066 41.9698 18.1003L41.6954 17.9145C41.6827 17.9061 41.6743 17.8955 41.6701 17.8829L41.4991 17.3742C41.2458 16.5615 41.2943 15.9494 41.6405 15.5525C42.1682 14.9467 43.2215 15.0164 43.8104 15.1135C44.2875 15.0565 44.6885 15.1831 44.9376 15.4702C45.2774 15.8586 45.3387 16.5172 45.1107 17.3699L44.9376 17.8829C44.9334 17.8955 44.9249 17.9082 44.9123 17.9145L44.6379 18.1003C44.6168 18.1129 44.5914 18.1151 44.5703 18.1024C44.5492 18.0897 44.5366 18.0665 44.5387 18.0433C44.5682 17.524 44.5091 16.686 44.2326 16.6396C44.0426 16.6079 43.9476 16.6544 43.8273 16.7114C43.7028 16.7705 43.5635 16.8401 43.3038 16.8338C43.0463 16.8401 42.907 16.7726 42.7825 16.7114C42.6621 16.6523 42.5672 16.6079 42.3772 16.6396C42.0986 16.686 42.0416 17.524 42.0711 18.0433C42.0711 18.0686 42.0606 18.0897 42.0395 18.1024C42.0289 18.1087 42.0183 18.1108 42.0078 18.1108H42.0057ZM44.1186 16.5024C44.1587 16.5024 44.203 16.5066 44.2537 16.5151C44.6653 16.5826 44.6822 17.5536 44.6738 17.9251L44.8257 17.8216L44.9904 17.334C45.2036 16.5277 45.1529 15.9114 44.8426 15.5567C44.6168 15.2971 44.2621 15.1895 43.8189 15.2443C43.8125 15.2443 43.8062 15.2443 43.7999 15.2443C43.2405 15.1515 42.2294 15.0776 41.7397 15.6391C41.4231 16 41.3851 16.572 41.6236 17.3362L41.7883 17.8238L41.9402 17.9272C41.9318 17.5578 41.9466 16.5868 42.3603 16.5172C42.5904 16.4792 42.7191 16.5404 42.8416 16.6016C42.9577 16.6586 43.078 16.7156 43.3059 16.7092C43.5381 16.7156 43.6585 16.6565 43.7745 16.6016C43.8716 16.5552 43.9709 16.5066 44.1207 16.5066L44.1186 16.5024Z" fill="white"/>
</g>
<path d="M26.3992 19.5979C26.5283 19.051 26.1896 18.503 25.6427 18.374C25.0958 18.2449 24.5478 18.5836 24.4188 19.1305C24.2897 19.6773 24.6284 20.2253 25.1753 20.3544C25.7221 20.4835 26.2701 20.1448 26.3992 19.5979Z" fill="#F500A3"/>
<path d="M28.9627 34.4085H25.4081C25.3722 34.4085 25.3447 34.3789 25.3447 34.3451V21.3425C25.3447 21.3066 25.3743 21.2792 25.4081 21.2792C25.4418 21.2792 25.4714 21.3087 25.4714 21.3425V34.2818H28.9606C28.9964 34.2818 29.0239 34.3114 29.0239 34.3451C29.0239 34.3789 28.9943 34.4085 28.9606 34.4085H28.9627Z" fill="black"/>
<path d="M39.2444 68.8275H7.26547C7.22959 68.8275 7.20215 68.7979 7.20215 68.7641C7.20215 68.7304 7.2317 68.7008 7.26547 68.7008H39.2465C39.2824 68.7008 39.3098 68.7304 39.3098 68.7641C39.3098 68.7979 39.2802 68.8275 39.2465 68.8275H39.2444Z" fill="black"/>
</g>
<defs>
<clipPath id="clip0_5479_795">
<rect width="80" height="80" fill="white"/>
</clipPath>
</defs>
</svg>
